<svg width="225" height="292" viewBox="0 0 225 292" fill="none" xmlns="http://www.w3.org/2000/svg">
<path d="M113.873 292C175.247 292 225 285.32 225 277.08C225 268.84 175.247 262.16 113.873 262.16C52.4985 262.16 2.74503 268.84 2.74503 277.08C2.74503 285.32 52.4985 292 113.873 292Z" fill="#CED3E6"/>
<path d="M176.168 254.925C174.856 256.707 173.433 258.404 171.888 260.01C164.164 268.064 153.485 273.835 139.302 275.767C66.7709 285.627 42.8012 239.42 36.9443 168.331C34.333 136.651 40.4424 115.743 48.0176 102.303C48.8121 100.898 49.6189 99.5763 50.4318 98.3301C50.8937 97.6276 51.3618 96.9418 51.8483 96.2728C61.6283 82.7074 75.7502 76.3178 89.6258 79.4206C100.533 81.8544 110.442 89.7661 118.479 105.581C131.339 130.864 119.175 152.6 155.918 154.055C184.045 155.167 201.868 220.109 176.162 254.934L176.168 254.925Z" fill="#39393B"/>
<path d="M65.1264 101.416C65.1264 101.416 56.5474 126.339 66.4505 172.086C76.3537 217.834 89.4717 214.229 97.9461 214.229C112.752 214.229 142.732 195.295 148.589 180.374C154.446 165.454 143.391 164.568 122.692 162.36C101.986 160.152 86.5402 91.5474 65.1264 101.416Z" fill="#26120C"/>
<path d="M83.7256 233.423C83.5655 233.423 83.3992 233.339 83.2761 233.164C83.042 232.829 83.0482 232.302 83.3007 231.976C90.7035 222.417 97.7736 216.788 102.405 213.744C107.437 210.441 110.682 209.412 110.818 209.37C111.15 209.27 111.483 209.546 111.557 209.997C111.631 210.449 111.427 210.901 111.095 211.001C110.947 211.051 98.0569 215.233 84.1568 233.189C84.0398 233.339 83.8858 233.423 83.7318 233.423H83.7256Z" fill="#26120C"/>
<path d="M86.1708 222.225C85.9737 222.225 85.7766 222.099 85.6596 221.857C85.4687 221.472 85.5426 220.953 85.8259 220.694C86.1153 220.426 93.0069 214.221 103.674 212.64C104.013 212.59 104.314 212.925 104.351 213.385C104.388 213.845 104.142 214.254 103.803 214.305C93.438 215.843 86.5772 222.016 86.5095 222.082C86.4048 222.183 86.2816 222.225 86.1646 222.225H86.1708Z" fill="#EB996E"/>
<path d="M63.8022 153.01C63.4943 153.01 63.2295 152.7 63.1925 152.274C62.2995 142.581 59.2263 135.171 56.8121 130.663C54.1824 125.762 51.7312 123.127 51.7066 123.102C51.4417 122.818 51.3925 122.291 51.6019 121.923C51.8113 121.555 52.1993 121.497 52.4702 121.781C52.5749 121.89 55.0569 124.558 57.7852 129.626C60.2979 134.301 63.4881 141.987 64.4243 152.065C64.4674 152.525 64.2272 152.943 63.8885 153.001C63.8638 153.001 63.8392 153.001 63.8084 153.001L63.8022 153.01Z" fill="#26120C"/>
<path d="M176.168 254.925C174.856 256.707 173.433 258.404 171.887 260.01C162.963 267.286 152.069 272.079 140.072 273.952C136.352 274.529 132.595 274.822 128.838 274.822C118.479 274.822 108.096 272.631 98.3095 268.323C72.8494 257.125 54.4781 233.164 46.5826 200.865C42.253 183.151 40.1283 165.931 40.2638 149.673C40.3685 136.651 41.9266 124.215 44.8766 112.707C45.862 108.868 46.9336 105.405 48.0176 102.303C48.812 100.898 49.6188 99.5762 50.4318 98.3301C50.8937 97.6276 51.3618 96.9418 51.8483 96.2727C49.9145 100.772 47.8451 106.484 46.0776 113.384C41.5263 131.173 38.1329 160.696 47.8143 200.304C55.5743 232.06 73.6501 255.619 98.7037 266.642C125.322 278.351 156.109 273.601 175.312 254.833C175.577 254.574 175.934 254.624 176.155 254.934L176.168 254.925Z" fill="#26120C"/>
<path d="M69.8009 72.6295C69.8009 72.6295 59.7868 58.7296 74.3706 48.9362C88.9606 39.1427 106.143 54.1047 108.958 65.0189C111.779 75.933 69.7947 72.6295 69.7947 72.6295H69.8009Z" fill="#4DC3B9"/>
<path d="M87.2238 63.0954C87.1376 63.0954 87.0452 63.0536 86.9713 62.9699C82.9928 58.345 76.3229 58.7715 76.2552 58.7715C76.249 58.7715 76.2429 58.7715 76.2367 58.7715C76.0335 58.7715 75.861 58.5541 75.8549 58.2781C75.8426 57.9854 76.0089 57.7428 76.2183 57.7261C76.5016 57.701 83.2638 57.2745 87.4763 62.1754C87.6365 62.3594 87.655 62.6939 87.5195 62.9114C87.4456 63.0285 87.3347 63.0954 87.2238 63.0954Z" fill="#2BD7CC"/>
<path d="M77.45 63.7561C77.3145 63.7561 77.179 63.6558 77.1113 63.4801C77.0127 63.2209 77.0805 62.9114 77.2714 62.7693C77.4685 62.6271 82.0814 59.3319 85.3516 60.369C85.561 60.4359 85.6904 60.7119 85.6411 60.9962C85.5918 61.2806 85.3886 61.4562 85.1792 61.3893C82.1861 60.4442 77.6779 63.6641 77.6348 63.6976C77.5793 63.7394 77.5178 63.7561 77.4562 63.7561H77.45Z" fill="#2BD7CC"/>
<path d="M178.36 246.57L183.497 259.425C183.497 259.425 189.809 261.44 197.323 262.226C208.735 263.414 212.116 260.972 212.923 264.434C213.551 267.136 204.873 273.233 200.858 274.194C196.843 275.156 188.073 280.04 182.376 280.902C176.685 281.755 174.172 271.995 172.879 268.524C171.592 265.045 167.533 253.278 167.533 253.278L178.354 246.57H178.36Z" fill="#F69D84"/>
<path d="M208.446 267.83C208.47 268.8 208.341 269.72 207.965 270.464C207.904 270.581 207.842 270.69 207.768 270.799C205.748 273.826 197.656 275.298 197.656 275.298C198.302 274.453 198.61 273.266 198.703 271.936C198.955 268.44 197.729 263.957 197.2 262.21C197.052 261.733 196.96 261.465 196.96 261.465C198.358 261.022 199.688 260.771 200.889 260.654C202.071 260.537 203.131 260.537 204.005 260.587C205.656 260.687 206.666 260.963 206.666 260.963C206.666 260.963 206.949 261.582 207.288 262.536C207.78 263.907 208.39 265.965 208.439 267.83H208.446Z" fill="#39393B"/>
<path d="M205.009 265.705L202.207 266.099C202.207 266.099 201.837 264.242 201.418 262.536C201.246 261.842 201.061 261.164 200.895 260.662C202.077 260.545 203.137 260.545 204.011 260.595C204.178 261.097 204.375 261.808 204.547 262.594C204.769 263.59 204.96 264.71 205.003 265.705H205.009Z" fill="#CE7A63"/>
<path d="M211.937 266.333C211.937 266.333 185.8 277.573 182.283 278.401C178.773 279.237 176.858 278.301 176.858 278.301C176.858 278.301 176.968 280.258 177.264 282.081C177.609 284.239 179.259 285.51 180.811 284.857C187.802 281.922 210.915 272.12 212.492 270.381C214.352 268.332 213.945 266.149 211.937 266.333Z" fill="#39393B"/>
<path d="M154.28 243.618L153.941 255.168C153.941 255.168 158.609 261.29 164.768 267.178C174.129 276.126 177.954 276.377 177.344 279.907C176.87 282.658 167.108 281.88 163.302 279.915C159.49 277.958 150.11 276.059 144.894 272.848C139.677 269.628 141.199 259.5 141.396 255.619C141.599 251.739 142.024 242.991 142.024 242.991L154.28 243.618Z" fill="#F69D84"/>
<path d="M172.22 279.714C171.875 280.567 171.419 281.27 170.81 281.646C170.717 281.705 170.619 281.755 170.514 281.797C167.638 283.001 160.131 278.644 160.131 278.644C160.999 278.368 161.713 277.565 162.298 276.486C163.832 273.659 164.466 268.959 164.663 267.086C164.719 266.575 164.737 266.274 164.737 266.274C166.111 266.868 167.342 267.579 168.42 268.307C169.479 269.026 170.391 269.762 171.124 270.414C172.503 271.644 173.267 272.58 173.267 272.58C173.267 272.58 173.279 273.308 173.212 274.362C173.119 275.884 172.867 278.075 172.208 279.714H172.22Z" fill="#39393B"/>
<path d="M170.065 275.499L167.509 273.893C167.509 273.893 167.89 272.037 168.174 270.28C168.291 269.561 168.383 268.859 168.432 268.307C169.492 269.026 170.403 269.762 171.136 270.414C171.087 270.958 170.994 271.711 170.847 272.505C170.662 273.517 170.403 274.613 170.065 275.499Z" fill="#EB996E"/>
<path d="M175.78 280.852C175.78 280.852 149.082 272.354 145.75 270.632C142.418 268.909 141.125 266.776 141.125 266.776C141.125 266.776 140.484 268.532 140.047 270.305C139.536 272.396 140.472 274.638 142.049 275.156C149.162 277.489 172.719 285.117 174.727 284.715C177.098 284.247 177.572 282.089 175.774 280.843L175.78 280.852Z" fill="#39393B"/>
<path d="M163.358 151.872C156.583 144.797 132.25 147.707 113.189 151.37C112.647 163.096 115.308 153.361 113.7 164.894C137.497 166.55 144.186 169.101 144.186 169.101C144.186 169.101 140.626 195.403 140.798 206.401C140.971 217.399 138.101 249.221 138.101 249.221L155.259 253.612C155.259 253.612 173.058 162 163.358 151.872Z" fill="#0056D2"/>
<path d="M156.127 248.494C156.054 248.527 155.973 248.536 155.893 248.511L138.951 243.81C138.698 243.743 138.538 243.409 138.587 243.066C138.637 242.723 138.883 242.506 139.136 242.573L156.078 247.273C156.331 247.34 156.491 247.674 156.442 248.017C156.405 248.243 156.288 248.419 156.134 248.485L156.127 248.494Z" fill="#0D6CF4"/>
<path d="M142.215 244.019C142.141 244.053 142.055 244.061 141.975 244.036C141.722 243.961 141.568 243.626 141.617 243.292C141.636 243.175 143.447 231.55 143.551 212.757C143.656 193.831 147.93 165.638 147.973 165.362C148.023 165.019 148.269 164.802 148.521 164.877C148.774 164.944 148.934 165.279 148.879 165.621C148.835 165.906 144.58 193.973 144.481 212.774C144.377 231.7 142.547 243.442 142.529 243.559C142.492 243.785 142.375 243.952 142.221 244.019H142.215Z" fill="#0D6CF4"/>
<path d="M154.261 83.4768C153.633 82.331 154.089 79.9307 153.929 78.0574C153.725 75.5902 153.978 71.8016 154.532 69.7191C155.37 66.5912 158.197 57.5504 160.081 56.4967C161.96 55.4345 159.964 63.4884 159.582 65.1527C159.194 66.817 159.391 68.1384 159.391 68.1384C159.391 68.1384 165.027 50.1573 166.591 49.5384C168.149 48.9278 165.698 59.5995 165.082 62.2256C165.082 62.2256 169.88 48.9947 170.964 49.0282C173.132 49.1035 168.112 63.9986 168.112 63.9986C168.112 63.9986 172.571 53.143 173.858 54.1967C175.225 55.3007 170.434 66.909 170.434 66.909C170.434 66.909 174.098 60.4107 175.515 60.6198C176.931 60.8289 170.009 75.2807 168.747 77.3298C167.484 79.3788 164.423 85.2749 162.465 87.533C161.134 89.0719 156.244 87.0981 154.261 83.4684V83.4768Z" fill="#F69D84"/>
<path d="M169.732 71.6092C169.88 71.4252 169.904 71.1158 169.787 70.89C167.01 65.5458 162.268 64.8767 162.064 64.8516C161.843 64.8265 161.645 65.044 161.627 65.3451C161.609 65.6462 161.769 65.9138 161.99 65.9389C162.033 65.9389 166.566 66.5996 169.128 71.5172C169.258 71.7681 169.51 71.8267 169.689 71.651C169.701 71.6343 169.713 71.6259 169.726 71.6092H169.732Z" fill="#EB996E"/>
<path d="M162.151 80.8257C162.268 80.6835 162.317 80.4494 162.255 80.2319C160.574 74.1016 163.278 70.5137 163.302 70.4803C163.462 70.2712 163.469 69.9283 163.315 69.7025C163.161 69.485 162.914 69.4767 162.748 69.6774C162.619 69.8447 159.632 73.8005 161.498 80.6083C161.578 80.8926 161.806 81.0348 162.015 80.9344C162.064 80.9094 162.107 80.8759 162.144 80.8257H162.151Z" fill="#EB996E"/>
<path d="M116.564 70.8901V70.8483H116.558L116.57 70.8901L116.607 71.0072L116.693 71.2748L116.884 71.877C117.02 72.2952 117.167 72.73 117.315 73.1649C117.617 74.0431 117.931 74.9296 118.264 75.8161C118.935 77.5808 119.643 79.3538 120.413 81.0683C120.801 81.9297 121.189 82.7828 121.589 83.6275C121.99 84.4722 122.402 85.3001 122.827 86.1198C123.252 86.9394 123.69 87.7422 124.133 88.5368C124.576 89.3313 125.026 90.1174 125.494 90.8869C129.189 97.0506 133.5 102.311 138.323 106.342C138.624 106.593 138.926 106.844 139.234 107.087C139.536 107.338 139.85 107.563 140.158 107.798L140.392 107.973C140.293 107.898 140.189 107.839 140.072 107.764C139.844 107.63 139.585 107.505 139.326 107.413C139.062 107.321 138.791 107.254 138.532 107.22C138.273 107.179 138.027 107.179 137.811 107.195C137.38 107.22 137.054 107.338 136.869 107.413C136.678 107.496 136.598 107.563 136.592 107.572C136.586 107.597 136.832 107.421 137.146 107.095C137.467 106.769 137.861 106.309 138.273 105.765C138.692 105.222 139.129 104.594 139.573 103.917C140.466 102.57 141.371 101.015 142.264 99.384C144.056 96.1139 145.799 92.5093 147.493 88.8128C148.343 86.9645 149.18 85.0827 149.999 83.1926C150.412 82.2475 150.825 81.2941 151.225 80.3491L152.395 77.5975L166.677 86.4125L166.412 87.3492L166.16 88.219L165.649 89.9334C165.298 91.0625 164.94 92.1915 164.577 93.3122C163.844 95.5452 163.074 97.7615 162.268 99.9694C160.636 104.377 158.862 108.734 156.756 113.083C155.702 115.266 154.557 117.432 153.251 119.623C152.592 120.719 151.884 121.815 151.108 122.927C150.326 124.039 149.47 125.151 148.454 126.281C147.437 127.401 146.273 128.547 144.74 129.618C143.976 130.153 143.102 130.655 142.092 131.073C141.088 131.491 139.918 131.809 138.637 131.901C137.99 131.943 137.319 131.917 136.635 131.834C135.951 131.733 135.262 131.566 134.584 131.324C133.913 131.073 133.248 130.763 132.632 130.387C132.318 130.203 132.028 129.994 131.733 129.793L131.406 129.551C130.969 129.224 130.532 128.898 130.095 128.555C129.657 128.221 129.232 127.878 128.801 127.518C127.945 126.816 127.108 126.08 126.276 125.327C125.457 124.558 124.638 123.78 123.844 122.96C123.043 122.149 122.267 121.313 121.497 120.451C120.74 119.581 119.982 118.703 119.255 117.792C116.324 114.17 113.682 110.181 111.317 105.958C110.134 103.842 109.026 101.667 107.997 99.4342C106.969 97.2012 105.989 94.9263 105.103 92.5846C104.659 91.4137 104.234 90.2345 103.822 89.0386C103.409 87.8426 103.021 86.6383 102.651 85.4089C102.282 84.1795 101.925 82.9333 101.598 81.6537C101.432 81.0098 101.272 80.3658 101.118 79.6883C101.038 79.3538 100.958 79.0109 100.884 78.6597L100.619 77.3968L116.552 70.8901H116.564Z" fill="#4DC3B9"/>
<path d="M140.595 117.022C140.38 117.123 140.139 116.989 140.035 116.704C138.458 112.406 137.731 107.045 137.701 106.819C137.657 106.476 137.824 106.15 138.07 106.091C138.323 106.033 138.563 106.259 138.606 106.593C138.612 106.643 139.345 112.004 140.86 116.144C140.971 116.454 140.878 116.83 140.651 116.989C140.632 117.006 140.608 117.014 140.589 117.022H140.595Z" fill="#39393B"/>
<path d="M137.029 113.493C136.949 113.526 136.863 113.535 136.771 113.501C136.524 113.418 136.37 113.075 136.438 112.74C136.475 112.556 137.282 108.216 137.768 106.844C137.879 106.535 138.156 106.401 138.384 106.551C138.612 106.702 138.711 107.078 138.6 107.388C138.15 108.642 137.344 112.999 137.331 113.041C137.288 113.259 137.171 113.418 137.029 113.485V113.493Z" fill="#39393B"/>
<path d="M163.339 96.7328C163.21 96.7914 163.062 96.7747 162.939 96.6576C158.363 92.5512 148.965 87.0146 148.866 86.9645C148.632 86.8306 148.521 86.4543 148.626 86.1365C148.725 85.8187 149.002 85.6681 149.236 85.8103C149.328 85.8689 158.806 91.4388 163.45 95.6121C163.666 95.8045 163.721 96.1892 163.579 96.4819C163.518 96.6074 163.432 96.691 163.339 96.7328Z" fill="#39393B"/>
<path d="M119.303 69.2814C120.516 74.2827 118.503 86.443 120.455 107.828C120.597 109.4 120.763 111.023 120.954 112.704C121.132 114.276 121.329 115.907 121.551 117.588C121.761 119.152 121.988 120.766 122.235 122.414C122.456 123.861 122.69 125.349 122.949 126.863C123.214 128.427 123.491 130.016 123.793 131.647C123.879 132.107 123.971 132.609 124.07 133.127C124.095 133.261 124.119 133.386 124.144 133.529C124.169 133.646 124.187 133.763 124.212 133.888C124.23 133.98 124.242 134.072 124.261 134.156C124.273 134.223 124.286 134.29 124.298 134.357C124.323 134.474 124.341 134.599 124.366 134.716C124.366 134.741 124.372 134.766 124.378 134.783C124.403 134.925 124.433 135.076 124.464 135.226C124.464 135.251 124.47 135.268 124.477 135.293C124.501 135.419 124.526 135.553 124.55 135.678C124.667 136.28 124.791 136.916 124.914 137.568C124.945 137.727 124.975 137.894 125.012 138.062C125.055 138.279 125.099 138.505 125.142 138.731C125.228 139.174 125.32 139.617 125.406 140.077C125.45 140.303 125.499 140.537 125.542 140.763C125.641 141.256 125.739 141.75 125.844 142.26C125.862 142.352 125.881 142.444 125.899 142.536C126.139 143.74 126.398 144.978 126.657 146.249C126.774 146.826 126.897 147.403 127.014 147.98C127.162 148.683 127.31 149.394 127.457 150.105C127.679 151.15 127.901 152.196 128.129 153.241L128.418 154.571C128.504 154.972 128.597 155.374 128.683 155.775C128.788 156.252 128.892 156.737 128.997 157.214C129.065 157.531 129.139 157.849 129.213 158.167C129.256 158.368 129.299 158.56 129.342 158.761C129.428 159.154 129.52 159.547 129.607 159.94C129.693 160.333 129.785 160.718 129.872 161.103C129.933 161.379 129.995 161.646 130.056 161.914C130.112 162.156 130.167 162.39 130.223 162.625C130.241 162.692 130.253 162.75 130.266 162.817C130.296 162.951 130.327 163.093 130.364 163.227C130.432 163.503 130.494 163.787 130.561 164.055C130.635 164.373 130.715 164.699 130.789 165.017C131.399 167.559 131.996 169.926 132.557 171.975C128.393 178.473 121.323 184.152 113.009 187.556L108.396 183.483L104.535 190.132C96.4113 191.746 87.7091 191.11 79.6905 187.146C77.0422 179.795 72.6757 152.823 71.4378 144.761C71.1915 143.155 70.9697 141.541 70.7665 139.927C69.7811 132.157 69.2576 124.27 68.9066 115.982C68.8881 115.531 68.8696 115.079 68.8511 114.627C68.8511 114.577 68.8512 114.519 68.845 114.469C68.4693 107.485 61.7502 86.9113 62.4276 79.5098C63.7702 64.8404 70.6557 68.7043 76.8636 66.4379C78.9021 65.6935 80.6143 64.7568 82.0184 63.795C82.6035 63.3936 83.1332 62.9922 83.6135 62.5991C83.8168 62.4402 84.0016 62.2813 84.1802 62.114C86.1078 60.4162 87.161 58.9861 87.161 58.9861L101.246 56.9873C102.638 59.2119 104.282 60.5082 106.013 61.3446C106.204 61.4366 106.395 61.5202 106.592 61.6038C106.881 61.7293 107.171 61.838 107.46 61.9384C112.436 63.6947 117.702 62.7329 119.297 69.2898L119.303 69.2814Z" fill="#4DC3B9"/>
<path d="M83.9584 172.251C83.8044 172.251 83.6566 172.117 83.595 171.908C75.8905 143.816 71.8997 95.3084 71.8627 94.8233C71.8381 94.5389 71.9921 94.2797 72.2014 94.2462C72.4108 94.2128 72.6018 94.4219 72.6264 94.7062C72.6634 95.1913 76.6419 143.573 84.3156 171.54C84.3895 171.808 84.291 172.109 84.0877 172.218C84.0446 172.243 83.9954 172.251 83.9523 172.251H83.9584Z" fill="#2BD7CC"/>
<path d="M97.5814 68.7798C97.7292 69.3903 97.1934 70.1764 96.3805 70.5361C95.5675 70.8957 94.7915 70.7033 94.6437 70.0928C94.4959 69.4823 95.0317 68.6961 95.8446 68.3365C96.6576 67.9769 97.4336 68.1692 97.5814 68.7798Z" fill="#2BD7CC"/>
<path d="M103.869 66.6052C104.017 67.2157 103.481 68.0018 102.669 68.3615C101.856 68.7211 101.08 68.5287 100.932 67.9182C100.784 67.3077 101.32 66.5215 102.133 66.1619C102.946 65.8023 103.722 65.9946 103.869 66.6052Z" fill="#2BD7CC"/>
<path d="M105.649 71.1716C105.477 71.1716 105.323 71.0127 105.274 70.7785C105.218 70.4942 105.348 70.2098 105.551 70.1429C110.983 68.2528 111.322 63.8119 111.334 63.6279C111.352 63.3435 111.537 63.1261 111.746 63.1512C111.956 63.1763 112.116 63.4272 112.097 63.7115C112.085 63.929 111.734 69.0724 105.736 71.1632C105.705 71.1716 105.674 71.18 105.637 71.18L105.649 71.1716Z" fill="#2BD7CC"/>
<path d="M114.001 117.421C106.758 117.421 100.482 114.895 96.282 112.604C91.0471 109.752 87.7953 106.624 87.7645 106.59C87.5921 106.423 87.549 106.097 87.6721 105.863C87.7953 105.629 88.0355 105.57 88.2079 105.737C88.2387 105.771 91.4289 108.84 96.5838 111.642C101.332 114.226 108.778 117.12 117.252 116.191C117.468 116.166 117.653 116.384 117.665 116.668C117.683 116.952 117.523 117.212 117.314 117.228C116.187 117.354 115.078 117.404 113.994 117.404L114.001 117.421Z" fill="#2BD7CC"/>
<path d="M92.0756 135.929C92.0756 135.929 109.382 129.941 120.165 129.765L123.46 149.143C123.46 149.143 106.37 153.049 95.5552 155.608L92.0756 135.929Z" fill="#2BD7CC"/>
<path d="M82.3695 75.7128C79.0376 75.7128 76.4879 74.4499 74.7512 73.1453C71.9859 71.0711 70.6372 68.5203 70.5818 68.4116C70.4586 68.1774 70.5017 67.8513 70.6741 67.684C70.8466 67.5167 71.0868 67.5753 71.2099 67.8094C71.2099 67.8094 72.5279 70.3017 75.1515 72.2504C77.5719 74.0485 81.6428 75.7713 87.3088 73.7558C87.512 73.6805 87.7276 73.8478 87.7768 74.1321C87.8323 74.4081 87.7091 74.7008 87.4997 74.7677C85.6213 75.4368 83.903 75.7044 82.3633 75.7044L82.3695 75.7128Z" fill="#2BD7CC"/>
<path d="M126.675 146.241C126.416 144.97 126.158 143.732 125.918 142.528C126.164 143.732 126.416 144.97 126.675 146.241Z" fill="#26120C"/>
<path d="M125.425 140.069C125.333 139.609 125.246 139.166 125.16 138.722C125.246 139.166 125.339 139.609 125.425 140.069Z" fill="#26120C"/>
<path d="M121.613 115.012C121.613 115.012 121.557 115.037 121.526 115.037C121.274 115.079 121.04 114.836 121.009 114.494C120.165 105.746 119.235 95.3499 119.149 92.4144C119.137 92.0715 119.334 91.7788 119.593 91.762C119.845 91.7453 120.061 92.0129 120.073 92.3642C120.159 95.2579 121.089 105.603 121.927 114.335C121.958 114.636 121.822 114.92 121.613 115.012Z" fill="#2BD7CC"/>
<path d="M104.775 17.3451C104.775 17.3451 109.24 22.1122 106.308 29.38C106.308 29.38 104.701 20.8912 104.775 17.3451Z" fill="#26120C"/>
<path d="M86.8961 50.1378C86.8961 50.1378 84.0015 53.9599 83.4041 51.1414C82.8067 48.323 83.8167 46.9179 83.8167 46.9179C83.8167 46.9179 80.6881 50.9992 80.6388 47.9215C80.5896 44.8522 82.2216 42.109 82.2216 42.109C82.2216 42.109 79.3209 39.2237 80.2693 34.6071C81.2178 29.9905 81.3348 26.6117 80.3863 22.8315C79.4379 19.0513 79.869 15.1456 81.2424 13.4562C83.2501 10.9806 86.1693 11.3654 86.1693 11.3654C86.1693 11.3654 87.7213 4.45724 93.5352 4.64123C99.349 4.82523 102.736 -1.33856 105.668 0.267205C108.599 1.87297 111.962 15.0285 104.073 18.9258C104.073 18.9258 88.4419 33.1602 86.8961 50.1462V50.1378Z" fill="#26120C"/>
<path d="M101.652 53.8928L102.034 58.8857C101.64 59.421 101.24 59.8893 100.827 60.3075C94.847 66.4127 87.4688 60.9515 87.4688 60.9515L86.1386 43.6561L99.7985 52.6801L101.646 53.9012L101.652 53.8928Z" fill="#EB996E"/>
<path d="M101.622 53.4581L102.04 58.8859C101.646 59.4212 101.246 59.8895 100.833 60.3077C95.1796 58.1583 90.6284 50.9825 90.6284 50.9825L99.8048 52.6803L101.622 53.4665V53.4581Z" fill="#26120C"/>
<path d="M104.547 31.1279C104.547 31.1279 106.376 27.4815 107.811 30.6679C109.246 33.8544 108.864 40.7541 105.6 40.0934L104.541 31.1279H104.547Z" fill="#FF7C66"/>
<path d="M107.676 42.5521C107.676 42.5521 108.482 52.8641 100.575 53.9597C92.7222 55.0553 86.7237 47.4363 86.4157 47.0934L86.4034 47.0851L86.1509 44.9273L84.8391 33.7372L84.137 27.7574C84.137 27.7574 82.3017 17.069 89.7291 14.0164C95.1549 11.7834 100.445 12.3019 103.364 15.848C103.457 15.9651 103.549 16.0822 103.635 16.1993C104.565 17.4621 105.218 19.0679 105.514 21.0333L106.592 31.8053L106.856 34.4481L107.669 42.5521H107.676Z" fill="#EB996E"/>
<path d="M84.8453 33.7456C84.8453 33.7456 86.6252 34.4983 87.4073 37.4338C88.5836 37.2666 89.4027 35.7779 89.1872 34.1972C89.064 33.2772 88.9039 32.1817 88.7191 30.9439C88.1525 27.2389 87.2841 26.068 88.8669 23.743C90.4497 21.418 88.9593 20.0381 90.4004 18.3989C91.9832 16.6007 95.8878 19.7872 98.764 18.9759C102.176 18.0141 101.886 14.8695 104.861 18.4741C104.861 18.4741 104.073 13.0463 100.193 11.5827C96.3128 10.1108 85.4119 11.4071 83.7429 18.4574C82.0739 25.5077 84.8453 33.7456 84.8453 33.7456Z" fill="#26120C"/>
<path d="M91.0964 25.9594C91.6198 27.1805 92.7654 27.607 93.6769 26.9128C94.2065 26.5114 94.8347 26.1016 95.5122 25.8005C96.4668 25.374 96.9718 23.9522 96.6022 22.681C96.6022 22.681 92.6607 22.7479 91.0964 25.9678V25.9594Z" fill="#26120C"/>
<path d="M105.711 23.7348C105.403 24.9977 104.405 25.6918 103.469 25.2987C102.921 25.0646 102.281 24.8555 101.622 24.7551C100.679 24.6129 100.014 23.4337 100.168 22.1625C100.168 22.1625 103.814 21.184 105.711 23.7348Z" fill="#26120C"/>
<path d="M96.399 34.6068C96.4544 35.3595 95.3643 36.129 93.9602 36.3297C92.556 36.5304 91.3673 36.0788 91.3119 35.3344C91.2565 34.5817 92.3466 33.8123 93.7508 33.6116C95.1549 33.4109 96.3436 33.8625 96.399 34.6068Z" fill="#FF7C66"/>
<path d="M106.863 34.4565C106.666 34.515 106.462 34.5569 106.253 34.582C104.849 34.7827 103.66 34.3311 103.605 33.5784C103.549 32.8257 104.639 32.0562 106.043 31.8555C106.234 31.8304 106.419 31.8137 106.598 31.8137L106.863 34.4565Z" fill="#FF7C66"/>
<path d="M96.5407 30.4086C96.6207 31.4373 96.3374 32.3238 95.9125 32.3824C95.4875 32.4409 95.0811 31.6548 95.001 30.6261C94.9209 29.5974 95.2042 28.7109 95.6292 28.6523C96.0541 28.5938 96.4606 29.3799 96.5407 30.4086Z" fill="#26120C"/>
<path d="M104.177 29.3214C104.258 30.3501 103.974 31.2366 103.549 31.2952C103.124 31.3537 102.718 30.5676 102.638 29.5389C102.558 28.5102 102.841 27.6237 103.266 27.5651C103.691 27.5066 104.097 28.2927 104.177 29.3214Z" fill="#26120C"/>
<path d="M101.689 39.9846C98.9118 40.3777 96.3929 37.4673 96.3559 37.4255C96.2266 37.2749 96.2081 36.9989 96.3251 36.8233C96.436 36.6477 96.6392 36.6226 96.7686 36.7815C96.9348 36.9738 100.839 41.4733 104.017 37.6596C104.147 37.5007 104.344 37.5175 104.461 37.6931C104.578 37.8687 104.565 38.1363 104.436 38.2952C103.549 39.3658 102.607 39.8508 101.689 39.9846Z" fill="#26120C"/>
<path d="M88.5712 42.5606C88.5466 42.6777 87.7891 45.9729 86.4218 47.0935L86.4157 47.0852L86.1632 44.9274C86.1632 44.9274 87.3887 44.4591 88.5774 42.5522L88.5712 42.5606Z" fill="#26120C"/>
<path d="M86.6251 35.5941C86.6251 35.5941 83.1639 30.4841 81.2732 35.1508C79.7151 38.998 83.903 47.8548 87.2841 44.1331L86.6251 35.5857V35.5941Z" fill="#EB996E"/>
<path d="M86.7422 42.5355C86.582 42.5606 86.4342 42.4184 86.4034 42.201C85.7444 38.0528 83.0469 36.9655 82.9299 36.9153C82.7636 36.8484 82.6651 36.6143 82.7144 36.3884C82.7636 36.1626 82.9361 36.0288 83.1024 36.0957C83.2317 36.1459 86.2741 37.3586 87.0193 42.017C87.0562 42.2511 86.9454 42.477 86.7791 42.5271C86.7668 42.5271 86.7545 42.5271 86.7422 42.5271V42.5355Z" fill="#26120C"/>
<path d="M83.6259 40.3692C83.5335 40.386 83.4411 40.3442 83.3734 40.2438C83.2502 40.0765 83.2502 39.8089 83.3734 39.6416C83.4904 39.4827 84.5189 38.1279 85.4796 38.3202C85.6521 38.3537 85.7691 38.5711 85.7444 38.8053C85.7198 39.0395 85.5597 39.1984 85.3873 39.1649C84.833 39.0562 84.0693 39.9093 83.8168 40.2438C83.7614 40.3191 83.6936 40.3525 83.6259 40.3692Z" fill="#26120C"/>
<path d="M100.045 35.1591C99.8725 35.1841 99.7185 35.0169 99.7 34.7827C99.6816 34.5485 99.8047 34.3394 99.9772 34.3144C101.129 34.1555 101.603 33.2522 101.751 32.8675C100.236 29.5556 98.727 26.2186 98.7085 26.1768C98.6161 25.9761 98.6654 25.7168 98.8132 25.5914C98.961 25.4659 99.1519 25.5328 99.2443 25.7336C99.2628 25.767 100.827 29.2378 102.373 32.6082C102.422 32.717 102.435 32.8508 102.404 32.9762C102.385 33.0515 101.893 34.8998 100.045 35.1591Z" fill="#26120C"/>
<g opacity="0.5">
<path d="M100.199 31.7802C100.261 33.2187 98.5485 34.5234 96.3622 34.7074C94.182 34.8914 92.359 33.871 92.2974 32.4325C92.2358 30.994 93.948 29.6894 96.1343 29.5054C98.3145 29.3297 100.137 30.3417 100.199 31.7802Z" fill="white"/>
</g>
<g opacity="0.5">
<path d="M110.305 31.203C110.367 32.6415 108.655 33.9462 106.469 34.1302C104.288 34.3058 102.465 33.2938 102.404 31.8554C102.342 30.4169 104.054 29.1122 106.241 28.9282C108.421 28.7526 110.244 29.7645 110.305 31.203Z" fill="white"/>
</g>
<path d="M102.422 31.8389C102.367 31.8389 102.311 31.8138 102.268 31.7636C101.437 30.7767 100.341 31.7469 100.298 31.7887C100.193 31.8807 100.045 31.8472 99.9773 31.7051C99.9095 31.5629 99.9342 31.3705 100.039 31.2702C100.532 30.8186 101.696 30.2498 102.57 31.2953C102.669 31.4124 102.675 31.6047 102.595 31.7385C102.552 31.8138 102.484 31.8472 102.422 31.8472V31.8389Z" fill="#26120C"/>
<path d="M83.9399 33.2859C83.8722 33.2859 83.8045 33.2441 83.7552 33.1605C83.6751 33.0267 83.6936 32.8259 83.7983 32.7172C87.2841 29.0457 92.1926 31.6969 92.3958 31.8056C92.5129 31.8725 92.5683 32.0565 92.5252 32.2154C92.4759 32.3743 92.3404 32.4496 92.2234 32.391C92.1741 32.366 87.358 29.765 84.0816 33.219C84.0385 33.2608 83.9892 33.2859 83.9399 33.2859Z" fill="#26120C"/>
<path d="M74.8448 180.425C74.8448 180.425 75.9349 223.588 114.297 206.401C134.787 197.218 143.878 190.168 143.878 190.168C143.878 190.168 150.338 214.522 153.812 224.458C157.285 234.393 166.936 258.714 166.936 258.714L183.49 253.177C183.49 253.177 164.214 162.067 152.309 158.212C140.404 154.356 126.122 160.486 100.933 168.248C100.933 168.248 78.9342 172.822 74.851 180.425H74.8448Z" fill="#0056D2"/>
<path d="M167.398 250.535C167.201 250.627 166.973 250.518 166.862 250.267C161.516 238.525 156.207 220.736 151.946 206.443C150.153 200.43 148.601 195.228 147.308 191.347C145.559 186.087 144.845 185.041 144.574 184.882C143.385 184.188 139.48 186.588 134.541 189.616C127.385 194.007 116.576 200.647 104 204.193C97.5519 206.008 91.9598 204.82 87.3962 200.656C79.2668 193.246 77.259 179.204 77.179 178.61C77.1297 178.267 77.296 177.941 77.5485 177.882C77.801 177.815 78.0412 178.041 78.0905 178.384C78.1089 178.526 80.1167 192.518 87.9197 199.627C92.2739 203.591 97.6197 204.712 103.815 202.972C116.287 199.46 127.046 192.853 134.165 188.479C139.911 184.949 143.379 182.825 144.943 183.737C146.366 184.564 148.62 191.933 152.808 205.975C157.057 220.217 162.348 237.956 167.656 249.606C167.792 249.899 167.724 250.292 167.509 250.468C167.478 250.493 167.447 250.518 167.41 250.526L167.398 250.535Z" fill="#0056D2"/>
<path d="M181.489 246.194C181.489 246.194 181.47 246.194 181.464 246.202L164.731 252.207C164.485 252.299 164.232 252.099 164.164 251.764C164.097 251.43 164.244 251.078 164.491 250.995L181.224 244.99C181.47 244.898 181.723 245.099 181.791 245.433C181.852 245.759 181.717 246.085 181.489 246.186V246.194Z" fill="#0056D2"/>
<path d="M162.618 154.638L111.874 161.14C111.776 161.152 111.704 161.27 111.713 161.404L112.308 169.963C112.317 170.097 112.404 170.195 112.502 170.182L163.246 163.68C163.344 163.668 163.416 163.549 163.407 163.416L162.813 154.857C162.803 154.723 162.716 154.625 162.618 154.638Z" fill="#26120C"/>
<path d="M168.753 162.995C170.674 162.753 172.239 160.779 172.559 158.195L178.742 108.366C179.118 105.322 177.27 102.62 175.004 102.905L152.124 105.832C150.578 106.032 149.322 107.596 149.045 109.67L141.439 166.491L168.753 162.995Z" fill="#26120C"/>
<path d="M153.873 152.917L153.455 155.184L155.007 155.025L154.736 157.701L152.937 157.885L152.469 160.352L150.412 160.57L150.88 158.103L149.612 158.236L149.144 160.704L147.087 160.921L147.555 158.454L146.003 158.613L146.274 155.937L148.072 155.753L148.491 153.486L146.939 153.645L147.21 150.969L149.008 150.785L149.476 148.318L151.533 148.1L151.065 150.567L152.334 150.433L152.802 147.966L154.859 147.749L154.391 150.216L155.943 150.057L155.672 152.733L153.873 152.917ZM151.816 153.135L150.548 153.269L150.129 155.535L151.398 155.401L151.816 153.135Z" fill="#4DC3B9"/>
<path d="M175.922 116.57C175.386 119.824 173.212 122.667 171.062 122.926C168.913 123.186 167.607 120.752 168.143 117.499C168.679 114.245 170.853 111.402 173.002 111.143C175.152 110.883 176.457 113.317 175.922 116.57Z" fill="#F69D84"/>
<path d="M171.573 115.985C171.469 116.638 171.229 117.181 171.044 117.206C170.859 117.231 170.791 116.721 170.902 116.069C171.007 115.417 171.247 114.873 171.432 114.848C171.617 114.823 171.684 115.333 171.573 115.985Z" fill="#26120C"/>
<path d="M173.6 115.743C173.495 116.395 173.255 116.939 173.07 116.964C172.885 116.989 172.817 116.479 172.928 115.826C173.033 115.174 173.273 114.63 173.458 114.605C173.643 114.58 173.71 115.09 173.6 115.743Z" fill="#26120C"/>
<path d="M171.592 119.899C169.917 120.1 169.954 117.607 169.954 117.582C169.954 117.449 170.04 117.306 170.132 117.265C170.231 117.223 170.305 117.298 170.299 117.44C170.299 117.532 170.28 119.556 171.672 119.389C173.07 119.222 173.729 117.114 173.754 117.03C173.797 116.888 173.901 116.796 173.988 116.813C174.074 116.83 174.111 116.964 174.068 117.106C174.062 117.131 173.261 119.707 171.586 119.907L171.592 119.899Z" fill="#26120C"/>
<path d="M149.039 109.67L141.494 166.023L138.877 166.357L146.421 110.005C146.699 107.931 147.955 106.359 149.501 106.166L152.118 105.832C150.572 106.032 149.316 107.596 149.039 109.67Z" fill="#26120C"/>
<path d="M141.735 165.655C141.735 165.655 141.691 165.655 141.667 165.646C141.457 165.596 141.316 165.32 141.359 165.036L148.817 108.809C148.854 108.525 149.057 108.332 149.267 108.383C149.476 108.433 149.618 108.709 149.575 108.993L142.116 165.22C142.086 165.471 141.919 165.655 141.735 165.655Z" fill="#564C54"/>
<path d="M157.365 135.605C157.057 138.725 158.628 141.016 160.876 140.732C163.124 140.448 165.193 137.679 165.501 134.56C165.809 131.44 164.239 129.149 161.991 129.433C159.743 129.717 157.673 132.486 157.365 135.597V135.605Z" fill="#4DC3B9"/>
<path d="M125.297 149.146C125.297 149.146 137.208 145.533 141.371 148.226L139.918 158.488C139.918 158.488 133.205 157.852 131.64 158.906C130.076 159.96 129.99 164.049 123.967 164.284L125.303 149.146H125.297Z" fill="#4DC3B9"/>
<path d="M123.991 147.113L122.593 146.804L119.785 146.185C117.913 145.759 116.047 145.307 114.181 144.83C110.454 143.902 106.753 142.882 103.132 141.761C101.321 141.192 99.529 140.59 97.7737 139.963C96.0185 139.327 94.3002 138.65 92.662 137.905C91.0361 137.169 89.4657 136.383 88.1723 135.555C87.5318 135.145 86.9652 134.727 86.5772 134.384C86.5772 134.384 86.5711 134.384 86.5649 134.368L86.5095 134.251C86.2939 133.791 86.0968 133.314 85.8998 132.837C85.5056 131.884 85.1238 130.922 84.7666 129.935C84.0398 127.97 83.3993 125.937 82.8204 123.863C81.6564 119.707 80.7942 115.341 80.1722 110.858C79.8643 108.617 79.624 106.35 79.4454 104.059C79.2607 101.767 79.1437 99.4591 79.0883 97.1508C79.0267 94.8425 79.0205 92.5259 79.0883 90.2427C79.119 89.0969 79.1683 87.9678 79.2361 86.8555C79.2668 86.3035 79.3038 85.7516 79.3408 85.2247L79.4023 84.4636L79.4516 83.9534L60.1872 79.8889L60.1379 80.3572L60.101 80.7001L60.0456 81.3441L59.947 82.5484C59.8854 83.3345 59.8362 84.104 59.7992 84.865C59.7192 86.3955 59.6699 87.9009 59.6453 89.398C59.5837 92.392 59.6145 95.3694 59.7253 98.3384C59.9655 104.276 60.5383 110.198 61.4867 116.077C61.7269 117.541 61.9856 119.013 62.2689 120.468C62.5583 121.923 62.8724 123.378 63.205 124.825C63.8824 127.719 64.6584 130.579 65.5391 133.398C66.3644 135.982 67.2697 138.533 68.2797 141.025C68.366 141.242 68.4522 141.46 68.5446 141.677C69.0927 143.024 69.6839 144.353 70.2936 145.667C70.6016 146.319 70.9095 146.971 71.2298 147.615L71.4699 148.1L71.587 148.343L71.8272 148.811C72.2583 149.639 72.6955 150.333 73.1143 150.927C73.5331 151.521 73.9396 152.039 74.3276 152.483C74.7217 152.943 75.0913 153.327 75.4608 153.687C76.1875 154.39 76.865 154.967 77.5178 155.46C78.4354 156.154 79.2915 156.723 80.1229 157.216C80.4678 157.425 80.8127 157.618 81.1453 157.81C82.2908 158.446 83.3932 158.973 84.4709 159.449C85.5487 159.934 86.608 160.353 87.6612 160.737C89.7551 161.507 91.806 162.151 93.8383 162.719C95.8707 163.296 97.8846 163.79 99.8985 164.242C103.914 165.145 107.899 165.847 111.871 166.441C113.86 166.725 115.85 166.985 117.839 167.219C118.836 167.336 119.828 167.445 120.826 167.545L122.328 167.687L123.874 167.813L125.352 147.389L123.991 147.105V147.113ZM86.1954 134C86.1954 134 86.1584 133.941 86.1892 133.966C86.2077 133.983 86.2631 134.033 86.3494 134.15C86.3678 134.175 86.3863 134.209 86.4109 134.242C86.3063 134.142 86.2323 134.058 86.1892 134.008L86.1954 134Z" fill="#4DC3B9"/>
<path d="M80.1168 157.233C79.2853 156.74 78.4231 156.171 77.5116 155.477C76.865 154.975 76.1813 154.406 75.4546 153.704C75.0851 153.344 74.7156 152.959 74.3214 152.499C73.9334 152.056 73.5269 151.538 73.1082 150.944C72.6955 150.358 72.2521 149.656 71.821 148.828L71.5808 148.36L71.4638 148.117L71.2236 147.632C70.8972 146.988 70.5954 146.336 70.2875 145.683C69.6778 144.37 69.0927 143.04 68.5384 141.694C68.446 141.477 68.3598 141.259 68.2736 141.042C68.3228 141.008 68.3721 140.975 68.4275 140.941C68.4275 140.941 80.8558 141.167 80.1168 157.233Z" fill="#2BD7CC"/>
<path d="M106.051 166.19C105.989 166.215 105.928 166.224 105.86 166.215C105.706 166.198 90.0877 164.133 81.3423 158.563C72.5292 152.951 68.3968 142.237 68.2305 141.786C68.1135 141.476 68.2058 141.1 68.4275 140.941C68.6554 140.782 68.9326 140.908 69.0496 141.209C69.0927 141.318 73.219 151.998 81.7365 157.425C90.334 162.903 105.792 164.944 105.946 164.961C106.199 164.994 106.39 165.304 106.365 165.646C106.347 165.906 106.217 166.106 106.051 166.182V166.19Z" fill="#2BD7CC"/>
<path d="M80.9174 141.753C80.7634 141.819 80.5848 141.778 80.4555 141.61C80.2708 141.376 80.2584 140.975 80.437 140.724C82.5987 137.596 85.7027 134.46 85.8382 134.326C86.0414 134.117 86.3309 134.175 86.4849 134.46C86.6388 134.736 86.5957 135.129 86.3863 135.338C86.3555 135.371 83.2146 138.541 81.1083 141.585C81.0529 141.661 80.9852 141.719 80.9174 141.753Z" fill="#2BD7CC"/>
<path d="M86.0352 135.655C86.0352 135.655 86.0044 135.672 85.9859 135.672C84.1445 136.199 81.7241 137.27 81.6995 137.278C81.4593 137.387 81.1945 137.203 81.1144 136.877C81.0344 136.55 81.1698 136.191 81.41 136.09C81.5086 136.049 83.9043 134.995 85.795 134.451C86.0475 134.376 86.2877 134.593 86.3431 134.936C86.3924 135.254 86.2569 135.563 86.0352 135.664V135.655Z" fill="#2BD7CC"/>
<path d="M81.8781 120.334C81.8781 120.334 81.872 120.334 81.8658 120.334C81.6195 120.435 81.3608 120.242 81.2931 119.908C81.1145 119.096 76.982 100.011 76.9758 90.4018C76.9758 90.0589 77.1852 89.7745 77.4377 89.7745C77.6902 89.7745 77.8996 90.0589 77.8996 90.4018C77.8996 99.8273 82.1368 119.356 82.1799 119.556C82.2538 119.883 82.1183 120.225 81.8843 120.334H81.8781Z" fill="#2BD7CC"/>
<path d="M77.8689 96.3398C77.7457 96.3984 77.5979 96.3816 77.4809 96.2729C77.2653 96.0889 77.1976 95.7042 77.3331 95.4115L78.8481 92.1331C78.9836 91.8403 79.2669 91.7483 79.4825 91.9323C79.698 92.1163 79.7658 92.501 79.6303 92.7938L78.1152 96.0722C78.0537 96.1976 77.9674 96.2896 77.8689 96.3315V96.3398Z" fill="#2BD7CC"/>
<path d="M116.656 166.968C116.595 166.993 116.527 167.01 116.459 166.993C116.207 166.96 116.022 166.642 116.047 166.299L117.636 146.495C117.666 146.152 117.894 145.901 118.147 145.943C118.399 145.976 118.584 146.294 118.553 146.637L116.964 166.441C116.946 166.692 116.816 166.893 116.65 166.968H116.656Z" fill="#2BD7CC"/>
<path d="M104.536 135.555C104.376 135.555 104.222 135.413 104.173 135.196C99.7014 117.072 93.2409 71.927 93.1793 71.467C93.1362 71.1827 93.2779 70.9067 93.4873 70.8565C93.6967 70.7979 93.8999 70.9903 93.9369 71.2747C93.9985 71.7263 100.447 116.805 104.906 134.87C104.973 135.146 104.862 135.438 104.665 135.53C104.622 135.547 104.585 135.555 104.542 135.555H104.536Z" fill="#39393B"/>
<path d="M114.094 133.832C113.903 133.832 113.737 133.64 113.712 133.381C110.99 106.401 99.6275 70.0871 99.5105 69.7191C99.4243 69.4515 99.5166 69.142 99.7137 69.0333C99.9108 68.9162 100.139 69.0417 100.219 69.3093C100.336 69.6773 111.742 106.116 114.476 133.239C114.507 133.523 114.359 133.791 114.144 133.832C114.125 133.832 114.107 133.832 114.088 133.832H114.094Z" fill="#39393B"/>
<path d="M86.6326 204.21C85.8135 204.21 84.9328 203.825 84.0336 203.064C80.7572 200.279 76.791 191.832 75.319 179.254C75.2883 178.969 75.4299 178.702 75.6393 178.652C75.8487 178.601 76.0458 178.802 76.0827 179.086C77.5177 191.347 81.3176 199.518 84.4462 202.178C85.5117 203.081 86.5217 203.374 87.3655 203.022C88.0429 202.738 88.5726 202.111 88.9667 201.09C91.695 194.107 86.9528 173.073 86.9036 172.864C86.842 172.588 86.9528 172.295 87.1561 172.212C87.3593 172.128 87.5749 172.279 87.6364 172.555C87.8397 173.433 92.5203 194.224 89.6442 201.584C89.1515 202.847 88.4555 203.666 87.581 204.026C87.2731 204.151 86.9528 204.218 86.6264 204.218L86.6326 204.21Z" fill="white"/>
<path d="M65.3235 271.058C65.2249 271.644 65.1079 272.221 64.9724 272.781C64.0671 276.553 62.4043 279.564 60.144 280.81C51.5834 285.527 43.534 283.896 27.1519 283.378C10.7759 282.859 -1.38753 276.971 0.127511 258.655C0.250685 257.209 0.45392 255.862 0.731061 254.599C1.09442 252.943 1.58712 251.446 2.17219 250.091C2.85581 248.494 3.66875 247.089 4.55561 245.868C9.14999 239.529 16.0724 237.454 22.2742 240.34C28.3959 243.192 39.2168 244.572 50.481 244.873C62.5829 245.207 67.1095 260.562 65.3235 271.042V271.058Z" fill="#EBB376"/>
<path d="M65.3235 271.058C65.225 271.644 65.108 272.221 64.9725 272.781C62.0717 276.218 56.6028 278.393 48.6766 279.246C46.1884 279.522 43.4478 279.647 40.504 279.647C33.6863 279.647 25.7416 278.928 17.064 277.515C9.72282 276.319 4.75891 272.806 2.30159 267.077C0.472455 262.812 0.380073 258.154 0.731119 254.608C1.09448 252.952 1.58718 251.455 2.17225 250.1C1.53791 252.751 0.139885 260.278 2.86819 266.642C5.21465 272.12 10.0184 275.483 17.144 276.645C42.8874 280.843 60.4089 278.803 65.3235 271.058Z" fill="#D57635"/>
<path d="M16.3803 248.402C11.3486 248.954 7.62875 255.185 8.45402 261.951C8.47249 262.084 8.48481 262.21 8.50944 262.344C9.59337 269.712 16.8914 269.494 37.1535 269.754C53.0245 269.954 61.1848 262.243 56.9599 252.717C53.6034 245.14 27.0964 247.231 16.3803 248.402Z" fill="#D57635"/>
<path d="M54.6567 253.98C47.2724 266.467 17.1564 267.169 13.2025 257.819C11.2749 253.269 11.8107 247.432 12.8576 242.648C12.9685 242.146 13.0855 241.653 13.2025 241.176C14.2865 236.869 15.6475 233.724 15.6475 233.724C15.6475 233.724 15.5244 238.173 26.6347 236.576C27.9033 236.392 29.3506 236.317 30.8965 236.342C31.1859 236.342 31.4754 236.35 31.771 236.367C43.7497 236.852 61.031 243.2 54.6506 253.989L54.6567 253.98Z" fill="#E8E8E8"/>
<path d="M30.453 246.537C28.7162 249.171 25.6923 250.166 21.7199 249.405C21.6276 249.389 21.5413 249.372 21.4551 249.355C16.4481 248.31 14.0093 245.073 12.8576 242.648C12.9684 242.146 13.0854 241.652 13.2025 241.176C14.0524 243.409 16.2941 247.214 21.8431 248.268C25.5199 248.97 28.2851 248.101 29.8248 245.767C31.2105 243.66 31.58 240.406 30.9026 236.333C31.192 236.333 31.4815 236.342 31.7771 236.358C32.4607 240.691 32.005 244.195 30.4591 246.537H30.453Z" fill="#EBB376"/>
<path d="M50.4811 244.889C50.4811 244.889 57.5512 244.178 58.3888 239.336C59.2264 234.494 43.0044 238.742 41.2184 228.756C39.4262 218.779 46.6011 210.817 48.9291 213.736C51.6882 217.198 45.6465 218.67 45.3201 223.805C45.0491 228.071 46.9952 232.001 53.0369 232.587C59.0786 233.172 61.7761 234.443 61.7515 238.257C61.7207 242.405 56.8307 246.687 53.856 246.955C50.8814 247.223 50.4811 244.889 50.4811 244.889Z" fill="#E8E8E8"/>
<path d="M19.4537 230.044C19.4537 230.044 17.3536 226.339 13.9417 223.872C13.4428 223.513 12.8516 224.056 12.9132 224.817L13.5598 233.314C13.5598 233.314 18.4621 233.883 19.4598 230.053L19.4537 230.044Z" fill="#E8E8E8"/>
<path d="M14.7545 232.286C14.4774 230.362 14.4096 228.338 14.0832 226.063C14.0832 226.063 17.7723 229.049 17.9879 230.688C17.9879 230.688 15.9555 232.779 14.7545 232.286Z" fill="#263238"/>
<path d="M25.8587 230.387C25.8587 230.387 28.741 228.029 32.5163 227.385C33.1322 227.276 33.5879 228.163 33.3108 228.924L30.7303 235.916C30.7303 235.916 25.7602 234.452 25.8649 230.387H25.8587Z" fill="#E8E8E8"/>
<path d="M29.634 234.786C30.41 233.13 31.0136 231.274 31.925 229.325C31.925 229.325 27.694 230.287 27.0474 231.709C27.0474 231.709 28.3838 234.661 29.634 234.795V234.786Z" fill="#263238"/>
<path d="M16.713 230.195C16.713 230.195 12.3465 231.098 12.6729 238.048C12.9993 244.998 17.9817 245.734 17.9817 245.734C17.9817 245.734 18.8685 247.967 21.9479 248.87C23.9186 249.447 26.8502 249.263 27.5954 247.298C27.5954 247.298 31.8695 245.174 31.8202 239.997C31.7648 234.259 26.6777 227.218 16.713 230.195Z" fill="#E8E8E8"/>
<path d="M12.2787 246.62C12.2787 246.62 14.0585 256.481 15.5551 258.521C17.0455 260.554 18.6653 261.674 20.7469 262.017C24.1034 262.569 23.4875 265.614 22.4836 266.659C21.3258 267.872 19.2688 267.177 16.1771 267.177C13.5104 267.177 10.9977 266.458 10.0923 264.075C9.19318 261.691 9.24861 254.649 10.2094 250.685C10.8006 248.243 11.632 246.963 12.2725 246.629L12.2787 246.62Z" fill="#E8E8E8"/>
<path d="M34.8442 247.273C34.8442 247.273 33.0643 257.133 31.5677 259.174C30.0773 261.206 28.4453 262.218 26.3759 262.67C23.8447 263.213 24.0787 266.458 24.6392 267.311C25.6184 268.792 27.854 267.83 30.9457 267.83C33.6124 267.83 36.7657 266.383 37.671 264C38.5702 261.616 37.8742 255.302 36.9135 251.337C36.3222 248.895 35.4908 247.616 34.8503 247.281L34.8442 247.273Z" fill="#E8E8E8"/>
<path d="M49.7543 245.308C49.7543 245.308 54.4534 243.777 55.9684 248.586C58.3519 256.146 56.4488 260.47 50.0992 261.675C43.7496 262.879 36.5377 264.51 41.9882 258.371C47.4448 252.241 49.7543 245.308 49.7543 245.308Z" fill="#E8E8E8"/>
<path d="M24.4606 241.419C24.4606 241.419 22.5637 241.143 22.0587 241.46C21.2088 241.987 22.576 244.137 23.4444 244.321C24.3128 244.505 25.1565 243.125 25.1442 242.221C25.1319 241.327 24.4606 241.419 24.4606 241.419Z" fill="#263238"/>
<path d="M25.4399 239.436C25.3475 239.361 25.249 239.52 25.3167 239.629C25.6924 240.239 26.3883 241.042 27.3306 240.775C28.1066 240.549 28.4022 239.813 28.5069 239.169C28.5316 239.027 28.3837 238.943 28.3345 239.077C28.1312 239.554 27.7432 240.039 26.9857 240.105C26.413 240.156 25.8279 239.771 25.4399 239.445V239.436Z" fill="#263238"/>
<path d="M18.0863 238.91C18.0063 238.809 17.8893 238.943 17.9385 239.068C18.228 239.763 18.8008 240.724 19.7615 240.699C20.556 240.674 20.944 240.022 21.1349 239.411C21.178 239.278 21.0487 239.16 20.9748 239.278C20.7161 239.696 20.2665 240.08 19.509 239.955C18.9424 239.863 18.4128 239.336 18.0802 238.918L18.0863 238.91Z" fill="#263238"/>
</svg>
