<svg width="225" height="317" viewBox="0 0 225 317" fill="none" xmlns="http://www.w3.org/2000/svg">
<path d="M16.4327 143.517V202.676C16.4205 202.937 16.3538 203.191 16.2379 203.418C16.122 203.644 15.9602 203.837 15.7656 203.98L13.9697 205.134C13.7652 205.253 13.5381 205.316 13.3077 205.316C13.0773 205.316 12.8503 205.253 12.6458 205.134L10.8498 203.98C10.6553 203.837 10.4934 203.644 10.3775 203.418C10.2616 203.191 10.1949 202.937 10.1827 202.676V143.517C10.1814 143.403 10.2003 143.29 10.2385 143.184C10.2767 143.078 10.3334 142.982 10.4051 142.901C10.4769 142.821 10.5623 142.757 10.6563 142.714C10.7503 142.671 10.851 142.65 10.9524 142.651H15.663C15.7644 142.65 15.8652 142.671 15.9592 142.714C16.0532 142.757 16.1386 142.821 16.2103 142.901C16.2821 142.982 16.3387 143.078 16.3769 143.184C16.4151 143.29 16.4341 143.403 16.4327 143.517Z" fill="#263238"/>
<path d="M10.9525 142.651H12.5432C12.7473 142.651 12.9431 142.743 13.0875 142.905C13.2318 143.067 13.3129 143.287 13.3129 143.517V204.684C13.3129 205.169 13.0153 205.365 12.6561 205.122L10.8601 203.968C10.6656 203.825 10.5038 203.633 10.3879 203.406C10.272 203.179 10.2052 202.925 10.1931 202.664V143.517C10.1917 143.404 10.2103 143.291 10.2479 143.187C10.2855 143.082 10.3412 142.986 10.4118 142.906C10.4825 142.825 10.5667 142.761 10.6595 142.717C10.7523 142.674 10.8519 142.651 10.9525 142.651Z" fill="#455A64"/>
<path d="M46.6253 163.044V222.203C46.6132 222.464 46.5464 222.718 46.4305 222.945C46.3146 223.171 46.1528 223.364 45.9582 223.507L44.1623 224.661C43.9546 224.776 43.7264 224.835 43.4952 224.835C43.264 224.835 43.0359 224.776 42.8281 224.661L41.0424 223.507C40.8479 223.364 40.6861 223.171 40.5702 222.945C40.4543 222.718 40.3875 222.464 40.3754 222.203V163.044C40.374 162.93 40.393 162.817 40.4312 162.711C40.4693 162.605 40.526 162.509 40.5977 162.429C40.6695 162.348 40.7549 162.284 40.8489 162.241C40.9429 162.198 41.0436 162.177 41.1451 162.179H45.8556C46.0598 162.179 46.2555 162.27 46.3999 162.432C46.5442 162.594 46.6253 162.815 46.6253 163.044Z" fill="#263238"/>
<path d="M41.1451 162.179H42.7255C42.827 162.177 42.9277 162.198 43.0217 162.241C43.1157 162.284 43.2011 162.348 43.2728 162.429C43.3446 162.509 43.4012 162.605 43.4394 162.711C43.4776 162.817 43.4966 162.93 43.4952 163.044V224.211C43.4952 224.696 43.1976 224.881 42.8281 224.65L41.0424 223.496C40.8479 223.353 40.6861 223.16 40.5702 222.933C40.4543 222.707 40.3875 222.453 40.3754 222.192V163.044C40.374 162.93 40.393 162.817 40.4312 162.711C40.4693 162.605 40.526 162.509 40.5977 162.429C40.6695 162.348 40.7549 162.284 40.8489 162.241C40.9429 162.198 41.0436 162.177 41.1451 162.179Z" fill="#455A64"/>
<path d="M44.6549 119.604C44.609 120.018 44.636 120.438 44.7344 120.84C44.8328 121.242 45.0007 121.618 45.2284 121.947C45.4562 122.276 45.7395 122.552 46.0619 122.757C46.3844 122.963 46.7397 123.096 47.1077 123.147H47.4566C48.1449 123.147 48.8096 122.865 49.3255 122.353C49.8415 121.84 50.1733 121.134 50.2583 120.366C51.8798 105.755 49.5707 73.0479 44.0084 54.6748C43.4337 52.782 41.8122 52.3666 40.2728 53.3706C39.1029 54.1323 38.2203 55.2864 38.7026 56.729C43.9981 74.0405 46.1841 105.536 44.6549 119.604Z" fill="#90CAF9"/>
<path d="M11.8966 127.96C11.6121 127.964 11.3308 127.891 11.0765 127.748C10.8222 127.604 10.6023 127.394 10.4353 127.135C10.2683 126.876 10.1591 126.576 10.117 126.259C10.0748 125.943 10.1009 125.62 10.193 125.317C14.298 111.087 34.8233 98.4265 48.021 98.4265C48.4974 98.4265 48.9542 98.6393 49.291 99.0181C49.6278 99.3968 49.817 99.9106 49.817 100.446C49.817 100.982 49.6278 101.496 49.291 101.874C48.9542 102.253 48.4974 102.466 48.021 102.466C36.0753 102.466 17.2332 114.157 13.6002 126.575C13.4844 126.98 13.2567 127.332 12.9502 127.581C12.6438 127.83 12.2747 127.963 11.8966 127.96Z" fill="#37474F"/>
<path d="M9.96724 109.563C9.77545 109.562 9.58505 109.527 9.4028 109.46C8.95119 109.291 8.57756 108.928 8.36397 108.449C8.15039 107.971 8.11431 107.417 8.26365 106.909C12.5842 92.1251 33.6431 80.1572 46.8101 81.6921C47.2735 81.7611 47.6947 82.0306 47.9842 82.4432C48.2738 82.8559 48.4088 83.3792 48.3607 83.9021C48.3126 84.425 48.0851 84.9061 47.7266 85.2434C47.3681 85.5807 46.9068 85.7475 46.4406 85.7083C34.7925 84.3696 15.468 95.2181 11.6708 108.179C11.5522 108.581 11.3238 108.932 11.018 109.181C10.7122 109.429 10.3446 109.563 9.96724 109.563Z" fill="#37474F"/>
<path d="M5.65696 95.3335C5.35872 95.3307 5.06573 95.2449 4.80417 95.0837C4.54261 94.9225 4.32061 94.691 4.15799 94.4099C3.99537 94.1287 3.89721 93.8066 3.87224 93.4724C3.84728 93.1382 3.89631 92.8022 4.01494 92.4945C10.1725 76.6487 32.2166 63.6421 44.1315 65.4886C44.6038 65.5621 45.0307 65.8435 45.3184 66.271C45.6062 66.6985 45.7311 67.2369 45.6658 67.768C45.6005 68.299 45.3502 68.7792 44.9701 69.1027C44.59 69.4263 44.1112 69.5668 43.6389 69.4934C33.0992 67.843 12.8511 79.961 7.29898 94.1217C7.1584 94.4803 6.92858 94.7855 6.63723 95.0006C6.34588 95.2156 6.00544 95.3312 5.65696 95.3335Z" fill="#37474F"/>
<path d="M1.39793 77.9759C0.800215 78.3689 0.351793 78.9952 0.137968 79.7357C-0.0758582 80.4762 -0.0401651 81.2793 0.238259 81.9922C6.7345 99.0382 10.152 119.858 10.152 142.663V145.721L10.3675 145.975C10.477 146.104 10.6094 146.206 10.7562 146.273C10.903 146.341 11.0607 146.373 11.2193 146.368C11.6266 146.339 12.0262 146.23 12.3995 146.044C12.5867 145.961 12.7787 145.891 12.9742 145.837C13.7227 145.837 14.4405 145.502 14.9698 144.907C15.4991 144.312 15.7964 143.505 15.7964 142.663C15.7964 119.016 12.2147 97.3301 5.41062 79.4763C5.25446 79.0649 5.02273 78.6953 4.73064 78.3917C4.43855 78.0881 4.09268 77.8573 3.71573 77.7146C3.33878 77.5718 2.93925 77.5203 2.54335 77.5633C2.14744 77.6064 1.7641 77.7431 1.41846 77.9644L1.39793 77.9759Z" fill="#455A64"/>
<path d="M10.1827 144.983V145.756C10.2135 146.46 10.3745 147.149 10.6555 147.779C10.9364 148.409 11.3312 148.966 11.8145 149.414L41.8019 173.8C42.3117 174.168 42.898 174.379 43.5028 174.413C44.1076 174.448 44.7099 174.304 45.2501 173.997L87.5424 146.529C88.0618 146.151 88.4944 145.641 88.8047 145.039C89.1151 144.437 89.2944 143.761 89.3281 143.067V142.271C89.2942 141.59 89.1044 140.93 88.7772 140.356C88.4499 139.781 87.9963 139.312 87.4603 138.993L49.4886 119.281C48.9044 119.019 48.2774 118.901 47.6493 118.933C47.0211 118.964 46.4062 119.146 45.8453 119.466L11.9581 141.52C11.44 141.899 11.009 142.41 10.7004 143.012C10.3918 143.613 10.2144 144.289 10.1827 144.983Z" fill="#263238"/>
<path d="M11.9582 141.52L45.8864 119.466C46.4473 119.146 47.0622 118.964 47.6904 118.933C48.3185 118.901 48.9455 119.019 49.5296 119.281L87.5014 138.993C88.5276 139.535 88.5276 140.482 87.5835 141.116L45.2912 168.584C44.7509 168.891 44.1487 169.035 43.5439 169.001C42.9391 168.966 42.3528 168.755 41.8429 168.388L11.8145 144.025C11.6054 143.901 11.4325 143.713 11.3169 143.481C11.2012 143.249 11.1478 142.985 11.163 142.72C11.1782 142.455 11.2614 142.201 11.4025 141.988C11.5437 141.775 11.7367 141.612 11.9582 141.52Z" fill="#37474F"/>
<path d="M108.529 206.958C115.2 217.598 120.578 220.195 122.415 222.515C124.252 224.835 123.02 229.22 118.31 230.086C113.599 230.951 108.601 229.486 105.687 226C102.772 222.515 100.832 218.014 97.8358 215.429C94.8391 212.844 93.2894 212.128 92.92 209.197C92.5505 206.265 95.1264 197.656 95.1264 197.656L108.529 206.958Z" fill="#90CAF9"/>
<path d="M105.656 191.02C104.886 194.759 104.076 198.025 106.21 202.653C106.908 204.137 107.683 205.575 108.53 206.958C112.419 213.271 115.59 218.21 116.155 219.076C116.719 219.941 113.179 222.538 109.279 220.518C105.379 218.499 102.208 211.828 99.755 207.823C98.6569 206.011 97.5896 204.361 96.7275 203.103C95.5883 201.406 95.0341 199.303 95.1676 197.183L95.5576 191.17L105.656 191.02Z" fill="#FFA8A7"/>
<path d="M83.8788 219.987C90.5495 230.628 95.9271 233.236 97.7744 235.556C99.6216 237.876 98.3696 242.25 93.6693 243.115C88.969 243.981 83.9609 242.527 81.0566 239.041C78.1522 235.556 76.1921 231.055 73.1954 228.47C70.1987 225.885 68.649 225.169 68.2796 222.238C67.9101 219.306 70.4963 210.697 70.4963 210.697L83.8788 219.987Z" fill="#37474F"/>
<path d="M81.0051 204.061C80.2354 207.8 79.4247 211.066 81.5696 215.682C82.2557 217.172 83.027 218.61 83.8787 219.987C87.7682 226.312 90.9393 231.251 91.5038 232.117C92.0682 232.982 88.5276 235.579 84.6381 233.548C80.7486 231.517 77.5569 224.869 75.1041 220.853C74.0163 219.041 72.9387 217.391 72.0869 216.133C70.9382 214.436 70.3798 212.327 70.5167 210.201L70.9067 204.199L81.0051 204.061Z" fill="#FFA8A7"/>
<path d="M47.3129 46.6769C41.8965 46.6769 36.7019 44.2572 32.8719 39.9502C29.042 35.6431 26.8903 29.8015 26.8903 23.7104V23.5142C26.8903 18.1118 28.7987 12.9307 32.1956 9.11064C35.5926 5.29057 40.1998 3.14447 45.0038 3.14447H49.6117C51.9913 3.14296 54.3478 3.66872 56.5466 4.69172C58.7455 5.71472 60.7435 7.2149 62.4266 9.10656C64.1097 10.9982 65.4448 13.2443 66.3557 15.7164C67.2667 18.1885 67.7355 20.8383 67.7355 23.5142V23.7104C67.7355 26.7264 67.2073 29.7129 66.181 32.4993C65.1546 35.2857 63.6503 37.8175 61.7539 39.9502C59.8575 42.0828 57.6061 43.7745 55.1283 44.9287C52.6505 46.0829 49.9948 46.6769 47.3129 46.6769Z" fill="#37474F"/>
<path d="M67.6637 101.577C66.3193 100.354 64.8825 98.1958 63.4971 93.6948C62.5427 90.5903 53.7168 62.6727 52.3108 55.9328C52.3108 55.9328 51.0588 53.994 54.3634 51.5242C58.766 50.9587 62.5735 50.9818 65.6523 60.203C68.731 69.4242 74.9502 91.2481 74.9502 91.2481" fill="#FFA8A7"/>
<path d="M23.9758 119.593C21.7386 124.151 19.8708 132.83 22.0054 139.778C23.2061 143.621 39.2466 163.471 50.5458 161.809C70.0447 158.959 88.107 129.841 88.107 129.841L62.2657 113.257L23.9758 119.593Z" fill="#90CAF9"/>
<g opacity="0.1">
<path d="M23.9758 119.593C21.7386 124.151 19.8708 132.83 22.0054 139.778C23.2061 143.621 39.2466 163.471 50.5458 161.809C70.0447 158.959 88.107 129.841 88.107 129.841L62.2657 113.257L23.9758 119.593Z" fill="black"/>
</g>
<path d="M53.1318 51.605C56.108 51.3396 59.6383 51.3165 62.9839 58.1833C65.6009 63.5268 67.0171 65.7427 66.9145 73.0365C66.8427 78.2992 63.9691 84.6352 63.3226 88.8361C62.676 93.037 62.3476 111.606 62.2963 113.257C59.8114 116.408 56.7712 118.944 53.3686 120.704C49.966 122.465 46.2753 123.41 42.5305 123.482C29.5688 123.874 24.0065 119.593 24.0065 119.593L33.8996 99.6153L31.3135 59.0028L40.9911 52.4937L53.1318 51.605Z" fill="#90CAF9"/>
<g opacity="0.5">
<path d="M53.1318 51.605C56.108 51.3396 59.6383 51.3165 62.9839 58.1833C65.6009 63.5268 67.0171 65.7427 66.9145 73.0365C66.8427 78.2992 63.9691 84.6352 63.3226 88.8361C62.6761 93.037 62.3476 111.606 62.2963 113.257C59.8114 116.408 56.7712 118.944 53.3686 120.704C49.966 122.465 46.2753 123.41 42.5305 123.482C29.5688 123.874 24.0065 119.593 24.0065 119.593L33.8996 99.6153L31.3135 59.0027L40.9911 52.4937L53.1318 51.605Z" fill="white"/>
</g>
<path d="M58.4786 12.4235C60.6338 13.8661 65.8472 19.9597 65.5906 32.7586C65.3649 43.5955 62.245 46.2846 60.6748 47.0463C59.1047 47.808 56.0772 47.3579 53.1318 46.8039V53.313C53.1318 53.313 57.2369 58.6218 56.9392 61.5994C56.6416 64.577 51.069 65.2925 47.2719 62.3726C44.8018 60.3784 42.6825 57.8856 41.0219 55.0211V39.3023C41.0219 39.3023 39.031 42.2799 35.788 39.8563C32.545 37.4327 32.4116 31.4198 34.2999 29.2617C36.1882 27.1035 40.2625 27.796 41.0219 30.7735C41.0219 30.7735 45.0243 31.9276 51.2845 28.0499C57.5447 24.1721 58.0681 16.6359 58.4786 12.4235Z" fill="#FFA8A7"/>
<path d="M54.8252 30.0348C54.8269 30.3017 54.7589 30.5632 54.6296 30.7869C54.5003 31.0106 54.3154 31.1866 54.0979 31.2932C53.8804 31.3997 53.6398 31.4321 53.4061 31.3862C53.1724 31.3403 52.9558 31.2183 52.7832 31.0352C52.6106 30.852 52.4897 30.616 52.4354 30.3562C52.3811 30.0965 52.3959 29.8246 52.4779 29.5742C52.5598 29.3238 52.7054 29.106 52.8965 28.9478C53.0875 28.7897 53.3157 28.6981 53.5527 28.6846C53.7153 28.6784 53.8773 28.7085 54.0295 28.7732C54.1817 28.8379 54.3209 28.9358 54.4393 29.0614C54.5576 29.1869 54.6526 29.3376 54.7189 29.5047C54.7851 29.6718 54.8213 29.852 54.8252 30.0348Z" fill="#37474F"/>
<path d="M52.6392 25.8571L50.1146 27.6113C49.9231 27.2264 49.8686 26.7742 49.9619 26.3459C50.0552 25.9175 50.2895 25.5449 50.6174 25.3031C50.782 25.1881 50.9653 25.1111 51.1566 25.0767C51.348 25.0423 51.5435 25.0512 51.7317 25.1027C51.92 25.1543 52.0972 25.2476 52.253 25.3771C52.4088 25.5067 52.5401 25.6698 52.6392 25.8571Z" fill="#37474F"/>
<path d="M55.1434 39.2214L57.9964 40.2486C57.9469 40.4625 57.8593 40.663 57.7391 40.8379C57.6189 41.0128 57.4685 41.1586 57.2968 41.2664C57.1252 41.3742 56.936 41.4419 56.7405 41.4653C56.545 41.4887 56.3473 41.4674 56.1594 41.4027C55.7692 41.262 55.444 40.9543 55.2539 40.5462C55.0638 40.1381 55.0241 39.6622 55.1434 39.2214Z" fill="#F28F8F"/>
<path d="M64.1539 29.054C64.1665 29.2354 64.1469 29.4177 64.0963 29.5905C64.0456 29.7633 63.965 29.923 63.859 30.0605C63.753 30.1979 63.6238 30.3103 63.4789 30.3911C63.334 30.4719 63.1762 30.5195 63.0148 30.5312C62.6861 30.5406 62.3674 30.4043 62.1274 30.1516C61.8873 29.899 61.7453 29.5503 61.7319 29.1809C61.7245 29.0021 61.7485 28.8234 61.8025 28.655C61.8565 28.4865 61.9395 28.3317 62.0467 28.1994C62.1539 28.067 62.2833 27.9597 62.4274 27.8836C62.5714 27.8074 62.7275 27.764 62.8865 27.7556C63.0455 27.7473 63.2044 27.7743 63.3542 27.835C63.504 27.8957 63.6416 27.989 63.7593 28.1096C63.877 28.2302 63.9724 28.3756 64.0401 28.5377C64.1078 28.6997 64.1465 28.8751 64.1539 29.054Z" fill="#37474F"/>
<path d="M58.4787 28.2692L58.6737 36.4748L62.5119 35.136L58.4787 28.2692Z" fill="#F28F8F"/>
<path d="M53.1319 46.8039C50.6791 46.4923 45.7633 44.8188 44.6858 42.9608C44.8951 44.147 45.4782 45.2084 46.3278 45.9499C47.939 47.6695 53.1319 48.9159 53.1319 48.9159V46.8039Z" fill="#F28F8F"/>
<path d="M56.9701 11.4886C56.9701 11.4886 59.1047 19.8327 56.5493 27.6459C56.5493 27.6459 65.8473 28.3037 66.3604 20.3982C66.3604 20.3982 65.9088 13.8891 61.7935 10.0114L56.9701 11.4886Z" fill="#37474F"/>
<path d="M35.4186 2.08273C38.6719 5.33728 36.0036 8.48795 32.894 12.4119C29.7844 16.3358 27.4138 19.5326 24.1605 16.2666C22.6308 14.5428 21.7458 12.226 21.687 9.79159C21.6282 7.3572 22.4002 4.98982 23.8444 3.17522C25.2887 1.36062 27.2957 0.2364 29.4537 0.0332475C31.6117 -0.169905 33.757 0.563415 35.4494 2.08273H35.4186Z" fill="#37474F"/>
<path d="M104.076 234.587V313.481C104.093 313.828 104.183 314.165 104.338 314.466C104.493 314.767 104.709 315.022 104.968 315.212L107.36 316.758C107.634 316.917 107.939 317 108.247 317C108.556 317 108.86 316.917 109.135 316.758L111.526 315.212C111.785 315.022 112.001 314.767 112.156 314.466C112.311 314.165 112.401 313.828 112.419 313.481V234.587C112.419 234.281 112.311 233.987 112.118 233.771C111.926 233.554 111.665 233.433 111.393 233.433H105.102C104.83 233.433 104.569 233.554 104.376 233.771C104.184 233.987 104.076 234.281 104.076 234.587Z" fill="#263238"/>
<path d="M111.362 233.432H109.309C109.037 233.432 108.776 233.554 108.584 233.77C108.391 233.987 108.283 234.28 108.283 234.586V316.181C108.283 316.816 108.683 317.081 109.166 316.758L111.557 315.211C111.816 315.022 112.032 314.766 112.187 314.466C112.342 314.165 112.432 313.827 112.45 313.48V234.586C112.45 234.429 112.422 234.273 112.366 234.128C112.311 233.983 112.23 233.853 112.128 233.745C112.026 233.637 111.905 233.553 111.774 233.5C111.642 233.446 111.502 233.423 111.362 233.432Z" fill="#455A64"/>
<path d="M212.469 164.21V243.104C212.487 243.449 212.577 243.786 212.73 244.086C212.883 244.386 213.096 244.643 213.352 244.835L215.743 246.393C216.022 246.544 216.327 246.623 216.636 246.623C216.945 246.623 217.25 246.544 217.529 246.393L219.92 244.835C220.176 244.643 220.389 244.386 220.542 244.086C220.696 243.786 220.785 243.449 220.803 243.104V164.21C220.803 163.904 220.695 163.61 220.502 163.394C220.31 163.177 220.049 163.056 219.776 163.056H213.496C213.224 163.056 212.962 163.177 212.77 163.394C212.578 163.61 212.469 163.904 212.469 164.21Z" fill="#263238"/>
<path d="M219.776 163.056H217.662C217.39 163.056 217.129 163.177 216.937 163.394C216.744 163.61 216.636 163.904 216.636 164.21V245.816C216.636 246.451 217.036 246.704 217.529 246.393L219.92 244.835C220.176 244.643 220.389 244.386 220.542 244.086C220.696 243.786 220.785 243.449 220.803 243.104V164.21C220.803 163.904 220.695 163.61 220.502 163.394C220.31 163.177 220.049 163.056 219.776 163.056Z" fill="#455A64"/>
<path d="M8.20215 172.335V251.229C8.21863 251.575 8.30706 251.912 8.46034 252.212C8.61363 252.513 8.82748 252.769 9.08473 252.96L11.4759 254.518C11.7543 254.669 12.0596 254.748 12.3688 254.748C12.678 254.748 12.9832 254.669 13.2616 254.518L15.6528 252.96C15.9112 252.77 16.1259 252.515 16.2794 252.214C16.4328 251.913 16.5205 251.575 16.5354 251.229V172.335C16.5354 172.029 16.4273 171.735 16.2348 171.519C16.0423 171.302 15.7813 171.181 15.5091 171.181H9.22841C8.95623 171.181 8.69519 171.302 8.50273 171.519C8.31027 171.735 8.20215 172.029 8.20215 172.335Z" fill="#37474F"/>
<path d="M15.5091 171.181H13.395C13.1228 171.181 12.8618 171.302 12.6693 171.519C12.4768 171.735 12.3687 172.029 12.3687 172.335V253.941C12.3687 254.576 12.769 254.829 13.2616 254.518L15.6528 252.96C15.9111 252.77 16.1259 252.515 16.2793 252.214C16.4327 251.913 16.5205 251.575 16.5353 251.229V172.335C16.5353 172.029 16.4272 171.735 16.2348 171.519C16.0423 171.302 15.7813 171.181 15.5091 171.181Z" fill="#263238"/>
<path d="M106.477 240.392L5.81087 175.035C5.29276 174.657 4.86174 174.146 4.55313 173.544C4.24453 172.942 4.06711 172.267 4.03543 171.573V170.777C4.06954 170.084 4.24799 169.409 4.55638 168.808C4.86476 168.206 5.29447 167.695 5.81087 167.314L118.977 93.8448C119.529 93.5322 120.139 93.3694 120.757 93.3694C121.376 93.3694 121.986 93.5322 122.538 93.8448L223.225 159.201C223.743 159.579 224.174 160.091 224.482 160.692C224.791 161.294 224.968 161.97 225 162.663V163.46C224.968 164.153 224.79 164.828 224.481 165.43C224.173 166.032 223.742 166.543 223.225 166.922L110.028 240.392C109.479 240.71 108.87 240.877 108.252 240.877C107.635 240.877 107.026 240.71 106.477 240.392Z" fill="#37474F"/>
<path d="M108.283 100.804L5.81087 167.314C5.29447 167.695 4.86476 168.206 4.55638 168.808C4.24799 169.409 4.06954 170.084 4.03543 170.777V171.573C4.06711 172.267 4.24453 172.942 4.55313 173.544C4.86174 174.146 5.29276 174.657 5.81087 175.035L106.477 240.392C107.021 240.725 107.633 240.892 108.252 240.876L108.283 100.804Z" fill="#263238"/>
<path d="M106.477 234.979L5.81093 169.623C4.78466 168.988 4.78466 167.961 5.81093 167.314L118.977 93.8448C119.529 93.5322 120.139 93.3694 120.757 93.3694C121.376 93.3694 121.986 93.5322 122.538 93.8448L223.225 159.201C223.442 159.279 223.632 159.433 223.767 159.641C223.901 159.848 223.974 160.098 223.974 160.355C223.974 160.612 223.901 160.862 223.767 161.07C223.632 161.277 223.442 161.431 223.225 161.509L110.028 234.979C109.479 235.298 108.87 235.464 108.252 235.464C107.635 235.464 107.026 235.298 106.477 234.979Z" fill="#455A64"/>
<path d="M59.6486 148.872V150.026C59.6514 150.607 59.788 151.177 60.0453 151.681C60.3025 152.184 60.6715 152.604 61.1162 152.9L89.1742 171.054C89.6211 171.341 90.1269 171.492 90.6417 171.492C91.1566 171.492 91.6624 171.341 92.1093 171.054L143.576 137.585C144.025 137.296 144.398 136.88 144.657 136.377C144.917 135.875 145.054 135.304 145.054 134.723V133.915L90.6623 169.242L59.6486 148.872Z" fill="#E6E6E6"/>
<path d="M145.054 133.973L114.533 114.168C114.269 113.993 113.968 113.9 113.661 113.9C113.354 113.9 113.053 113.993 112.789 114.168L59.8436 148.537C59.7839 148.576 59.7343 148.631 59.6997 148.698C59.6652 148.765 59.647 148.841 59.647 148.918C59.647 148.995 59.6652 149.071 59.6997 149.138C59.7343 149.205 59.7839 149.261 59.8436 149.299L90.6315 169.299L145.054 133.973Z" fill="#FAFAFA"/>
<path d="M90.3646 166.391L73.9034 155.716L122.035 124.463L138.578 135.092L90.3646 166.391Z" fill="#E6E6E6"/>
<path d="M82.2775 136.696L82.5751 136.893L90.6416 142.132L104.989 132.807L105.286 132.622L96.9223 127.187L82.2775 136.696Z" fill="#E0E0E0"/>
<path d="M74.9092 91.248C74.9092 91.248 82.8422 98.6227 91.9862 106.782C96.0913 110.464 100.689 114.168 104.466 114.63C107.462 114.988 112.789 115.23 113.928 116.407C115.067 117.584 118.361 123.724 119.428 125.709C120.496 127.694 119.788 132.345 116.35 132.634C112.912 132.922 111.454 130.164 110.018 128.444C109.229 127.486 108.36 126.616 107.421 125.848C107.421 125.848 103.84 126.067 101.808 124.694C99.7756 123.32 98.6159 122.536 98.6159 122.536C91.4936 118.046 73.4827 106.817 67.6843 101.531" fill="#FFA8A7"/>
<path d="M82.5754 136.892L90.6418 142.132L104.989 132.807L96.9225 127.579L82.5754 136.892Z" fill="#E6E6E6"/>
<path d="M90.6417 169.299V171.504C91.1565 171.503 91.6622 171.352 92.1093 171.065L143.576 137.596C144.025 137.308 144.398 136.891 144.657 136.389C144.917 135.886 145.054 135.315 145.054 134.734V133.926L90.6417 169.299Z" fill="#E0E0E0"/>
<path d="M91.4729 169.784C91.9591 169.997 92.4816 170.085 93.002 170.041C93.5224 169.997 94.0274 169.823 94.4799 169.53L145.721 136.258C146.166 135.971 146.548 135.577 146.841 135.104C147.133 134.631 147.329 134.091 147.414 133.522L153.028 95.899C153.112 95.2717 153.063 94.631 152.885 94.0292C152.707 93.4274 152.404 92.8816 152.002 92.4367L98.7491 127.059C98.4215 127.275 98.1397 127.569 97.9234 127.919C97.7072 128.27 97.5617 128.67 97.4971 129.091L91.4729 169.784Z" fill="#EBEBEB"/>
<path d="M90.6417 169.299L90.9906 169.53C91.1474 169.624 91.3084 169.709 91.473 169.784L97.5382 129.114C97.6028 128.693 97.7483 128.293 97.9646 127.943C98.1808 127.592 98.4626 127.298 98.7903 127.083L152.043 92.4598C151.828 92.2218 151.587 92.0162 151.325 91.8482L97.959 126.471C97.6314 126.687 97.3496 126.98 97.1333 127.331C96.917 127.682 96.7715 128.082 96.7069 128.502L90.6417 169.299Z" fill="#F5F5F5"/>
<path d="M120.331 135.057C120.711 132.542 123.02 129.195 125.463 127.59C127.905 125.986 129.65 126.725 129.27 129.241C128.89 131.757 126.581 135.104 124.139 136.708C121.696 138.312 119.962 137.585 120.331 135.057Z" fill="#E0E0E0"/>
<path d="M58.2221 171.181L54.0555 173.881L58.2221 176.593L62.3887 173.881L58.2221 171.181Z" fill="#90CAF9"/>
<path d="M38.4973 178.74L53.3987 169.069C53.6757 168.919 53.9791 168.841 54.2864 168.841C54.5937 168.841 54.897 168.919 55.1741 169.069L65.8986 175.993C66.1577 176.183 66.3736 176.438 66.5287 176.739C66.6838 177.04 66.7738 177.377 66.7914 177.724V178.117C66.7762 178.464 66.6873 178.803 66.5319 179.104C66.3766 179.405 66.1594 179.66 65.8986 179.848L51.0075 189.531C50.7291 189.682 50.4239 189.76 50.1146 189.76C49.8054 189.76 49.5002 189.682 49.2218 189.531L38.4973 182.606C38.2382 182.416 38.0223 182.161 37.8672 181.86C37.7121 181.56 37.6221 181.222 37.6045 180.875V180.471C37.6221 180.124 37.7121 179.786 37.8672 179.486C38.0223 179.185 38.2382 178.929 38.4973 178.74Z" fill="#90CAF9"/>
<path d="M49.191 186.818L38.4974 179.894C38.0047 179.582 38.0047 179.063 38.4974 178.74L53.3987 169.069C53.6758 168.919 53.9791 168.841 54.2864 168.841C54.5937 168.841 54.8971 168.919 55.1741 169.069L65.8986 175.993C66.0048 176.035 66.0969 176.113 66.162 176.217C66.2271 176.32 66.2621 176.443 66.2621 176.57C66.2621 176.697 66.2271 176.82 66.162 176.924C66.0969 177.027 66.0048 177.105 65.8986 177.147L50.9767 186.818C50.7003 186.978 50.3943 187.06 50.0838 187.06C49.7734 187.06 49.4674 186.978 49.191 186.818Z" fill="#90CAF9"/>
<g opacity="0.3">
<path d="M49.191 186.818L38.4974 179.894C38.0047 179.582 38.0047 179.063 38.4974 178.74L53.3987 169.069C53.6758 168.919 53.9791 168.841 54.2864 168.841C54.5937 168.841 54.8971 168.919 55.1741 169.069L65.8986 175.993C66.0048 176.035 66.0969 176.113 66.162 176.217C66.2271 176.32 66.2621 176.443 66.2621 176.57C66.2621 176.697 66.2271 176.82 66.162 176.924C66.0969 177.027 66.0048 177.105 65.8986 177.147L50.9767 186.818C50.7003 186.978 50.3943 187.06 50.0838 187.06C49.7734 187.06 49.4674 186.978 49.191 186.818Z" fill="white"/>
</g>
<path d="M53.1729 170.996C52.5777 171.388 52.5777 172.012 53.1729 172.392C53.5061 172.586 53.8756 172.687 54.2505 172.687C54.6254 172.687 54.9949 172.586 55.328 172.392C55.9233 172.012 55.9233 171.388 55.328 170.996C54.9934 170.808 54.6245 170.71 54.2505 170.71C53.8764 170.71 53.5075 170.808 53.1729 170.996Z" fill="#90CAF9"/>
<path d="M49.0063 173.708C48.411 174.089 48.411 174.712 49.0063 175.105C49.3409 175.293 49.7098 175.39 50.0838 175.39C50.4579 175.39 50.8268 175.293 51.1614 175.105C51.7566 174.712 51.7566 174.089 51.1614 173.708C50.8282 173.515 50.4587 173.414 50.0838 173.414C49.7089 173.414 49.3395 173.515 49.0063 173.708Z" fill="#90CAF9"/>
<g opacity="0.2">
<path d="M53.1729 170.996C52.5777 171.388 52.5777 172.012 53.1729 172.392C53.5061 172.586 53.8756 172.687 54.2505 172.687C54.6254 172.687 54.9949 172.586 55.328 172.392C55.9233 172.012 55.9233 171.388 55.328 170.996C54.9934 170.808 54.6245 170.71 54.2505 170.71C53.8764 170.71 53.5075 170.808 53.1729 170.996Z" fill="black"/>
</g>
<g opacity="0.2">
<path d="M49.0063 173.708C48.411 174.089 48.411 174.712 49.0063 175.105C49.3409 175.293 49.7098 175.39 50.0838 175.39C50.4579 175.39 50.8268 175.293 51.1614 175.105C51.7566 174.712 51.7566 174.089 51.1614 173.708C50.8282 173.515 50.4587 173.414 50.0838 173.414C49.7089 173.414 49.3395 173.515 49.0063 173.708Z" fill="black"/>
</g>
<path d="M38.99 184.372C38.8989 184.372 38.8094 184.346 38.7302 184.295C38.651 184.244 38.5849 184.172 38.5384 184.083C38.4747 183.95 38.4593 183.793 38.4957 183.647C38.532 183.501 38.6172 183.376 38.7334 183.299L40.3447 182.248C40.4634 182.172 40.604 182.151 40.7364 182.19C40.8687 182.229 40.9823 182.324 41.0528 182.456C41.0871 182.522 41.1093 182.594 41.1181 182.67C41.1268 182.745 41.1219 182.822 41.1037 182.895C41.0855 182.968 41.0544 183.037 41.0121 183.096C40.9699 183.156 40.9174 183.205 40.8578 183.241L39.2466 184.291C39.1695 184.345 39.0806 184.373 38.99 184.372Z" fill="#90CAF9"/>
<path d="M38.9899 184.949C38.7178 184.949 38.4567 184.827 38.2643 184.611C38.0718 184.394 37.9637 184.101 37.9637 183.795V165.768C37.9637 165.462 38.0718 165.168 38.2643 164.952C38.4567 164.735 38.7178 164.614 38.9899 164.614C39.2621 164.614 39.5232 164.735 39.7156 164.952C39.9081 165.168 40.0162 165.462 40.0162 165.768V183.795C40.0162 184.101 39.9081 184.394 39.7156 184.611C39.5232 184.827 39.2621 184.949 38.9899 184.949Z" fill="#90CAF9"/>
<g opacity="0.2">
<path d="M38.99 184.372C38.8989 184.372 38.8094 184.346 38.7302 184.295C38.651 184.244 38.5849 184.171 38.5384 184.083C38.4747 183.949 38.4593 183.793 38.4957 183.647C38.532 183.501 38.6172 183.376 38.7334 183.299L40.3447 182.248C40.4634 182.172 40.604 182.151 40.7364 182.19C40.8687 182.229 40.9823 182.324 41.0528 182.456C41.0871 182.522 41.1093 182.594 41.1181 182.67C41.1268 182.745 41.1219 182.822 41.1037 182.895C41.0855 182.968 41.0544 183.037 41.0121 183.096C40.9699 183.156 40.9174 183.205 40.8578 183.241L39.2466 184.291C39.1695 184.345 39.0806 184.373 38.99 184.372Z" fill="black"/>
<path d="M38.9899 184.949C38.7178 184.949 38.4567 184.827 38.2643 184.611C38.0718 184.394 37.9637 184.101 37.9637 183.795V165.768C37.9637 165.462 38.0718 165.168 38.2643 164.952C38.4567 164.735 38.7178 164.614 38.9899 164.614C39.2621 164.614 39.5232 164.735 39.7156 164.952C39.9081 165.168 40.0162 165.462 40.0162 165.768V183.795C40.0162 184.101 39.9081 184.394 39.7156 184.611C39.5232 184.827 39.2621 184.949 38.9899 184.949Z" fill="black"/>
</g>
<path d="M66.7606 182.329C66.401 182.332 66.0471 182.228 65.7343 182.029L63.3329 180.471C63.2742 180.434 63.2227 180.384 63.1814 180.324C63.1402 180.264 63.1101 180.196 63.0929 180.123C63.0756 180.049 63.0716 179.973 63.0811 179.898C63.0906 179.823 63.1134 179.751 63.1481 179.686C63.2169 179.556 63.3278 179.46 63.4579 179.419C63.5879 179.378 63.727 179.395 63.846 179.467L66.2474 181.025C66.3918 181.122 66.5567 181.172 66.7247 181.172C66.8926 181.172 67.0575 181.122 67.2019 181.025L87.0909 168.226C87.1495 168.188 87.2142 168.164 87.2812 168.154C87.3483 168.144 87.4164 168.149 87.4817 168.169C87.5469 168.189 87.6081 168.223 87.6617 168.269C87.7152 168.316 87.7602 168.374 87.7938 168.44C87.8275 168.506 87.8494 168.578 87.858 168.654C87.8667 168.729 87.8621 168.806 87.8445 168.879C87.8269 168.953 87.7966 169.021 87.7553 169.082C87.714 169.142 87.6626 169.192 87.604 169.23L67.7458 182.029C67.4465 182.225 67.1067 182.328 66.7606 182.329Z" fill="#F0F0F0"/>
<path d="M51.2436 162.721C51.2456 163.351 51.0812 163.968 50.7712 164.494C50.4612 165.019 50.0196 165.429 49.5022 165.672C48.9848 165.915 48.4149 165.98 47.8648 165.858C47.3147 165.736 46.809 165.434 46.4119 164.989C46.0147 164.544 45.7439 163.976 45.6338 163.358C45.5237 162.74 45.5792 162.099 45.7932 161.516C46.0073 160.934 46.3704 160.435 46.8364 160.085C47.3024 159.734 47.8504 159.547 48.4111 159.547C49.1605 159.547 49.8794 159.881 50.4103 160.476C50.9412 161.071 51.2409 161.878 51.2436 162.721Z" fill="#90CAF9"/>
<path d="M48.4111 154.342C47.0621 154.343 45.7386 154.756 44.5819 155.536C43.4251 156.317 42.4785 157.436 41.843 158.774C41.7203 159.033 41.6829 159.333 41.7373 159.62C41.7918 159.907 41.9346 160.163 42.1406 160.344C42.2662 160.454 42.4117 160.533 42.5671 160.574C42.7225 160.615 42.8839 160.618 43.0402 160.581C43.1965 160.545 43.3439 160.471 43.4721 160.364C43.6003 160.257 43.7063 160.12 43.7827 159.963C44.2242 159.015 44.8879 158.221 45.702 157.667C46.516 157.113 47.4494 156.82 48.4008 156.82C49.3523 156.82 50.2857 157.113 51.0997 157.667C51.9138 158.221 52.5775 159.015 53.019 159.963C53.0952 160.122 53.2015 160.261 53.3306 160.369C53.4597 160.477 53.6083 160.552 53.7659 160.588C53.9235 160.625 54.0863 160.621 54.2428 160.579C54.3993 160.537 54.5455 160.457 54.6713 160.344C54.8791 160.165 55.0232 159.908 55.0778 159.621C55.1323 159.333 55.0937 159.033 54.9689 158.774C54.3351 157.437 53.3903 156.318 52.2354 155.538C51.0804 154.757 49.7586 154.344 48.4111 154.342Z" fill="#90CAF9"/>
<path d="M48.411 149.264C46.4004 149.264 44.4224 149.836 42.6605 150.925C40.8987 152.015 39.4102 153.587 38.3331 155.496C38.1789 155.757 38.1166 156.073 38.1583 156.382C38.2001 156.692 38.3429 156.973 38.5589 157.17C38.6814 157.277 38.8225 157.354 38.9732 157.396C39.1239 157.438 39.2807 157.444 39.4336 157.414C39.5865 157.384 39.7319 157.317 39.8606 157.22C39.9892 157.122 40.0982 156.995 40.1804 156.847C41.0606 155.295 42.2743 154.019 43.7092 153.134C45.1441 152.25 46.7541 151.786 48.3905 151.786C50.0269 151.786 51.6369 152.25 53.0718 153.134C54.5067 154.019 55.7204 155.295 56.6006 156.847C56.6818 156.995 56.7898 157.121 56.9175 157.219C57.0453 157.317 57.1899 157.383 57.342 157.413C57.494 157.444 57.6501 157.438 57.8 157.396C57.9499 157.354 58.0902 157.277 58.2118 157.17C58.4295 156.974 58.5743 156.694 58.618 156.385C58.6616 156.075 58.601 155.758 58.4479 155.496C57.3745 153.594 55.8925 152.026 54.1385 150.936C52.3844 149.847 50.4147 149.272 48.411 149.264Z" fill="#90CAF9"/>
<path d="M66.5657 142.836C59.4434 138.347 44.4086 126.286 38.6 121.035C37.2658 119.823 35.5212 119.096 34.6078 114.388C33.9921 111.179 26.7877 83.9541 25.4844 74.1789C24.2118 64.623 28.0705 61.4839 31.3443 59.0488C36.0343 63.215 36.2088 68.3739 38.3229 77.1104C40.6525 86.7009 45.8557 110.718 45.8557 110.718C45.8557 110.718 52.7008 118.358 60.4902 126.875C64.2668 131.018 68.7003 134.434 72.4359 134.884C75.4326 135.254 80.7589 135.484 81.898 136.673C83.0372 137.862 86.3315 143.979 87.3988 145.906C88.4661 147.833 87.758 152.553 84.32 152.83C80.882 153.107 79.4247 150.349 77.9879 148.641C77.2011 147.677 76.3314 146.804 75.3915 146.033C75.3915 146.033 71.8098 146.264 69.7778 144.879C67.7458 143.494 66.5657 142.836 66.5657 142.836Z" fill="#FFA8A7"/>
<path d="M119.9 91.1557C116.362 89.8865 112.56 89.8865 109.022 91.1557C106.077 92.4252 106.077 94.468 109.022 95.7721C112.56 97.0413 116.362 97.0413 119.9 95.7721C122.959 94.491 122.959 92.4252 119.9 91.1557Z" fill="#E0E0E0"/>
<path d="M122.435 85.593H106.569L107.77 106.621C107.842 107.382 108.478 108.132 109.689 108.721C112.767 109.968 116.135 109.968 119.213 108.721C120.465 108.132 121.122 107.382 121.194 106.621L122.435 85.593Z" fill="#90CAF9"/>
<path d="M106.569 85.6161L106.816 89.8862C107.231 90.2029 107.675 90.4698 108.14 90.6825C112.233 92.2868 116.689 92.2868 120.783 90.6825L121.204 90.4633C121.558 90.2816 121.901 90.0734 122.23 89.8401L122.466 85.593L106.569 85.6161Z" fill="#90CAF9"/>
<path opacity="0.1" d="M106.569 85.6161L106.816 89.8862C107.231 90.2029 107.675 90.4698 108.14 90.6825C112.233 92.2868 116.689 92.2868 120.783 90.6825L121.204 90.4633C121.558 90.2816 121.901 90.0734 122.23 89.8401L122.466 85.593L106.569 85.6161Z" fill="black"/>
<path d="M123.441 86.2162V82.9501H121.625C121.378 82.8116 121.101 82.6731 120.814 82.5346C116.718 80.9421 112.266 80.9421 108.17 82.5346C107.883 82.6731 107.626 82.8116 107.39 82.9501H105.594V86.17C105.594 87.2202 106.457 88.2705 108.17 89.0668C112.266 90.6593 116.718 90.6593 120.814 89.0668C122.548 88.3051 123.441 87.2664 123.441 86.2162Z" fill="#90CAF9"/>
<g opacity="0.3">
<path d="M123.441 86.2162V82.9501H121.625C121.378 82.8116 121.101 82.6731 120.814 82.5346C116.718 80.9421 112.266 80.9421 108.17 82.5346C107.883 82.6731 107.626 82.8116 107.39 82.9501H105.594V86.17C105.594 87.2202 106.457 88.2705 108.17 89.0668C112.266 90.6593 116.718 90.6593 120.814 89.0668C122.548 88.3051 123.441 87.2664 123.441 86.2162Z" fill="white"/>
</g>
<path d="M120.783 80.111C116.689 78.5068 112.233 78.5068 108.139 80.111C104.712 81.7037 104.712 84.3004 108.139 85.8815C112.233 87.4858 116.689 87.4858 120.783 85.8815C124.323 84.3004 124.323 81.7037 120.783 80.111Z" fill="#90CAF9"/>
<path opacity="0.1" d="M120.783 80.111C116.689 78.5068 112.233 78.5068 108.139 80.111C104.712 81.7037 104.712 84.3004 108.139 85.8815C112.233 87.4858 116.689 87.4858 120.783 85.8815C124.323 84.3004 124.323 81.7037 120.783 80.111Z" fill="white"/>
<path d="M119.223 80.4918C116.129 79.4073 112.814 79.4073 109.72 80.4918C107.134 81.5882 107.134 83.354 109.72 84.4504C112.813 85.5467 116.13 85.5467 119.223 84.4504C121.891 83.354 121.891 81.5882 119.223 80.4918Z" fill="#90CAF9"/>
<path opacity="0.3" d="M119.223 80.4918C116.129 79.4073 112.814 79.4073 109.72 80.4918C107.134 81.5882 107.134 83.354 109.72 84.4504C112.813 85.5467 116.13 85.5467 119.223 84.4504C121.891 83.354 121.891 81.5882 119.223 80.4918Z" fill="white"/>
<path d="M121.163 82.0961L120.444 79.1647H108.56L107.842 82.0961H121.163Z" fill="#90CAF9"/>
<path opacity="0.3" d="M121.163 82.0961L120.444 79.1647H108.56L107.842 82.0961H121.163Z" fill="white"/>
<path d="M118.7 77.6643C115.947 76.6951 112.996 76.6951 110.243 77.6643C107.955 78.6338 107.955 80.2033 110.243 81.1843C112.996 82.1535 115.947 82.1535 118.7 81.1843C121.07 80.2033 121.07 78.6338 118.7 77.6643Z" fill="#90CAF9"/>
<path opacity="0.1" d="M119.654 79.4186C119.654 79.4186 119.593 79.5802 119.398 79.7533C119.084 79.9978 118.737 80.1848 118.371 80.3073C117.086 80.7784 115.741 81.0085 114.39 80.9882C113.062 81.0164 111.74 80.7901 110.479 80.3188C110.143 80.1883 109.828 79.9973 109.546 79.7533C109.351 79.5802 109.299 79.4532 109.299 79.4186C109.299 79.384 109.505 78.9454 110.479 78.5299C111.74 78.0587 113.062 77.8323 114.39 77.8606C115.74 77.8365 117.086 78.0627 118.371 78.5299C119.408 78.9339 119.654 79.3378 119.654 79.4186Z" fill="#90CAF9"/>
<path opacity="0.1" d="M119.654 79.4186C119.654 79.4186 119.593 79.5802 119.398 79.7533C119.084 79.9978 118.737 80.1848 118.371 80.3073C117.086 80.7784 115.741 81.0085 114.39 80.9882C113.062 81.0164 111.74 80.7901 110.479 80.3188C110.143 80.1883 109.828 79.9973 109.546 79.7533C109.351 79.5802 109.299 79.4532 109.299 79.4186C109.299 79.384 109.505 78.9454 110.479 78.5299C111.74 78.0587 113.062 77.8323 114.39 77.8606C115.74 77.8365 117.086 78.0627 118.371 78.5299C119.408 78.9339 119.654 79.3378 119.654 79.4186Z" fill="black"/>
<path d="M119.398 79.7532C119.084 79.9977 118.737 80.1847 118.371 80.3072C117.086 80.7784 115.741 81.0084 114.389 80.9881C113.062 81.0164 111.739 80.79 110.479 80.3187C110.143 80.1882 109.828 79.9972 109.545 79.7532C109.829 79.514 110.144 79.327 110.479 79.1993C111.739 78.728 113.062 78.5016 114.389 78.5299C115.74 78.5059 117.086 78.732 118.371 79.1993C118.737 79.3218 119.084 79.5087 119.398 79.7532Z" fill="#90CAF9"/>
<path d="M117.017 79.8109C117.153 79.7097 117.305 79.6402 117.466 79.6065C117.626 79.5729 117.791 79.5756 117.95 79.6148C118.125 79.7302 117.95 79.9956 117.643 80.2149C117.506 80.3202 117.352 80.393 117.19 80.4287C117.027 80.4644 116.86 80.4624 116.698 80.4226C116.493 80.3072 116.668 80.0418 117.017 79.8109Z" fill="#90CAF9"/>
<path opacity="0.1" d="M117.017 79.8109C117.153 79.7097 117.305 79.6402 117.466 79.6065C117.626 79.5729 117.791 79.5756 117.95 79.6148C118.125 79.7302 117.95 79.9956 117.643 80.2149C117.506 80.3202 117.352 80.393 117.19 80.4287C117.027 80.4644 116.86 80.4624 116.698 80.4226C116.493 80.3072 116.668 80.0418 117.017 79.8109Z" fill="black"/>
<path d="M107.257 101.07C107.257 101.843 107.955 102.628 109.31 103.228C112.648 104.419 116.233 104.419 119.572 103.228C121.009 102.628 121.727 101.854 121.727 101.07L122.179 93.4525C122.179 94.272 121.409 95.1029 119.88 95.7607C116.342 97.03 112.54 97.03 109.002 95.7607C107.524 95.126 106.785 94.295 106.785 93.4525L107.257 101.07Z" fill="#90CAF9"/>
<path opacity="0.4" d="M107.257 101.07C107.257 101.843 107.955 102.628 109.31 103.228C112.648 104.419 116.233 104.419 119.572 103.228C121.009 102.628 121.727 101.854 121.727 101.07L122.179 93.4525C122.179 94.272 121.409 95.1029 119.88 95.7607C116.342 97.03 112.54 97.03 109.002 95.7607C107.524 95.126 106.785 94.295 106.785 93.4525L107.257 101.07Z" fill="white"/>
<path d="M113.538 101.519C113.312 101.103 113.109 100.672 112.932 100.227C112.542 99.4227 111.914 98.7979 111.157 98.4611C111.106 98.4441 111.051 98.4461 111.001 98.4669C110.951 98.4877 110.908 98.5262 110.88 98.5765C110.733 99.0965 110.715 99.6519 110.829 100.182C110.942 100.713 111.183 101.198 111.524 101.586C111.866 101.973 112.295 102.248 112.766 102.381C113.237 102.514 113.731 102.499 114.194 102.339C114.194 102.339 114.246 102.223 114.194 102.2C113.939 102.022 113.716 101.791 113.538 101.519Z" fill="#90CAF9"/>
<path d="M111.588 98.2303C111.997 98.4084 112.373 98.6706 112.696 99.0035C113.04 99.3468 113.316 99.7675 113.507 100.238C113.725 100.838 114.079 101.363 114.533 101.762C114.556 101.782 114.583 101.796 114.611 101.804C114.64 101.811 114.669 101.813 114.698 101.807C114.727 101.802 114.754 101.79 114.779 101.772C114.803 101.754 114.825 101.731 114.841 101.704C115.087 101.179 115.167 100.576 115.068 99.9929C114.969 99.4101 114.697 98.8822 114.297 98.4957C113.965 98.072 113.523 97.7762 113.033 97.6499C112.543 97.5236 112.03 97.5732 111.567 97.7917C111.531 97.8134 111.501 97.8463 111.481 97.8864C111.461 97.9265 111.451 97.9723 111.453 98.0184C111.455 98.0644 111.469 98.1088 111.493 98.1463C111.517 98.1839 111.55 98.213 111.588 98.2303Z" fill="#EA9B7A"/>
</svg>
