<svg width="255" height="317" viewBox="0 0 255 317" fill="none" xmlns="http://www.w3.org/2000/svg">
<path d="M123.67 317C191.97 317 247.339 312.892 247.339 307.825C247.339 302.757 191.97 298.65 123.67 298.65C55.3688 298.65 0 302.757 0 307.825C0 312.892 55.3688 317 123.67 317Z" fill="#CED3E6"/>
<path d="M172.145 312.123C133.513 310.411 93.5506 303.762 72.8625 213.993C66.7095 187.306 70.7085 167.101 77.4609 151.868C79.1279 148.101 80.9635 144.653 82.8553 141.477C83.5671 140.272 84.2882 139.115 85.0094 138.005C100.106 114.659 125.421 106.287 147.87 116.608C160.457 122.394 176.603 130.943 190.997 142.067C219.917 164.421 226.707 189.892 236.157 233.607C236.972 237.363 237.777 241.566 238.395 246.042C238.723 248.427 238.995 250.895 239.182 253.399C241.28 281.35 232.729 314.803 172.145 312.111V312.123Z" fill="#39393B"/>
<path d="M239.182 253.399C237.899 257.945 236.073 262.574 233.638 266.967C226.333 280.169 211.114 296.11 180.133 297.15C178.766 297.197 177.427 297.22 176.097 297.22C164.259 297.22 153.817 295.414 144.273 291.741C134.29 287.903 125.58 282.094 117.638 274.016C104.368 260.507 93.4195 240.752 82.1717 209.967C77.7231 197.804 75.4192 185.476 75.3256 173.325C75.2694 166.086 75.9811 158.894 77.4702 151.88C79.1373 148.113 80.9729 144.665 82.8647 141.488C82.3871 142.882 81.9188 144.346 81.4786 145.87C77.4328 159.863 74.6419 182.134 84.3538 208.703C104.105 262.751 127.004 295.886 180.077 294.138C210.065 293.146 224.694 277.878 231.68 265.254C235.333 258.665 237.393 251.993 238.405 246.054C238.732 248.439 239.004 250.907 239.191 253.41L239.182 253.399Z" fill="#585859"/>
<path d="M183.917 87.736C183.917 87.736 208.173 129.231 213.708 149.908C219.243 170.585 205.813 185.263 205.813 185.263L193.339 191.168C193.339 191.168 180.517 118.179 183.917 87.7478V87.736Z" fill="#2BD7CC"/>
<path d="M181.782 203.98C171.18 208.408 145.275 220.028 134.028 215.328C133.55 215.127 133.11 214.903 132.688 214.643C131.462 213.887 130.478 212.872 129.785 211.549C125.374 203.082 121 167.55 122.967 146.673C123.211 144.063 123.332 141.229 123.37 138.253C123.426 133.872 123.314 129.184 123.164 124.472C122.611 106.736 120.392 94.4904 126.414 90.1802C131.817 86.307 138.654 83.284 143.009 81.9732C145.706 81.1584 150.127 79.458 153.227 79.5289L166.638 82.5991C166.638 82.5991 178.213 85.0317 180.883 87.5233C183.552 90.0031 184.919 100.95 189.742 110.975C194.565 121.001 195.614 131.062 191.007 142.067C186.998 151.644 187.701 148.007 187.176 163.712C186.53 182.96 202.479 195.324 181.782 203.968V203.98Z" fill="white"/>
<g opacity="0.8">
<path d="M146.165 113.798C146.165 113.798 160.7 109.062 179.253 113.432L179.703 129.598C179.703 129.598 159.305 126.74 146.456 130.861L146.165 113.798Z" fill="#CED3E6"/>
</g>
<g opacity="0.8">
<path d="M162.864 100.147C162.667 100.147 162.47 100.147 162.264 100.123C154.322 99.6035 147.036 90.7707 146.736 90.3928C146.521 90.133 146.521 89.6961 146.727 89.4245C146.933 89.1529 147.28 89.1529 147.495 89.4127C147.57 89.4954 154.791 98.2692 162.32 98.7533C169.532 99.2375 170.403 90.2157 170.44 89.826C170.478 89.4481 170.74 89.1765 171.04 89.2238C171.339 89.2592 171.555 89.6016 171.517 89.9795C171.517 90.0858 170.562 100.147 162.864 100.147Z" fill="#CED3E6"/>
</g>
<g opacity="0.8">
<path d="M140.359 181.071C140.302 181.012 140.256 180.953 140.209 180.87C140.05 180.528 140.134 180.091 140.396 179.89C150.726 172.002 160.635 169.227 167.125 168.282C174.177 167.255 178.719 168.081 178.906 168.117C179.215 168.176 179.431 168.542 179.384 168.932C179.337 169.321 179.047 169.593 178.738 169.534C178.691 169.534 174.121 168.695 167.209 169.711C160.841 170.644 151.11 173.383 140.977 181.118C140.771 181.272 140.527 181.248 140.349 181.083L140.359 181.071Z" fill="#CED3E6"/>
</g>
<path d="M153.854 210.415C144.311 206.601 135.676 198.926 129.785 192.088C129.317 191.545 128.867 191.014 128.437 190.483C125.383 186.739 123.229 188.664 122.293 186.515C118.725 178.284 120.748 145.988 122.293 134.12C123.838 122.264 117.348 100.536 120.841 92.7663C124.334 84.9963 136.369 82.2803 136.369 82.2803C136.369 82.2803 134.664 79.7769 137.896 76.9074C141.127 74.0379 149.724 75.2306 149.724 75.2306C150.136 126.563 155.905 174.246 153.854 210.415Z" fill="#2BD7CC"/>
<path d="M144.47 195.702C144.208 195.702 143.983 195.466 143.946 195.135C139.6 159.532 143.899 92.5538 143.946 91.8807C143.974 91.5146 144.227 91.243 144.517 91.2666C144.807 91.3021 145.032 91.6209 145.004 91.987C144.957 92.66 140.677 159.473 145.004 194.923C145.051 195.289 144.845 195.631 144.554 195.69C144.526 195.69 144.498 195.69 144.47 195.69V195.702Z" fill="white"/>
<path d="M153.208 201.039C152.955 201.039 152.73 200.815 152.683 200.484C146.999 159.591 146.549 89.0228 146.549 88.3142C146.549 87.9482 146.783 87.6411 147.074 87.6411C147.364 87.6411 147.607 87.9364 147.607 88.3024C147.607 89.0109 148.066 159.461 153.732 200.248C153.779 200.614 153.592 200.957 153.302 201.027C153.273 201.027 153.236 201.027 153.208 201.027V201.039Z" fill="#0A3E95"/>
<path d="M143.777 87.901C143.777 87.901 143.683 87.901 143.637 87.8774C139.141 86.3659 136.388 83.0241 136.266 82.8824C136.06 82.6226 136.051 82.1975 136.266 81.9377C136.472 81.6779 136.809 81.6661 137.015 81.9377C137.015 81.9377 139.694 85.185 143.908 86.6021C144.189 86.6965 144.358 87.0626 144.283 87.4287C144.217 87.7239 144.002 87.9246 143.768 87.9246L143.777 87.901Z" fill="#0A3E95"/>
<path d="M195.202 188.003C195.202 188.003 191.803 202.445 179.141 209.329C177.567 170.172 174.008 125.453 169.41 77.8875C169.41 77.8875 174.252 76.813 176.265 80.3083C177.136 81.808 177.324 84.3586 177.324 84.3586C177.324 84.3586 179.796 84.9609 182.503 86.555C185.209 88.1492 184.9 90.3338 185.547 95.8838C186.193 101.434 192.992 110.019 195.202 121.65C197.412 133.282 191.55 140.697 189.723 150.463C187.897 160.217 195.202 188.026 195.202 188.026V188.003Z" fill="#2BD7CC"/>
<path d="M184.329 194.061C184.039 194.061 183.805 193.777 183.795 193.411C182.568 140.142 174.851 92.542 174.776 92.0697C174.72 91.7036 174.898 91.3494 175.188 91.2785C175.479 91.2077 175.76 91.432 175.816 91.7981C175.891 92.2704 183.627 139.977 184.853 193.376C184.853 193.742 184.629 194.061 184.338 194.061C184.338 194.061 184.329 194.061 184.32 194.061H184.329Z" fill="white"/>
<path d="M172.679 89.3773C172.426 89.3773 172.201 89.1411 172.154 88.8223C172.107 88.4562 172.304 88.1137 172.585 88.0429C172.622 88.0429 176.031 87.2517 176.809 84.1461C176.893 83.7918 177.193 83.591 177.474 83.7091C177.755 83.8154 177.904 84.1933 177.82 84.5476C176.837 88.4444 172.922 89.33 172.763 89.3655C172.735 89.3655 172.707 89.3655 172.669 89.3655L172.679 89.3773Z" fill="#0A3E95"/>
<path d="M183.093 194.061C182.831 194.061 182.596 193.813 182.568 193.47C178.822 154.195 172.903 91.4322 172.847 90.8064C172.81 90.4403 173.025 90.1097 173.315 90.0624C173.606 90.0152 173.868 90.2868 173.905 90.6529C173.962 91.2787 179.88 154.053 183.627 193.317C183.664 193.683 183.458 194.014 183.158 194.061C183.14 194.061 183.112 194.061 183.093 194.061Z" fill="#0A3E95"/>
<path d="M151.635 222.259C153.255 223.724 155.802 225.247 159.633 226.782C181.36 235.497 201.28 221.433 201.28 221.433C202.488 213.934 201.739 205.409 199.735 202.291C200.362 201.181 199.95 199.859 199.95 199.859L219.945 173.691C208.576 185.57 194.509 189.455 183.561 197.804C180.405 200.213 177.567 202.327 175.488 203.791C172.313 206.034 168.267 206.259 164.297 205.562C156.561 204.216 149.143 199.41 149.143 199.41C149.143 199.41 124.241 185.18 119.577 185.653C115.943 186.019 135.479 211.738 151.635 222.271V222.259Z" fill="#21B573"/>
<path d="M190.117 244.188C190.117 244.188 183.711 241.862 181.735 239.24L177.277 252.466L192.439 258.429C192.439 258.429 192.655 246.809 190.107 244.188H190.117Z" fill="#EA9B7A"/>
<path d="M226.707 282.401L207.106 227.55C206.375 227.479 205.457 227.727 204.427 228.199C200.625 229.947 195.277 234.765 191.84 237.587C191.437 237.918 191.063 238.225 190.716 238.496C190.136 238.945 189.639 239.299 189.264 239.524C186.239 241.236 187.832 243.29 187.832 243.29C193.47 246.845 190.032 257.378 193.47 259.834C193.47 259.834 194.931 260.909 199.595 263.495C204.258 266.081 208.951 272.328 213.296 277.441C218.906 284.054 222.427 284.821 224.441 284.219C226.042 283.735 226.698 282.401 226.698 282.401H226.707Z" fill="#EBB12B"/>
<path d="M226.707 282.401L207.106 227.55C206.375 227.479 205.457 227.727 204.427 228.199L224.441 284.219C226.042 283.735 226.698 282.401 226.698 282.401H226.707Z" fill="#C77E2E"/>
<path d="M209.11 233.147L208.529 231.517C207.639 233.985 205.916 236.784 202.62 238.425C198.227 240.598 194.163 238.992 191.849 237.599C191.447 237.929 191.072 238.236 190.726 238.508C193.076 240.102 197.768 242.369 203.032 239.772C206.188 238.213 208.033 235.627 209.11 233.159V233.147Z" fill="#C77E2E"/>
<path d="M201.833 261.11C201.692 260.708 201.336 260.46 200.971 260.543C200.54 260.638 200.259 261.157 200.334 261.7L200.887 265.514C200.962 266.058 201.374 266.412 201.805 266.318C202.236 266.223 202.517 265.703 202.442 265.16L201.889 261.346C201.88 261.263 201.861 261.193 201.833 261.11Z" fill="white"/>
<path d="M198.358 258.984C198.218 258.583 197.862 258.335 197.497 258.417C197.066 258.512 196.785 259.031 196.86 259.575L197.412 263.389C197.487 263.932 197.899 264.286 198.33 264.192C198.761 264.097 199.042 263.578 198.967 263.035L198.414 259.22C198.405 259.138 198.386 259.067 198.358 258.984Z" fill="white"/>
<path d="M204.642 263.637C204.502 263.235 204.146 262.987 203.781 263.07C203.35 263.164 203.069 263.684 203.144 264.227L203.697 268.041C203.771 268.584 204.184 268.939 204.614 268.844C205.045 268.75 205.326 268.23 205.251 267.687L204.699 263.873C204.689 263.79 204.671 263.719 204.642 263.637Z" fill="white"/>
<path d="M207.386 266.199C207.246 265.798 206.89 265.55 206.525 265.632C206.094 265.727 205.813 266.246 205.888 266.79L206.441 270.604C206.516 271.147 206.928 271.501 207.358 271.407C207.789 271.312 208.07 270.793 207.995 270.25L207.443 266.435C207.433 266.353 207.415 266.282 207.386 266.199Z" fill="white"/>
<path d="M210.121 269.14C209.981 268.738 209.625 268.49 209.26 268.573C208.829 268.668 208.548 269.187 208.623 269.73L209.175 273.544C209.25 274.088 209.662 274.442 210.093 274.347C210.524 274.253 210.805 273.733 210.73 273.19L210.177 269.376C210.168 269.293 210.149 269.223 210.121 269.14Z" fill="white"/>
<path d="M212.772 272.517C212.631 272.115 212.275 271.867 211.91 271.95C211.479 272.044 211.198 272.564 211.273 273.107L211.826 276.921C211.901 277.464 212.313 277.819 212.743 277.724C213.174 277.63 213.455 277.11 213.38 276.567L212.828 272.753C212.818 272.67 212.8 272.599 212.772 272.517Z" fill="white"/>
<path d="M119.577 185.641C119.577 185.641 103.815 174.919 94.6931 183.208C78.0041 198.371 106.325 227.526 138.729 241.767C171.133 256.008 181.65 254.06 181.65 254.06C181.65 254.06 188.693 251.616 186.193 237.233C186.193 237.233 167.518 228.282 157.797 218.906C148.076 209.53 141.454 198.04 119.586 185.641H119.577Z" fill="#61A9CD"/>
<path d="M184.919 241.425C178.12 239.37 164.278 231.352 147.879 220.004C135.61 211.514 121.469 200.661 119.39 196.895C118.266 194.863 117.985 193.198 118.547 191.947C119.39 190.081 121.825 189.892 122.93 189.904C123.211 189.904 123.435 190.211 123.417 190.565C123.398 190.896 123.183 191.144 122.92 191.144C121.834 191.144 119.933 191.368 119.399 192.561C118.949 193.553 119.586 195.076 120.195 196.174C121.871 199.209 133.709 208.774 148.347 218.906C160.953 227.632 177.239 237.811 185.144 240.208L184.91 241.413L184.919 241.425Z" fill="#263238"/>
<path d="M183.645 235.332C182.877 242.889 181.323 249.762 177.942 255.04C177.942 255.04 180.845 257.673 183.495 255.784C185.518 254.343 189.424 242.535 187.935 236.229C186.24 235.06 184.779 234.658 183.655 235.332H183.645Z" fill="#263238"/>
<path d="M142.522 242.7C142.522 242.7 148.965 241.13 150.792 238.343L155.933 251.155L141.127 258.382C141.127 258.382 140.134 245.522 142.531 242.688L142.522 242.7Z" fill="#EA9B7A"/>
<path d="M108.207 285.188L124.859 228.813C125.59 228.672 126.507 228.849 127.566 229.238C131.452 230.667 137.043 235.013 140.621 237.552C141.042 237.847 141.426 238.119 141.792 238.355C142.4 238.756 142.906 239.075 143.299 239.252C146.409 240.705 145.116 241.815 145.116 241.815C138.991 245.44 143.477 257.13 140.181 259.882C140.181 259.882 138.776 261.074 134.262 264.05C129.748 267.026 125.393 273.651 121.328 279.118C116.084 286.18 112.609 287.254 110.567 286.817C108.947 286.475 108.217 285.188 108.217 285.188H108.207Z" fill="#EBB12B"/>
<path d="M108.207 285.188L124.859 228.813C125.59 228.672 126.507 228.849 127.566 229.238L110.558 286.817C108.938 286.475 108.207 285.188 108.207 285.188Z" fill="#C77E2E"/>
<path d="M123.164 234.564L123.66 232.887C124.681 235.272 126.545 237.929 129.926 239.276C134.421 241.082 138.392 239.134 140.63 237.54C141.052 237.835 141.436 238.106 141.801 238.343C139.544 240.138 134.974 242.795 129.589 240.634C126.358 239.335 124.381 236.914 123.173 234.552L123.164 234.564Z" fill="#C77E2E"/>
<path d="M131.892 261.854C132.014 261.44 132.351 261.157 132.717 261.216C133.147 261.275 133.456 261.771 133.41 262.314L133.063 266.164C133.016 266.707 132.623 267.097 132.192 267.038C131.761 266.979 131.452 266.483 131.499 265.939L131.846 262.09C131.846 262.007 131.864 261.924 131.892 261.854Z" fill="white"/>
<path d="M135.255 259.445C135.376 259.031 135.713 258.748 136.079 258.807C136.51 258.866 136.819 259.362 136.772 259.905L136.425 263.755C136.378 264.298 135.985 264.688 135.554 264.629C135.123 264.57 134.814 264.074 134.861 263.531L135.208 259.681C135.208 259.598 135.226 259.516 135.255 259.445Z" fill="white"/>
<path d="M129.233 264.605C129.354 264.192 129.692 263.92 130.057 263.967C130.488 264.026 130.797 264.522 130.75 265.066L130.403 268.915C130.357 269.458 129.963 269.848 129.532 269.789C129.102 269.73 128.793 269.234 128.839 268.691L129.186 264.841C129.186 264.758 129.205 264.676 129.233 264.605Z" fill="white"/>
<path d="M126.629 267.404C126.751 266.99 127.088 266.719 127.453 266.766C127.884 266.825 128.193 267.321 128.146 267.864L127.8 271.714C127.753 272.257 127.36 272.647 126.929 272.588C126.498 272.529 126.189 272.033 126.236 271.49L126.582 267.64C126.582 267.557 126.601 267.475 126.629 267.404Z" fill="white"/>
<path d="M124.054 270.557C124.175 270.143 124.513 269.872 124.878 269.919C125.309 269.978 125.618 270.474 125.571 271.017L125.224 274.867C125.178 275.41 124.784 275.8 124.353 275.74C123.923 275.681 123.614 275.185 123.66 274.642L124.007 270.793C124.007 270.71 124.026 270.627 124.054 270.557Z" fill="white"/>
<path d="M121.591 274.146C121.712 273.733 122.049 273.45 122.415 273.509C122.845 273.568 123.155 274.064 123.108 274.607L122.761 278.457C122.714 279 122.321 279.389 121.89 279.33C121.459 279.271 121.15 278.775 121.197 278.232L121.544 274.383C121.544 274.3 121.562 274.217 121.591 274.146Z" fill="white"/>
<path d="M213.53 176.938C213.53 176.938 228.44 164.433 238.133 171.636C255.862 184.803 229.779 217.111 198.546 235.036C167.322 252.962 156.701 252.242 156.701 252.242C156.701 252.242 149.518 250.624 150.951 236.005C150.951 236.005 168.895 224.928 177.895 214.466C186.886 204.003 192.646 191.793 213.53 176.926V176.938Z" fill="#7BA0D7"/>
<path d="M186.249 241.779C184.526 242.488 182.784 243.208 180.976 243.928C173.99 246.703 166.01 249.608 158.79 251.84L158.762 253.139C165.28 251.131 172.941 248.415 181.267 245.109C182.896 244.46 184.554 243.786 186.221 243.09L186.249 241.779Z" fill="#E0E0E0"/>
<path d="M152.515 240.031C159.136 237.197 172.341 227.62 187.841 214.418C199.435 204.546 212.734 192.1 214.523 188.109C215.488 185.96 215.656 184.271 215.001 183.09C214.027 181.331 211.592 181.413 210.487 181.555C210.206 181.591 210 181.921 210.046 182.275C210.093 182.594 210.318 182.819 210.58 182.795C211.667 182.665 213.568 182.677 214.195 183.799C214.71 184.732 214.195 186.326 213.671 187.495C212.228 190.707 201.131 201.594 187.289 213.391C175.376 223.535 159.895 235.556 152.197 238.862L152.515 240.043V240.031Z" fill="#E0E0E0"/>
<path d="M153.339 233.82C154.65 241.26 156.701 247.92 160.457 252.785C160.457 252.785 157.76 255.749 154.987 254.166C152.871 252.962 148.123 241.649 149.143 235.202C150.745 233.844 152.168 233.277 153.339 233.82Z" fill="#E0E0E0"/>
<path d="M151.325 174.163L150.127 195.737C150.127 195.737 129.776 192.077 119.792 188.865C116.889 187.932 113.621 186.727 110.624 184.72C105.107 181.024 100.537 174.588 100.874 162.047C100.977 158.021 101.595 153.368 102.85 147.96C110.118 116.631 122.293 90.3219 122.293 90.3219C137.961 98.7768 136.641 112.853 136.641 112.853C132.173 127.885 122.293 159.898 122.293 159.898C128.024 168.731 151.325 174.151 151.325 174.151V174.163Z" fill="#2BD7CC"/>
<path d="M122.293 160.583C122.199 160.583 122.096 160.548 122.012 160.477C120.279 159.131 115.569 157.726 115.522 157.714C115.231 157.631 115.053 157.265 115.128 156.911C115.194 156.545 115.484 156.332 115.765 156.415C115.934 156.462 119.24 157.442 121.422 158.623C121.103 157.726 120.579 156.769 119.858 155.73C119.661 155.447 119.689 155.033 119.905 154.785C120.129 154.537 120.457 154.573 120.654 154.844C121.909 156.639 122.621 158.269 122.817 159.816C122.855 160.076 122.761 160.335 122.593 160.477C122.499 160.548 122.396 160.595 122.293 160.595V160.583Z" fill="#0A3E95"/>
<path d="M110.633 184.732C105.117 181.036 100.546 174.6 100.884 162.059C105.248 164.941 112.862 171.919 110.633 184.732Z" fill="#0A3E95"/>
<path d="M138.532 170.857C138.532 170.857 138.448 170.857 138.401 170.833C128.324 167.55 122.199 160.701 121.946 160.406C121.768 160.205 121.722 159.875 121.825 159.603C129.008 141.784 133.559 127.637 136.135 115.073C136.21 114.719 136.5 114.494 136.781 114.589C137.062 114.683 137.24 115.049 137.165 115.404C134.59 127.956 130.075 142.044 122.958 159.733C124.316 161.15 130.085 166.736 138.664 169.522C138.945 169.617 139.122 169.983 139.048 170.337C138.982 170.644 138.767 170.845 138.532 170.845V170.857Z" fill="#0A3E95"/>
<path d="M134.496 125.075C134.384 125.075 134.262 125.028 134.168 124.933C133.934 124.697 133.897 124.284 134.084 123.988L137.821 118.072C138.008 117.777 138.336 117.73 138.57 117.966C138.804 118.202 138.842 118.615 138.654 118.911L134.917 124.827C134.814 124.992 134.655 125.075 134.505 125.075H134.496Z" fill="#0A3E95"/>
<path d="M151.916 70.684L169.991 73.9432C181.735 72.4671 185.472 66.5746 187.392 54.1283C188.356 47.8698 187.719 42.3433 186.773 38.2339C186.53 33.5577 185.678 29.5192 183.926 26.8505C175.994 14.7939 169.007 15.2662 169.007 15.2662C165.458 13.2115 153.732 11.8063 145.997 23.6503C145.753 23.9101 141.033 30.2159 139.947 43.4415C138.907 56.0531 145.585 72.1601 151.925 70.684H151.916Z" fill="#39393B"/>
<path d="M162.011 18.5848C162.011 18.5848 163.894 -2.43454 149.097 0.234206C139.432 1.97007 133.447 18.4903 142.288 25.9888C151.129 33.4872 162.011 18.5848 162.011 18.5848Z" fill="#39393B"/>
<path d="M143.777 28.1498C143.702 28.1498 143.627 28.1261 143.552 28.0789C143.327 27.9254 143.243 27.5593 143.365 27.2759C146.793 19.4232 151.681 15.9515 155.175 14.4164C158.968 12.7632 161.918 12.9639 162.039 12.9639C162.302 12.9875 162.498 13.2591 162.48 13.5898C162.461 13.9204 162.245 14.1684 161.983 14.1448C161.871 14.1448 150.455 13.4717 144.189 27.8427C144.105 28.0435 143.946 28.1498 143.777 28.1498Z" fill="#EBB12B"/>
<path d="M153.33 65.9491C153.33 65.9491 141.801 57.813 144.067 40.8794C146.334 23.9459 155.175 13.7551 168.726 18.6674C168.726 18.6674 167.415 67.6141 153.33 65.9491Z" fill="#39393B"/>
<path d="M185.397 34.8096C185.397 34.8096 186.577 49.346 184.47 51.4479C182.372 53.5498 180.311 47.799 180.311 47.799C180.311 47.799 183.177 34.9631 185.397 34.8096Z" fill="#39393B"/>
<path d="M180.087 52.7709C180.087 52.7709 183.524 48.9685 184.666 53.6329C185.809 58.2973 183.496 66.8822 179.216 64.6031L180.096 52.7709H180.087Z" fill="#D46A43"/>
<path d="M184.32 63.5398C183.851 64.083 183.327 64.5553 182.756 64.945C180.592 66.4093 177.773 66.5864 174.383 64.3428C174.383 64.3428 170.047 57.234 176.453 44.6933C176.453 44.6933 182.325 42.7448 185.687 47.2203C186.062 47.7163 186.399 48.2831 186.698 48.9443C186.886 49.3458 187.045 49.7827 187.195 50.2551C188.384 54.0693 187.279 60.1389 184.32 63.528V63.5398Z" fill="#21B573"/>
<path d="M184.17 45.6972C184.441 44.0204 184.713 41.9421 184.891 39.6394C184.807 39.6867 184.722 39.7221 184.629 39.7221C184.263 39.7575 183.907 39.5686 183.552 39.2379C183.392 41.3871 183.149 43.3355 182.905 44.9533L184.17 45.6854V45.6972Z" fill="white"/>
<path d="M184.32 63.5401C183.851 64.0833 183.327 64.5556 182.756 64.9453C185.724 57.1871 185.809 50.1019 185.687 47.2206C186.061 47.7166 186.399 48.2834 186.698 48.9447C186.698 52.2038 186.305 57.5531 184.32 63.5401Z" fill="#217C58"/>
<path d="M170.066 73.7424L168.651 85.7636C168.651 85.7636 162.817 95.1987 149.312 79.8121C150.848 74.9233 153.208 68.6293 152.599 63.8114C152.599 63.8114 153.582 64.9568 155.287 66.3148C155.634 66.5982 156.008 66.8934 156.401 67.1887C159.913 69.881 165.27 73.3173 170.075 73.7424H170.066Z" fill="#EA9B7A"/>
<path d="M170.066 73.7428L169.401 79.3637C165.458 77.4507 158.64 73.3059 155.278 66.3034C155.624 66.5868 155.999 66.882 156.392 67.1772C159.904 69.8696 165.261 73.3059 170.066 73.731V73.7428Z" fill="#39393B"/>
<path d="M183.018 53.3019C182.868 54.5418 182.728 55.7109 182.578 56.8209C181.491 65.1105 180.499 69.5742 178.672 71.3454C169.429 80.2846 153.133 64.4847 152.609 63.9769L152.599 63.9651C152.543 62.9968 152.506 62.0403 152.487 61.1074C152.271 53.1248 153.049 45.8979 154.491 39.1552C155.043 31.8693 159.249 25.7761 164.933 24.3118C170.824 22.8003 175.469 26.8388 178.345 28.5629C182.681 31.1844 184.666 39.1316 183.449 49.6885C183.299 50.952 183.158 52.1683 183.018 53.3019Z" fill="#EA9B7A"/>
<path d="M174.758 62.9614C169.588 62.9614 167.518 56.7265 167.499 56.6557C167.406 56.3486 167.518 56.0062 167.762 55.8881C168.005 55.77 168.277 55.9117 168.37 56.2187C168.464 56.4903 170.627 62.9614 176.265 61.5916C176.518 61.5326 176.762 61.7452 176.818 62.064C176.865 62.3828 176.696 62.6899 176.443 62.7607C175.844 62.9024 175.282 62.9733 174.758 62.9733V62.9614Z" fill="#39393B"/>
<path d="M170.777 40.4542C172.107 39.8756 171.836 37.4075 170.431 37.2895C168.043 37.1005 164.203 37.1714 163.884 39.604C163.416 43.1583 167.874 41.6823 170.693 40.4896C170.721 40.4778 170.749 40.466 170.777 40.4542Z" fill="#39393B"/>
<path d="M177.829 41.5053C176.799 40.3008 177.829 38.1752 179.159 38.7893C181.407 39.8285 184.9 41.8477 184.413 44.2331C183.711 47.7284 180.096 44.1032 177.895 41.5879C177.876 41.5643 177.848 41.5407 177.829 41.5171V41.5053Z" fill="#39393B"/>
<path d="M170.946 65.8663C171.892 66.1615 172.688 65.9372 172.744 65.9136C172.913 65.8663 173.016 65.6538 172.978 65.4412C172.941 65.2287 172.772 65.0988 172.604 65.146C172.604 65.146 171.04 65.5829 169.869 64.284C169.738 64.1423 169.541 64.1541 169.429 64.3194C169.316 64.4847 169.326 64.7327 169.457 64.8744C169.934 65.4176 170.468 65.701 170.955 65.8545L170.946 65.8663Z" fill="#D46A43"/>
<path d="M174.186 57.7655C174.102 57.7183 174.046 57.6238 174.008 57.5175C173.952 57.2932 174.046 57.0452 174.224 56.9743L176.481 56.0415L175.142 54.3292C175.067 54.2347 175.029 54.1048 175.048 53.9749L175.46 49.2633C175.479 49.0271 175.647 48.85 175.844 48.8854C176.031 48.9091 176.172 49.1216 176.144 49.3578L175.741 53.8569L177.352 55.9116C177.436 56.0178 177.474 56.1713 177.445 56.313C177.417 56.4547 177.333 56.5728 177.221 56.6201L174.439 57.7773C174.346 57.8127 174.261 57.8009 174.177 57.7537L174.186 57.7655Z" fill="#39393B"/>
<path d="M168.342 53.2666C168.23 54.2467 166.535 54.7308 164.568 54.3648C162.601 53.9987 161.094 52.9005 161.215 51.9204C161.328 50.9403 163.023 50.4561 164.99 50.8222C166.956 51.1883 168.464 52.2865 168.342 53.2666Z" fill="#D46A43"/>
<g opacity="0.8">
<path d="M183.018 54.4476C182.868 55.6875 182.728 56.8566 182.578 57.9666C180.78 57.5415 179.459 56.5142 179.571 55.6049C179.684 54.6838 181.192 54.1878 183.018 54.4476Z" fill="#D46A43"/>
</g>
<path d="M170.262 49.7713C170.103 51.1175 169.494 52.1094 168.895 52.0031C168.295 51.8969 167.949 50.716 168.099 49.3698C168.258 48.0236 168.867 47.0317 169.466 47.138C170.066 47.2443 170.412 48.4251 170.262 49.7713Z" fill="#39393B"/>
<path d="M180.798 51.743C180.639 53.0892 180.03 54.0811 179.431 53.9749C178.832 53.8686 178.485 52.6877 178.635 51.3416C178.794 49.9954 179.403 49.0035 180.002 49.1097C180.602 49.216 180.948 50.3969 180.798 51.743Z" fill="#39393B"/>
<path d="M156.72 59.1827C156.654 59.3244 154.772 63.1504 152.609 63.977V63.9652C152.552 62.9969 152.515 62.0404 152.496 61.1075C152.571 61.1075 154.66 61.0367 156.729 59.1827H156.72Z" fill="#39393B"/>
<path d="M155.868 49.4882C155.868 49.4882 152.459 41.4819 148.675 46.5596C145.556 50.7517 148.928 64.0836 154.669 60.5174L155.868 49.4882Z" fill="#EA9B7A"/>
<path d="M154.229 58.3327C154.004 58.2855 153.845 58.0493 153.854 57.7541C154.023 52.204 150.623 49.6298 150.483 49.5235C150.277 49.37 150.202 49.0275 150.323 48.7559C150.445 48.4843 150.717 48.4017 150.932 48.5552C151.091 48.6733 154.941 51.5664 154.744 57.8013C154.734 58.1083 154.528 58.3445 154.285 58.3327C154.266 58.3327 154.257 58.3327 154.238 58.3327H154.229Z" fill="#39393B"/>
<path d="M150.539 54.2114C150.408 54.1878 150.295 54.0933 150.22 53.9398C150.099 53.68 150.164 53.3376 150.38 53.1723C150.576 53.0306 152.328 51.7552 153.592 52.4283C153.817 52.5464 153.92 52.877 153.826 53.1605C153.732 53.4439 153.47 53.5738 153.245 53.4557C152.515 53.066 151.222 53.8336 150.829 54.1288C150.735 54.1996 150.632 54.2232 150.539 54.1996V54.2114Z" fill="#39393B"/>
<path d="M166.422 56.8212C163.088 55.2152 161.412 50.4918 162.686 46.2879C163.959 42.084 167.706 39.9703 171.04 41.5763C174.374 43.1823 176.05 47.9057 174.776 52.1096C173.503 56.3134 169.757 58.4272 166.422 56.8212ZM170.702 42.6863C167.855 41.3165 164.652 43.1232 163.566 46.713C162.48 50.3028 163.913 54.3414 166.76 55.7112C169.607 57.081 172.81 55.2743 173.896 51.6844C174.982 48.0946 173.549 44.0561 170.702 42.6863Z" fill="white"/>
<path d="M162.892 47.3742C162.835 47.3742 162.779 47.3506 162.723 47.3151C159.22 45.2959 155.933 46.831 155.896 46.8546C155.652 46.9727 155.381 46.8192 155.287 46.5121C155.193 46.2051 155.315 45.8627 155.559 45.7446C155.708 45.6737 159.258 44.0087 163.116 46.2405C163.351 46.3822 163.454 46.7365 163.351 47.0317C163.266 47.2561 163.088 47.386 162.892 47.3742Z" fill="white"/>
<path d="M180.742 58.8639C177.408 57.258 175.732 52.5345 177.005 48.3307C178.279 44.1268 182.025 42.0131 185.359 43.619C188.693 45.225 190.37 49.9484 189.096 54.1523C187.822 58.3562 184.076 60.4699 180.742 58.8639ZM185.031 44.729C182.184 43.3593 178.981 45.166 177.895 48.7558C176.809 52.3456 178.242 56.3841 181.089 57.7539C183.936 59.1237 187.139 57.317 188.225 53.7272C189.311 50.1374 187.879 46.0988 185.031 44.729Z" fill="white"/>
<path d="M174.477 48.6496C174.402 48.6023 174.346 48.5315 174.299 48.437C174.158 48.1536 174.224 47.7876 174.449 47.6104C174.514 47.5632 176.087 46.3469 177.726 47.9293C177.932 48.13 177.97 48.5079 177.811 48.7677C177.652 49.0275 177.352 49.0747 177.146 48.8739C176.022 47.7876 174.954 48.6142 174.945 48.6142C174.795 48.7322 174.617 48.7322 174.477 48.6378V48.6496Z" fill="white"/>
<path d="M177.942 21.2298C181.875 23.4616 184.966 27.5946 186.343 32.7432C187.204 35.9669 187.925 40.2298 184.329 39.6748C174.514 38.1751 169.26 25.3274 169.26 25.3274C169.26 25.3274 167.35 37.1596 159.642 35.7189C151.934 34.2665 152.178 26.9451 156.561 22.8003C160.129 19.4231 169.223 16.282 177.942 21.2298Z" fill="#39393B"/>
<path d="M159.942 34.361C159.942 34.361 155.559 40.3007 157.132 46.6892C158.705 53.0777 158.808 58.2026 157.17 61.6389C157.17 61.6389 156.748 54.908 154.791 49.8067C153.189 45.6146 151.691 42.4263 152.852 37.5966C153.648 34.2784 155.568 31.09 159.942 34.361Z" fill="#39393B"/>
<path d="M152.815 63.3393C149.415 64.3785 146.783 63.7762 144.835 62.2293C144.526 61.9813 144.236 61.7097 143.955 61.4263C139.872 57.1162 139.572 48.1771 142.073 43.7961C142.953 42.2492 143.974 41.21 145.051 40.5487C145.379 40.3362 145.706 40.1708 146.034 40.041C150.258 38.2933 154.837 41.4934 154.837 41.4934C159.633 58.1199 152.824 63.3511 152.824 63.3511L152.815 63.3393Z" fill="#21B573"/>
<path d="M164.774 70.6135C154.837 68.0511 150.614 59.0293 150.417 58.6042C150.258 58.2617 150.351 57.813 150.632 57.6123C150.904 57.4115 151.26 57.5296 151.419 57.8839C151.485 58.0256 156.645 68.9603 168.689 69.7869C169.007 69.8105 169.251 70.153 169.232 70.5545C169.213 70.956 168.942 71.263 168.623 71.2394C167.256 71.1449 165.973 70.9324 164.774 70.6253V70.6135Z" fill="white"/>
<path d="M171.854 71.0388C171.648 72.2905 170.674 73.1053 169.682 72.8455C168.689 72.5857 168.043 71.3576 168.249 70.1059C168.455 68.8542 169.429 68.0394 170.421 68.2992C171.414 68.559 172.06 69.7871 171.854 71.0388Z" fill="#243434"/>
<path d="M144.835 62.2411C144.526 61.9931 144.236 61.7215 143.955 61.4381C147.102 52.4635 146.034 44.6226 145.041 40.5605C145.369 40.3479 145.697 40.1826 146.025 40.0527C147.083 44.3628 148.235 52.7351 144.835 62.2529V62.2411Z" fill="#274BCA"/>
<path d="M185.172 29.3778C184.338 27.4057 183.411 26.095 182.952 25.4455C182.568 24.0403 182.156 22.7177 181.538 21.4896C179.459 17.333 176.172 14.7823 171.751 13.9203C166.984 12.9874 162.845 14.1801 159.455 17.4511C158.396 18.4666 157.46 19.6593 156.617 20.9346C155.456 22.7177 154.491 24.6898 153.704 26.6618C150.97 33.558 150.314 40.6432 150.305 40.7376L149.003 40.5605C149.059 39.8874 150.529 23.9694 158.649 16.1285C162.33 12.5741 166.806 11.2752 171.948 12.2789C176.762 13.2118 180.358 16.0222 182.643 20.604C183.973 23.2609 184.75 26.2839 185.172 29.3778Z" fill="white"/>
<path d="M135.76 211.112L131.227 200.248C130.094 197.544 131.677 194.297 134.103 194.32L205.307 195.289L203.21 209.199L135.77 211.112H135.76Z" fill="#39393B"/>
<path d="M201.973 208.054H138.251C136.715 208.054 135.601 206.483 135.779 204.547L140.124 154.903C140.293 152.967 141.679 151.396 143.215 151.396H206.937C208.473 151.396 209.587 152.967 209.409 154.903L205.064 204.547C204.895 206.483 203.509 208.054 201.973 208.054Z" fill="#39393B"/>
<path d="M137.306 210.191C137.306 210.191 137.259 210.191 137.24 210.191C136.95 210.144 136.734 209.801 136.772 209.435L142.063 156.273C142.101 155.907 142.372 155.635 142.662 155.682C142.953 155.73 143.168 156.072 143.131 156.438L137.839 209.6C137.802 209.943 137.577 210.191 137.306 210.191Z" fill="#564C54"/>
<path d="M168.305 180.611C168.061 184.602 170.393 188.038 173.503 188.286C176.621 188.534 179.347 185.511 179.59 181.52C179.834 177.529 177.502 174.092 174.392 173.844C171.274 173.596 168.548 176.619 168.305 180.611Z" fill="#2BD7CC"/>
<path d="M202.282 212.376H137.68C136.257 212.376 135.17 210.793 135.357 209.022L135.976 203.342H205.307L204.605 209.813C204.446 211.277 203.453 212.364 202.282 212.364V212.376Z" fill="#39393B"/>
<path d="M155.474 196.351L155.006 199.185H157.132L156.898 202.563H154.435L153.92 205.645H151.101L151.616 202.563H149.874L149.359 205.645H146.54L147.055 202.563H144.929L145.163 199.185H147.626L148.094 196.351H145.968L146.203 192.974H148.666L149.181 189.892H152L151.485 192.974H153.227L153.742 189.892H156.561L156.046 192.974H158.172L157.937 196.351H155.474ZM152.655 196.351H150.913L150.445 199.185H152.187L152.655 196.351Z" fill="#EBB12B"/>
<path d="M219.843 117.895C219.843 130.129 227.709 140.06 237.421 140.06C247.133 140.06 255 130.141 255 117.895C255 105.65 247.133 95.7304 237.421 95.7304C227.709 95.7304 219.843 105.65 219.843 117.895Z" fill="#2BD7CC"/>
<path d="M228.431 136.022L218.981 138.537L223.074 128.275L228.431 136.022Z" fill="#2BD7CC"/>
<path d="M238.91 113.136C238.91 112.097 238.114 111.566 237.131 111.566C235.988 111.566 234.93 112.44 234.368 113.845L229.639 110.869C230.997 107.657 233.675 105.449 237.927 105.449C242.179 105.449 245.204 107.657 245.204 111.849C245.204 116.974 240.952 117.872 240.952 120.458H235.483C235.483 116.407 238.91 115.203 238.91 113.16V113.136ZM234.715 125.724C234.715 123.481 236.148 121.768 238.217 121.768C240.287 121.768 241.72 123.481 241.72 125.724C241.72 127.968 240.287 129.739 238.217 129.739C236.148 129.739 234.715 127.933 234.715 125.724Z" fill="white"/>
<path d="M45.141 243.834C45.141 243.834 37.9578 229.604 20.5289 216.674C8.21341 207.546 1.03955 181.756 1.03955 181.756C1.03955 181.756 24.6309 183.055 34.886 201.157C45.141 219.26 45.141 243.834 45.141 243.834Z" fill="#21B573"/>
<path d="M45.2253 244.223C45.0661 244.223 44.9256 244.094 44.8881 243.893C41.5728 228.105 34.3146 216.662 28.8078 209.837C22.8421 202.445 17.6068 198.749 17.5507 198.713C17.3821 198.595 17.3165 198.323 17.4102 198.111C17.5038 197.898 17.7192 197.816 17.8878 197.934C17.944 197.969 23.2635 201.724 29.2948 209.211C34.8672 216.107 42.2097 227.691 45.5625 243.668C45.6093 243.905 45.4969 244.153 45.3096 244.212C45.2815 244.212 45.2534 244.223 45.2159 244.223H45.2253Z" fill="#39393B"/>
<path d="M42.0505 243.515C42.0505 243.515 39.9994 238.343 30.7652 239.63C21.5309 240.929 16.4081 247.388 0 235.745C0 235.745 12.3061 222.814 25.6423 225.401C38.9786 227.987 39.9994 234.458 42.0505 243.503V243.515Z" fill="#21B573"/>
<path d="M42.0972 243.952C41.9849 243.952 41.8631 243.881 41.7975 243.739C41.7601 243.656 37.63 235.473 30.9899 233.95C19.3863 231.293 11.4819 235.969 11.407 236.016C11.229 236.123 11.023 236.028 10.9387 235.804C10.8544 235.579 10.9293 235.32 11.1073 235.213C11.1916 235.166 19.2832 230.36 31.121 233.076C38.0701 234.67 42.2284 242.912 42.3969 243.267C42.5 243.479 42.4531 243.751 42.2846 243.881C42.2284 243.928 42.1628 243.952 42.0972 243.952Z" fill="#39393B"/>
<path d="M46.0868 242.263C46.0868 242.263 45.2814 236.572 53.2981 230.656C61.3149 224.739 68.4888 226.062 76.1403 204.37C76.1403 204.37 60.1442 203.26 50.6758 215.375C41.2075 227.491 43.4458 233.454 46.0868 242.252V242.263Z" fill="#21B573"/>
<path d="M46.0493 242.736C45.8714 242.736 45.7122 242.559 45.7028 242.334C45.6747 241.921 45.1034 232.179 49.9266 225.672C58.14 214.584 66.906 212.34 66.9903 212.317C67.1776 212.269 67.3649 212.423 67.4023 212.671C67.4398 212.907 67.3181 213.143 67.1214 213.191C67.0371 213.214 58.4865 215.411 50.4323 226.275C45.8246 232.498 46.3865 242.169 46.3958 242.263C46.4146 242.511 46.2647 242.724 46.0774 242.736C46.0681 242.736 46.0587 242.736 46.0493 242.736Z" fill="#39393B"/>
<path d="M55.5271 241.933H33.0409C31.7116 241.933 30.634 243.291 30.634 244.967V246.255C30.634 247.931 31.7116 249.289 33.0409 249.289H55.5271C56.8564 249.289 57.9341 247.931 57.9341 246.255V244.967C57.9341 243.291 56.8564 241.933 55.5271 241.933Z" fill="#DF615C"/>
<path d="M44.3918 312.619C26.0544 312.619 14.3852 308.935 16.2582 292.651C17.4476 282.318 23.8442 272.186 28.3583 266.164C28.9951 265.314 29.5945 264.546 30.1283 263.873C31.8047 261.795 32.9286 260.59 32.9286 260.59L32.9847 260.212L33.3032 257.921L33.6684 255.288L34.5113 249.278L34.8016 247.176L44.3918 246.644L54.394 247.176L54.6187 249.278L54.9746 252.572L55.5553 257.91L55.8081 260.201L55.8456 260.578C55.8456 260.578 56.9788 261.783 58.6458 263.861C59.189 264.534 59.7884 265.302 60.4253 266.152C64.9394 272.174 71.3359 282.294 72.5253 292.639C74.3984 308.923 62.7291 312.607 44.3918 312.607V312.619Z" fill="#973C39"/>
<path d="M55.8081 260.224H32.9753L33.2938 257.933H55.5646L55.8081 260.224Z" fill="#A92F4B"/>
<path d="M60.4252 266.164H28.3489C28.9857 265.314 29.5851 264.546 30.1189 263.873H58.6458C59.189 264.546 59.7884 265.314 60.4252 266.164Z" fill="#A92F4B"/>
<path d="M54.9745 252.596L33.6683 255.3L34.5112 249.289H54.6186L54.9745 252.596Z" fill="#A92F4B"/>
</svg>
