<svg width="312" height="329" viewBox="0 0 312 329" fill="none" xmlns="http://www.w3.org/2000/svg">
<path d="M128.509 115.616L141.095 108.473L171.187 100.47L203.658 109.037L160.76 170.973L140.421 172.535L125.008 131.382L128.509 115.616Z" fill="#FFBE9D"/>
<path d="M237.841 162.859C237.841 162.859 217.338 118.62 211.815 113.343C206.292 108.066 188.705 104.73 188.705 104.73C188.705 104.73 169.336 163.496 150.896 161.463C132.456 159.43 130.434 114.443 130.434 114.443L122.311 118.795C120.873 119.565 119.575 120.743 118.507 122.248C117.438 123.754 116.625 125.552 116.121 127.519L99.8616 191.119L127.511 199.954C132.367 224.259 139.204 245.403 147.788 263.72L148.668 257.648L206.12 256.456L222.758 247.806L202.722 186.628L237.841 162.859Z" fill="#90CAF9"/>
<path d="M131.714 217.448C131.642 217.292 131.587 217.125 131.549 216.949C131.452 216.57 131.322 216.09 131.163 215.498C130.82 214.177 130.345 212.356 129.788 210.138C128.632 205.61 127.037 199.344 125.558 192.293C124.87 188.753 124.251 185.352 123.804 182.238C123.357 179.124 123.082 176.277 122.93 173.921C122.827 172.729 122.807 171.647 122.765 170.695C122.724 169.744 122.697 168.856 122.697 168.21V166.666C122.68 166.488 122.68 166.308 122.697 166.13C122.728 166.306 122.745 166.486 122.745 166.666C122.745 167.073 122.745 167.59 122.807 168.21C122.869 168.829 122.855 169.688 122.924 170.64C122.992 171.592 123.027 172.664 123.144 173.856C123.322 176.231 123.653 179.05 124.086 182.173C124.519 185.297 125.138 188.642 125.86 192.182C127.312 199.215 128.894 205.49 129.987 210.055C130.538 212.328 130.978 214.177 131.267 215.461C131.397 216.062 131.507 216.552 131.59 216.94C131.644 217.103 131.685 217.273 131.714 217.448Z" fill="#263238"/>
<path d="M189.551 207.264C189.458 207.358 189.356 207.436 189.248 207.495C189.042 207.634 188.739 207.855 188.334 208.077C187.195 208.743 186.017 209.281 184.812 209.685C180.816 211.065 176.624 211.059 172.63 209.667C168.636 208.275 164.971 205.544 161.977 201.728C161.073 200.591 160.24 199.354 159.487 198.032C159.212 197.57 159.033 197.182 158.896 196.923C158.821 196.8 158.761 196.663 158.717 196.516C158.717 196.516 159.033 197.015 159.59 197.912C160.382 199.18 161.237 200.375 162.149 201.488C165.152 205.183 168.782 207.833 172.724 209.205C176.665 210.578 180.797 210.632 184.757 209.362C185.955 208.994 187.132 208.512 188.279 207.92C188.694 207.671 189.118 207.452 189.551 207.264Z" fill="#263238"/>
<path d="M195.645 137.731C195.675 137.358 195.733 136.99 195.816 136.631C195.947 135.929 196.174 134.922 196.504 133.702C197.365 130.52 198.491 127.479 199.861 124.636C201.237 121.791 202.853 119.167 204.675 116.818C205.221 116.102 205.792 115.423 206.388 114.785C206.598 114.529 206.828 114.305 207.076 114.119C207.117 114.184 206.209 115.219 204.868 117.058C201.363 121.86 198.615 127.562 196.786 133.822C196.037 136.216 195.706 137.759 195.645 137.731Z" fill="#263238"/>
<path d="M197.543 187.034C197.447 187.034 196.642 178.828 195.741 168.672C194.84 158.515 194.194 150.263 194.29 150.253C194.386 150.244 195.198 158.46 196.099 168.616C197 178.773 197.667 187.025 197.543 187.034Z" fill="#263238"/>
<g opacity="0.3">
<path d="M159.081 198.226C162.018 204.02 165.065 209.879 169.233 214.103C173.401 218.326 178.938 220.692 183.925 218.631C185.505 217.944 187 216.944 188.361 215.664C190.335 213.89 192.254 211.46 192.536 208.271C192.608 207.915 192.598 207.537 192.509 207.188C192.419 206.839 192.254 206.534 192.034 206.312C191.723 206.147 191.379 206.124 191.057 206.247C187.549 207.172 184.489 210.471 180.919 210.822C179.085 210.872 177.258 210.526 175.506 209.796C169.316 207.698 163.318 204.612 159.081 198.198" fill="black"/>
</g>
<g opacity="0.3">
<path d="M200.336 223.852C201.23 222.401 201.835 221.209 202.674 219.869C203.092 219.171 203.394 218.361 203.561 217.494C203.72 216.492 203.72 215.456 203.561 214.454C202.638 205.884 201.095 197.456 198.953 189.289C198.883 189.163 198.839 189.014 198.824 188.858C198.809 188.702 198.824 188.543 198.867 188.397C198.91 188.251 198.981 188.122 199.072 188.022C199.163 187.923 199.271 187.857 199.387 187.829C200.432 187.395 201.656 186.813 202.702 186.378C204.236 196.544 205.508 207.837 207.021 217.587C207.021 217.448 202.544 221.875 200.329 223.852" fill="black"/>
</g>
<g opacity="0.3">
<path d="M127.243 200.065C124.76 196.807 122.723 192.988 121.225 188.781C120.566 186.992 120.071 185.102 119.753 183.153C119.471 180.96 119.374 178.731 119.464 176.508C119.616 168.97 120.384 161.476 121.754 154.163C121.977 154.597 122.116 155.099 122.16 155.623C123.206 163.182 122.566 171.01 123.44 178.606C123.797 181.674 124.396 184.678 124.767 187.737C124.924 189.313 125.153 190.875 125.455 192.413C125.757 193.79 126.225 195.102 126.555 196.47C126.846 197.777 127.076 199.107 127.243 200.453" fill="black"/>
</g>
<path d="M170.079 252.834L207.014 217.448L202.709 186.415L226.919 169.596C226.919 169.596 235.702 219.019 229.897 238.084C227.93 244.636 168.092 270.171 168.092 270.171L170.079 252.834Z" fill="#FFBE9D"/>
<path d="M220.976 214.408C220.976 214.491 220.151 214.084 218.803 213.751C218.012 213.567 217.212 213.462 216.409 213.437C214.444 213.382 212.489 213.837 210.653 214.777C209.905 215.162 209.181 215.622 208.486 216.154C207.296 217.078 206.643 217.827 206.601 217.762C206.56 217.698 206.732 217.531 207.028 217.18C207.443 216.694 207.887 216.255 208.355 215.868C209.048 215.28 209.777 214.776 210.536 214.361C211.47 213.872 212.438 213.503 213.424 213.262C214.415 213.04 215.419 212.95 216.423 212.994C217.24 213.037 218.053 213.179 218.851 213.419C219.39 213.576 219.919 213.789 220.433 214.056C220.626 214.137 220.809 214.255 220.976 214.408Z" fill="#EB996E"/>
<path d="M215.735 208.216C215.241 208.623 214.731 208.997 214.208 209.334C213.273 210.027 212.008 211.081 210.659 212.31C209.494 213.32 208.452 214.567 207.571 216.006C206.925 217.134 206.684 217.984 206.629 217.947C206.751 217.167 207.003 216.434 207.365 215.803C208.209 214.261 209.255 212.94 210.453 211.903C211.611 210.822 212.827 209.859 214.092 209.02C214.606 208.643 215.161 208.372 215.735 208.216Z" fill="#EB996E"/>
<path d="M140.648 276.695C142.629 276.695 144.232 276.695 144.232 276.76C144.232 276.824 142.629 276.824 140.648 276.824C138.667 276.824 137.065 276.824 137.065 276.76C137.065 276.695 138.674 276.695 140.648 276.695Z" fill="#EB996E"/>
<path d="M145.146 256.262C145.146 256.262 76.8341 218.603 65.4991 215.341C54.1642 212.079 34.3074 210.48 25.9506 232.9C20.1112 248.546 19.4715 267.093 41.77 282.896C64.0685 298.699 130.414 313.393 130.414 313.393C130.414 313.393 190.307 333.502 200.026 328.068C209.745 322.634 223.109 311.212 219.064 289.457C215.02 267.703 215.907 256.493 201.312 255.264C186.917 254.081 183.374 253.416 169.673 271.169L145.146 256.262Z" fill="#263238"/>
<path d="M222.462 246.771C222.462 246.771 234.733 274.301 230.083 290.206C225.434 306.111 213.576 316.47 213.576 316.47L193.802 258.499L222.462 246.771Z" fill="#263238"/>
<path d="M138.427 294.947L138.179 294.79L137.45 294.291C136.817 293.847 135.882 293.182 134.699 292.285C132.326 290.493 128.914 287.831 124.898 284.125C120.881 280.419 116.252 275.715 111.231 270.263C108.72 267.564 106.079 264.718 103.369 261.752C100.659 258.785 97.867 255.68 94.8476 252.778C91.9265 249.939 88.8476 247.406 85.6379 245.2C82.6334 243.176 79.5393 241.402 76.3732 239.886C71.0008 237.352 65.5063 235.311 59.9279 233.778C55.1684 232.419 51.2892 231.541 48.6067 230.913L45.5185 230.201L44.7138 230.007L44.4456 229.924H44.7207L45.5323 230.072L48.6274 230.691C51.3167 231.264 55.2096 232.096 59.983 233.408C65.5826 234.9 71.0983 236.914 76.4902 239.433C79.6699 240.945 82.7777 242.716 85.7961 244.738C89.0248 246.951 92.1222 249.493 95.0608 252.344C98.0802 255.264 100.886 258.369 103.59 261.345C106.293 264.321 108.934 267.167 111.437 269.884C116.444 275.3 121.032 280.05 125.042 283.746C129.052 287.443 132.422 290.215 134.768 292.017C135.944 292.941 136.865 293.635 137.519 294.106C137.821 294.328 138.055 294.513 138.207 294.651C138.29 294.736 138.364 294.835 138.427 294.947Z" fill="#455A64"/>
<path d="M139.28 294.355C142.196 292.747 133.041 296.823 130.001 295.686C125.187 293.884 121.906 286.491 116.885 286.306C113.659 286.195 110.887 289.18 107.854 290.668C104.147 292.516 100.054 292.054 96.1614 291.269C92.2685 290.483 88.3205 289.421 84.4001 289.984C83.2406 290.03 82.1281 290.611 81.2499 291.629C80.758 292.408 80.4607 293.375 80.4002 294.393C80.3397 295.412 80.5191 296.43 80.9129 297.303C81.7418 299.034 83.0103 300.302 84.4826 300.871C85.9419 301.417 87.4328 301.797 88.9395 302.007C95.962 303.421 102.592 307.155 109.484 309.456C116.596 311.84 123.928 312.691 131.246 313.522C131.239 313.522 130.737 299.05 139.28 294.355Z" fill="#FFBE9D"/>
<path d="M202.66 294.928C202.716 295.041 202.756 295.166 202.777 295.298C202.881 295.658 202.971 296.025 203.046 296.398C203.335 297.76 203.528 299.155 203.623 300.566C203.766 302.668 203.688 304.787 203.389 306.859C203.03 309.408 202.298 311.836 201.237 314.003C200.142 316.151 198.707 317.947 197.034 319.261C195.679 320.342 194.183 321.064 192.625 321.387C191.577 321.607 190.51 321.607 189.461 321.387C189.178 321.332 188.898 321.252 188.622 321.146C188.523 321.121 188.426 321.081 188.333 321.026C189.742 321.322 191.176 321.322 192.584 321.026C194.1 320.662 195.552 319.926 196.869 318.855C198.484 317.552 199.871 315.796 200.934 313.707C201.972 311.591 202.696 309.225 203.066 306.739C203.374 304.709 203.476 302.632 203.369 300.566C203.299 299.169 203.148 297.781 202.915 296.416C202.807 295.928 202.722 295.431 202.66 294.928Z" fill="#455A64"/>
<path d="M155.477 276.778L197.137 251.17L210.412 254.904L210.99 256.826L162.3 283.053L155.477 280.844V276.778Z" fill="white"/>
<path d="M198.293 253.536L155.477 280.844L169.529 285.391L213.789 257.547L198.293 253.536Z" fill="#455A64"/>
<path d="M139.28 294.355C139.28 294.355 161.289 274.163 167.074 270.134C172.858 266.104 203.527 256.678 211.182 260.957C218.837 265.236 188.333 302.026 188.333 302.026L139.28 294.355Z" fill="#263238"/>
<path d="M184.083 278.146C184.026 278.127 183.97 278.099 183.918 278.063L183.45 277.795L181.669 276.741C179.498 275.414 177.256 274.309 174.963 273.433C173.381 272.844 171.754 272.5 170.114 272.407C169.195 272.362 168.275 272.415 167.362 272.564C166.406 272.736 165.463 273.017 164.542 273.405C160.718 274.967 157.073 278.405 153.318 281.972C149.562 285.539 145.752 288.663 142.43 291.592C140.751 293.052 139.17 294.476 137.718 295.843C136.341 297.038 135.142 298.567 134.183 300.353C133.416 301.854 132.796 303.481 132.34 305.196C131.92 306.702 131.652 308.033 131.418 309.133C131.184 310.232 131.053 311.055 130.937 311.665L130.806 312.33C130.797 312.408 130.778 312.483 130.751 312.552C130.742 312.472 130.742 312.391 130.751 312.312C130.751 312.136 130.806 311.914 130.84 311.646C130.93 311.055 131.06 310.195 131.267 309.086C131.502 307.739 131.791 306.409 132.133 305.103C132.578 303.356 133.191 301.694 133.956 300.159C134.92 298.332 136.131 296.764 137.526 295.538C138.977 294.143 140.552 292.71 142.23 291.241C145.573 288.284 149.321 285.179 153.091 281.602C156.86 278.026 160.526 274.57 164.426 272.998C166.251 272.221 168.167 271.893 170.079 272.028C171.74 272.133 173.386 272.499 174.983 273.119C177.284 274.027 179.524 275.189 181.682 276.593C182.453 277.074 183.058 277.462 183.436 277.73L183.89 278.035C183.959 278.056 184.024 278.093 184.083 278.146Z" fill="#455A64"/>
<path d="M187.646 276.519C187.604 276.584 187.027 275.836 185.912 275.004C184.451 273.958 182.854 273.296 181.208 273.054C179.556 272.787 177.889 272.716 176.228 272.841C175.543 272.935 174.853 272.966 174.165 272.934C174.84 272.695 175.531 272.549 176.228 272.499C177.906 272.277 179.596 272.302 181.27 272.573C182.971 272.811 184.614 273.543 186.084 274.717C186.523 275.073 186.933 275.488 187.309 275.956C187.536 276.288 187.659 276.501 187.646 276.519Z" fill="#455A64"/>
<path d="M216.423 264.764C216.423 264.764 215.976 264.376 215.185 263.665C214.039 262.713 212.822 261.926 211.553 261.317C209.663 260.455 207.698 259.921 205.707 259.728C203.267 259.495 200.816 259.585 198.389 259.996C195.803 260.421 193.354 261.049 191.126 261.622C188.897 262.195 186.916 262.787 185.245 263.304C183.574 263.822 182.232 264.275 181.304 264.589L180.231 264.949C180.108 265.001 179.981 265.035 179.853 265.051C179.966 264.967 180.086 264.902 180.21 264.857L181.27 264.413C182.184 264.044 183.519 263.535 185.183 262.971C186.848 262.408 188.842 261.798 191.064 261.188C193.285 260.578 195.734 259.94 198.348 259.515C200.798 259.102 203.273 259.024 205.735 259.284C207.752 259.501 209.739 260.079 211.643 261.003C212.918 261.642 214.133 262.483 215.261 263.508C215.66 263.877 215.948 264.21 216.141 264.432C216.334 264.653 216.437 264.755 216.423 264.764Z" fill="#455A64"/>
<path d="M111.238 195.195C111.238 195.195 114.931 232.567 116.417 238.509C117.903 244.452 129.575 266.169 129.575 266.169L145.133 256.262L134.733 229.97L127.546 200.277L111.238 195.195Z" fill="#FFBE9D"/>
<path d="M144.5 254.904C145.847 254.627 147.212 254.543 148.572 254.654C149.089 254.64 149.599 254.829 150.037 255.199C150.284 255.489 150.487 255.841 150.635 256.234C151.419 258.101 151.847 260.2 151.88 262.343C151.916 262.749 151.843 263.159 151.674 263.498C151.337 264.034 150.697 263.868 150.223 263.591C149.554 263.204 148.932 262.684 148.379 262.047C147.655 261.15 147 260.156 146.426 259.081L145.821 258.018C145.305 257.094 144.789 256.234 144.28 255.338" fill="#EB996E"/>
<path d="M138.881 238.777C140.016 242.677 143.448 255.079 143.448 255.079L145.821 258.573L140.456 238.001C140.386 237.731 140.244 237.507 140.056 237.373C139.868 237.239 139.65 237.206 139.445 237.28C139.331 237.323 139.226 237.396 139.135 237.496C139.044 237.596 138.97 237.721 138.917 237.862C138.864 238.003 138.833 238.157 138.827 238.314C138.821 238.472 138.839 238.63 138.881 238.777Z" fill="#E0E0E0"/>
<path d="M135.923 256.142C135.923 256.142 132.601 256.484 131.672 257.796C130.744 259.109 130.441 263.064 130.441 263.064C130.441 263.064 128.536 266.668 129.547 269.829C129.547 269.829 127.951 274.791 129.251 276.436C129.792 277.217 130.421 277.878 131.115 278.395H146.082L152.011 266.169L146.082 258.554C146.082 258.554 142.368 251.161 140.359 250.884C138.351 250.606 134.348 251.152 135.923 256.142Z" fill="#FFBE9D"/>
<path d="M135.923 256.142C135.876 256.023 135.837 255.9 135.806 255.772C135.69 255.431 135.609 255.071 135.565 254.7C135.468 254.079 135.519 253.433 135.71 252.852C135.995 252.089 136.487 251.504 137.085 251.216C137.812 250.841 138.584 250.65 139.362 250.653C139.807 250.617 140.254 250.667 140.689 250.801C141.145 251.018 141.567 251.347 141.934 251.771C143.572 253.723 145.012 255.953 146.219 258.406L152.162 266.003L152.265 266.132L152.183 266.289L146.261 278.525L146.213 278.636H145.325H131.122H131.081C130.487 278.173 129.937 277.614 129.444 276.972C129.168 276.687 128.949 276.316 128.804 275.891C128.683 275.47 128.62 275.022 128.619 274.57C128.664 272.918 128.944 271.293 129.444 269.782V269.94C129.096 268.722 129.053 267.386 129.32 266.132C129.538 265.019 129.894 263.963 130.372 263.008V263.082C130.479 261.433 130.808 259.824 131.342 258.332C131.472 258.013 131.65 257.733 131.865 257.51C132.065 257.327 132.279 257.175 132.505 257.057C132.891 256.845 133.292 256.684 133.701 256.576C134.257 256.41 134.82 256.29 135.387 256.216H135.82H135.971C135.971 256.216 135.916 256.216 135.827 256.262L135.393 256.345C135.015 256.429 134.444 256.539 133.729 256.771C133.333 256.9 132.944 257.07 132.567 257.279C132.354 257.403 132.152 257.554 131.961 257.732C131.772 257.941 131.616 258.199 131.5 258.489C131.003 259.947 130.701 261.511 130.606 263.11C130.152 264.039 129.818 265.064 129.616 266.141C129.371 267.321 129.417 268.576 129.747 269.718V269.782V269.866C129.27 271.325 129.006 272.894 128.969 274.486C128.971 274.888 129.027 275.286 129.134 275.66C129.263 276.025 129.457 276.343 129.698 276.584C130.166 277.185 130.683 277.712 131.239 278.155H131.184H145.387H146.082L145.931 278.266L151.866 266.049V266.335L145.951 258.693C144.767 256.257 143.357 254.034 141.756 252.076C141.416 251.675 141.024 251.362 140.6 251.152C140.186 251.018 139.76 250.962 139.335 250.985C138.582 250.967 137.833 251.136 137.127 251.484C136.556 251.735 136.078 252.271 135.792 252.981C135.608 253.522 135.548 254.123 135.62 254.71C135.66 255.087 135.727 255.459 135.82 255.819C135.902 256.031 135.93 256.151 135.923 256.142Z" fill="#EB996E"/>
<path d="M142.952 272.444C142.305 272.454 141.658 272.383 141.02 272.231C140.421 272.139 139.72 272.019 138.956 271.871C138.532 271.793 138.117 271.647 137.718 271.437C137.299 271.195 136.904 270.884 136.542 270.513C135.285 269.236 134.155 267.748 133.179 266.086C132.75 265.425 132.396 264.684 132.126 263.886C132.168 263.84 132.601 264.653 133.378 265.864C134.39 267.439 135.522 268.867 136.755 270.124C137.092 270.492 137.462 270.802 137.856 271.048C138.228 271.249 138.615 271.395 139.011 271.483L141.075 271.945C141.711 272.034 142.339 272.201 142.952 272.444Z" fill="#EB996E"/>
<path d="M142.326 277.638C141.716 277.835 141.09 277.934 140.463 277.933C139.774 277.987 139.083 277.956 138.399 277.841C137.558 277.685 136.741 277.351 135.978 276.852C134.623 275.9 133.396 274.65 132.346 273.156C131.881 272.584 131.463 271.946 131.102 271.252C131.606 271.751 132.08 272.304 132.518 272.906C133.595 274.297 134.81 275.479 136.129 276.418C137.482 277.255 138.961 277.656 140.449 277.591C141.075 277.547 141.702 277.563 142.326 277.638Z" fill="#EB996E"/>
<path d="M144.968 267.296C144.442 267.048 143.943 266.71 143.482 266.289C142.334 265.36 141.248 264.3 140.236 263.119C139.222 261.938 138.288 260.639 137.443 259.238C137.064 258.686 136.747 258.064 136.501 257.39C136.583 257.297 138.117 260.014 140.469 262.75C142.822 265.485 145.03 267.167 144.968 267.296Z" fill="#EB996E"/>
<path d="M111.238 283.885V276.778H155.477V279.07V279.532L149.28 285.391L111.238 283.885Z" fill="white"/>
<path d="M148.462 285.918H107.93V283.053H151.646L148.462 285.918Z" fill="#455A64"/>
<path d="M162.967 255.033C162.5 255.153 152.65 257.427 152.65 257.427L145.621 268.766V276.778C145.621 276.778 147.774 278.46 148.805 275.947C148.805 275.947 146.646 284.134 147.492 285.336C148.338 286.537 149.7 287.535 150.869 285.336C151.956 282.896 152.897 280.343 153.682 277.702L153.964 281.085C153.964 281.085 159.872 277.203 160.526 276.067C161.179 274.93 165.031 267.5 165.031 267.5L166.812 265.356L165.031 269.136C165.031 269.136 161.839 273.673 163.153 274.56C164.467 275.447 166.812 272.167 166.812 272.167L170.464 266.492L173.559 265.993C173.64 263.246 173.483 260.495 173.092 257.796C172.878 256.05 170.657 252.519 170.877 252.15C170.877 252.15 170.877 252.085 170.877 252.094L162.967 255.033Z" fill="#FFBE9D"/>
<path d="M154.789 261.031C154.42 261.735 154.015 262.405 153.579 263.036C152.596 264.617 151.678 266.267 150.828 267.98C150.449 268.976 150.192 270.046 150.064 271.15C149.858 272.167 149.631 273.072 149.431 273.821C149.25 274.65 149.001 275.45 148.689 276.205C148.808 275.36 148.976 274.529 149.191 273.719C149.363 272.961 149.555 272.056 149.741 271.039C149.837 270.522 149.913 269.995 150.002 269.431C150.094 268.822 150.272 268.242 150.525 267.722C151.381 265.982 152.343 264.341 153.4 262.814C153.808 262.147 154.275 261.548 154.789 261.031Z" fill="#EB996E"/>
<path d="M159.776 262.925C159.776 262.925 159.659 263.129 159.425 263.461L158.462 264.894C158.057 265.504 157.575 266.243 157.087 267.065C156.832 267.481 156.557 267.916 156.289 268.378C155.993 268.816 155.76 269.323 155.601 269.875C154.762 273.692 154.04 276.991 153.737 278.063L153.655 278.358V278.053C153.655 277.721 153.62 277.564 153.655 277.554C153.689 277.545 153.717 277.702 153.778 278.026H153.648C153.82 276.88 154.432 273.599 155.285 269.708C155.361 269.398 155.467 269.103 155.601 268.831C155.732 268.563 155.869 268.322 156.007 268.091C156.282 267.62 156.564 267.167 156.832 266.779C157.369 265.956 157.871 265.245 158.297 264.663C158.718 263.981 159.218 263.395 159.776 262.925Z" fill="#EB996E"/>
<path d="M162.314 265.31C162.044 265.935 161.713 266.51 161.331 267.019L160.189 268.775C159.964 269.108 159.755 269.46 159.563 269.829C159.373 270.23 159.216 270.657 159.095 271.104C158.841 272.028 158.676 272.952 158.49 273.821L158.002 276.057C157.88 276.76 157.7 277.442 157.465 278.09C157.503 277.373 157.6 276.663 157.754 275.974L158.174 273.701C158.333 272.764 158.528 271.839 158.758 270.928C158.888 270.449 159.062 269.993 159.274 269.57C159.486 269.187 159.715 268.823 159.962 268.479C160.402 267.823 160.822 267.259 161.165 266.788C161.516 266.252 161.9 265.757 162.314 265.31Z" fill="#EB996E"/>
<path d="M173.883 265.467C173.814 265.506 173.743 265.534 173.669 265.55L173.016 265.772L170.485 266.576C169.983 267.37 169.405 268.285 168.745 269.348L167.699 270.993C167.328 271.614 166.931 272.207 166.509 272.767C166.033 273.375 165.507 273.909 164.941 274.357C164.636 274.6 164.304 274.777 163.958 274.884C163.765 274.954 163.563 274.96 163.369 274.901C163.174 274.841 162.994 274.718 162.843 274.542C162.776 274.429 162.727 274.298 162.699 274.158C162.672 274.018 162.667 273.871 162.685 273.729C162.71 273.465 162.761 273.207 162.837 272.961C162.992 272.483 163.181 272.025 163.401 271.594C163.849 270.706 164.348 269.865 164.893 269.08L166.668 265.291L166.888 265.541L165.113 267.694L160.876 275.799C160.78 275.974 160.697 276.15 160.587 276.325C160.466 276.497 160.333 276.652 160.189 276.787C159.92 277.055 159.645 277.296 159.363 277.527C158.799 277.989 158.221 278.451 157.63 278.848C156.451 279.711 155.241 280.552 153.998 281.371L153.778 281.519V281.186C153.689 280.124 153.593 278.968 153.496 277.804L153.833 277.869C153.366 279.384 152.87 280.909 152.306 282.434C152.031 283.201 151.735 283.959 151.405 284.707C151.095 285.531 150.618 286.219 150.03 286.694C149.818 286.836 149.586 286.918 149.35 286.935C149.113 286.952 148.877 286.905 148.654 286.796C148.229 286.579 147.843 286.245 147.519 285.816C147.432 285.711 147.352 285.597 147.279 285.474C147.207 285.329 147.158 285.165 147.134 284.994C147.093 284.689 147.079 284.379 147.093 284.07C147.119 283.496 147.175 282.924 147.258 282.36C147.609 280.165 148.069 278.004 148.633 275.891L148.957 276.085C148.801 276.485 148.576 276.829 148.301 277.088C148.025 277.347 147.708 277.513 147.375 277.573C146.73 277.625 146.088 277.426 145.525 277L145.442 276.945V276.806C145.442 274.046 145.442 271.375 145.442 268.794V268.664V268.6C147.994 264.506 150.36 260.707 152.499 257.288V257.233H152.554L162.871 254.894L168.745 252.769L170.306 252.224L170.712 252.094C170.753 252.094 170.794 252.048 170.815 252.094C170.836 252.14 170.815 252.14 170.815 252.14C170.815 252.14 170.671 252.14 170.327 252.298L168.779 252.908L162.933 255.144L152.616 257.593L152.698 257.528L145.683 268.886L145.724 268.747C145.724 271.323 145.724 273.993 145.724 276.76L145.635 276.556C146.134 276.93 146.702 277.103 147.272 277.055C147.55 277.01 147.816 276.872 148.045 276.654C148.275 276.436 148.46 276.145 148.585 275.808L148.902 276.002C148.356 278.081 147.91 280.204 147.567 282.36C147.488 282.903 147.435 283.453 147.409 284.005C147.399 284.271 147.411 284.537 147.444 284.8C147.478 285.036 147.579 285.245 147.726 285.382C147.974 285.792 148.311 286.089 148.691 286.232C149.07 286.374 149.473 286.355 149.844 286.177C150.363 285.723 150.778 285.083 151.041 284.328C151.364 283.598 151.653 282.85 151.935 282.092C152.485 280.576 152.987 279.061 153.448 277.564L153.716 276.704L153.792 277.628C153.888 278.784 153.985 279.939 154.067 281.002L153.819 280.817C155.058 280.003 156.268 279.163 157.437 278.322C158.022 277.887 158.6 277.462 159.157 277.009C159.432 276.778 159.707 276.547 159.962 276.298C160.082 276.182 160.195 276.052 160.299 275.91C160.402 275.752 160.491 275.558 160.581 275.392C162.066 272.62 163.49 269.847 164.831 267.324L166.613 265.18L167.41 264.256L166.84 265.457L165.051 269.228C164.513 270 164.019 270.825 163.572 271.695C163.363 272.103 163.184 272.536 163.036 272.989C162.898 273.424 162.809 273.913 162.988 274.228C163.112 274.357 163.256 274.447 163.41 274.489C163.564 274.53 163.724 274.523 163.875 274.468C164.197 274.373 164.505 274.21 164.79 273.987C165.343 273.559 165.857 273.048 166.324 272.462C166.744 271.908 167.144 271.325 167.52 270.716L168.573 269.099L170.34 266.4L172.892 265.67L173.58 265.494C173.68 265.47 173.781 265.46 173.883 265.467Z" fill="#EB996E"/>
<path d="M123.529 59.4653C121.935 57.8791 120.712 55.7145 120.003 53.226C119.294 50.7376 119.128 48.0288 119.526 45.4183C119.627 45.1704 119.684 44.8947 119.693 44.6125C119.702 44.3302 119.663 44.0488 119.579 43.79C119.495 43.5312 119.367 43.3018 119.207 43.1195C119.046 42.9372 118.856 42.8068 118.652 42.7383C117.724 42.0859 116.905 41.1866 116.244 40.0952C115.583 39.0037 115.094 37.7428 114.807 36.3894C114.538 35.0266 114.541 33.5926 114.815 32.2315C115.089 30.8704 115.625 29.6303 116.369 28.6358C113.322 27.1849 112.043 21.677 113.473 17.7863C114.904 13.8957 118.425 11.8903 121.637 12.4078C120.53 10.2176 121.011 7.06626 122.325 5.09783C123.743 3.23151 125.576 2.04028 127.546 1.70621C130.152 1.06855 133.282 1.47517 134.774 4.41395C134.912 2.24221 136.542 0.782061 138.117 0.255297C140.252 -0.347827 142.477 0.126206 144.369 1.58696C146.26 3.04771 147.685 5.39294 148.372 8.17523C149.666 6.74085 151.259 5.88186 152.932 5.717C154.597 5.717 156.371 7.06625 156.729 9.24723C157.417 7.26032 159.233 6.4748 160.856 6.23452C162.031 6.01453 163.229 6.27201 164.295 6.97384C164.823 7.34356 165.253 7.9219 165.529 8.63083C165.804 9.33977 165.911 10.1452 165.835 10.9384C166.918 10.3865 168.115 10.4004 169.19 10.9775C170.265 11.5546 171.14 12.6527 171.641 14.0548C172.143 15.4569 172.234 17.0608 171.898 18.5492C171.562 20.0376 170.822 21.3022 169.825 22.0929C170.704 22.7523 171.442 23.7037 171.97 24.856C172.497 26.0083 172.796 27.3231 172.837 28.6747C172.879 30.0264 172.661 31.3697 172.206 32.5763C171.751 33.783 171.073 34.8126 170.237 35.5669C171.228 35.6778 171.73 37.4707 171.283 38.672C171.018 39.242 170.658 39.7199 170.23 40.0668C169.802 40.4137 169.319 40.6197 168.82 40.6682L169.997 54.438C170.364 57.3849 170.385 60.3911 170.058 63.3467C169.611 66.267 168.339 69.1226 166.31 70.3333" fill="#263238"/>
<path d="M122.456 46.2038C121.947 35.0309 129.808 22.4625 138.138 22.25L165.436 24.5881L165.904 30.5673L172.259 107.687L142.519 130.467L140.689 101.44C140.689 101.44 129.932 100.867 126.025 82.7538C124.072 73.7434 123.027 58.6151 122.456 46.2038Z" fill="#FFBE9D"/>
<path d="M126.823 59.7241C126.879 60.342 127.111 60.907 127.47 61.3C127.829 61.6931 128.288 61.8835 128.749 61.8311C128.976 61.8183 129.198 61.7445 129.403 61.6139C129.608 61.4834 129.791 61.2989 129.942 61.0713C130.093 60.8437 130.208 60.5777 130.281 60.2891C130.354 60.0005 130.382 59.6952 130.366 59.3914C130.314 58.7732 130.084 58.2068 129.725 57.8132C129.367 57.4195 128.908 57.2297 128.447 57.2843C128.22 57.2972 127.997 57.371 127.792 57.5014C127.587 57.6318 127.403 57.8162 127.252 58.0436C127.1 58.2711 126.984 58.537 126.911 58.8256C126.837 59.1142 126.808 59.4197 126.823 59.7241Z" fill="#263238"/>
<path d="M125.62 53.6339C125.868 53.902 127.085 52.3494 128.983 52.0352C130.882 51.721 132.422 52.7652 132.567 52.4233C132.656 52.2662 132.381 51.7487 131.721 51.2497C130.826 50.626 129.81 50.3872 128.811 50.5658C127.824 50.7252 126.901 51.3049 126.177 52.22C125.647 52.9223 125.503 53.5138 125.62 53.6339Z" fill="#263238"/>
<path d="M143.798 57.8665C143.85 58.4865 144.081 59.0543 144.441 59.4482C144.801 59.8421 145.262 60.0307 145.724 59.9736C145.951 59.9596 146.172 59.8849 146.377 59.7539C146.581 59.623 146.764 59.4384 146.915 59.2111C147.065 58.9838 147.181 58.7183 147.254 58.4303C147.327 58.1422 147.356 57.8374 147.341 57.5339C147.289 56.9157 147.059 56.3493 146.7 55.9557C146.342 55.562 145.883 55.3722 145.422 55.4268C145.195 55.4396 144.972 55.5135 144.767 55.6439C144.562 55.7743 144.378 55.9587 144.227 56.1861C144.075 56.4136 143.959 56.6795 143.886 56.9681C143.812 57.2567 143.783 57.5622 143.798 57.8665Z" fill="#263238"/>
<path d="M144.321 51.49C144.569 51.7672 145.786 50.2146 147.684 49.9004C149.583 49.5862 151.089 50.6305 151.268 50.2793C151.357 50.1222 151.082 49.6047 150.422 49.1149C149.528 48.4875 148.512 48.2454 147.513 48.4218C146.526 48.585 145.604 49.1641 144.878 50.076C144.349 50.8153 144.204 51.4068 144.321 51.49Z" fill="#263238"/>
<path d="M139.204 71.0449C139.204 70.897 137.993 70.8231 136.047 70.8138C135.559 70.8138 135.091 70.8138 134.967 70.3425C134.863 69.679 134.914 68.9886 135.111 68.3648C135.414 66.7106 135.744 64.9732 136.081 63.1619C137.416 55.7687 138.317 49.7156 138.09 49.6509C137.863 49.5862 136.611 55.5192 135.277 62.9124L134.389 68.1246C134.162 68.9632 134.162 69.8828 134.389 70.7214C134.481 70.9396 134.608 71.1264 134.762 71.2675C134.916 71.4085 135.092 71.5 135.277 71.5347C135.553 71.5849 135.833 71.5849 136.109 71.5347C138.007 71.3776 139.204 71.1927 139.204 71.0449Z" fill="#263238"/>
<path d="M140.69 101.449C147.179 100.492 153.344 97.1323 158.497 91.7457C158.497 91.7457 154.81 105.479 140.882 106.061L140.69 101.449Z" fill="#EB996E"/>
<path d="M140.58 77.0518C140.883 76.3813 141.309 75.8258 141.817 75.4378C142.325 75.0497 142.898 74.8419 143.482 74.8339C143.906 74.8128 144.329 74.9076 144.725 75.1125C145.121 75.3174 145.482 75.6282 145.786 76.026C146.079 76.4082 146.278 76.902 146.356 77.4408C146.433 77.9796 146.386 78.5374 146.22 79.0387C145.957 79.5489 145.587 79.9419 145.156 80.1675C144.726 80.393 144.256 80.4409 143.805 80.3048C142.869 80.0257 141.984 79.5012 141.199 78.7615C140.967 78.593 140.76 78.3709 140.586 78.1054C140.509 77.9777 140.46 77.823 140.445 77.6594C140.431 77.4958 140.451 77.3299 140.504 77.1812" fill="#EB996E"/>
<path d="M144.947 71.8674C144.637 71.8674 144.885 74.6398 143.31 76.9317C141.735 79.2236 139.506 79.2513 139.527 79.6394C139.527 79.8243 140.064 80.1015 140.992 79.9721C142.201 79.7962 143.325 79.0495 144.163 77.8651C144.963 76.7339 145.404 75.2296 145.394 73.6694C145.394 72.4773 145.085 71.8212 144.947 71.8674Z" fill="#263238"/>
<path d="M142.904 42.5165C143.152 43.1726 145.023 42.5165 147.279 42.5165C149.535 42.5165 151.405 43.0155 151.653 42.3409C151.756 42.0267 151.385 41.4167 150.594 40.8715C149.549 40.2151 148.404 39.8985 147.251 39.9473C146.095 39.9613 144.958 40.3379 143.929 41.0471C143.152 41.5831 142.794 42.2485 142.904 42.5165Z" fill="#263238"/>
<path d="M125.634 46.1299C126.019 46.6567 127.271 45.8342 128.839 45.5477C130.407 45.2612 131.783 45.446 132.03 44.7899C132.14 44.4664 131.872 43.9212 131.239 43.4776C130.397 42.954 129.458 42.7773 128.541 42.9697C127.625 43.1622 126.771 43.7151 126.088 44.5588C125.585 45.252 125.448 45.8711 125.634 46.1299Z" fill="#263238"/>
<path d="M126.136 23.9504C125.845 25.7196 125.957 27.5652 126.457 29.2478C126.957 30.9304 127.822 32.3723 128.939 33.3865C130.056 34.4006 131.375 34.9402 132.723 34.9351C134.072 34.9301 135.388 34.3807 136.501 33.3582C135.696 34.689 136.047 36.8238 137.003 37.9789C138.025 39.0351 139.313 39.5127 140.593 39.3097C141.932 39.1828 143.235 38.6707 144.413 37.8081C145.591 36.9455 146.618 35.7525 147.423 34.3101C147.691 35.7099 148.201 37.0047 148.913 38.0887C149.624 39.1726 150.517 40.015 151.517 40.5468C152.517 41.0785 153.597 41.2847 154.668 41.1484C155.738 41.0121 156.77 40.5372 157.678 39.7625C157.063 40.7723 156.632 41.9608 156.419 43.2336C156.206 44.5064 156.216 45.8285 156.45 47.0949C156.684 48.3612 157.134 49.537 157.765 50.5287C158.396 51.5204 159.19 52.3008 160.085 52.8078C160.979 53.3149 161.95 53.5346 162.919 53.4497C163.887 53.3647 164.828 52.9773 165.666 52.3183C166.504 51.6593 167.216 50.7468 167.746 49.6533C168.276 48.5598 168.608 47.3154 168.717 46.019C169.646 45.2948 170.437 44.292 171.03 43.089C171.622 41.886 172 40.5154 172.133 39.084C172.266 37.6526 172.151 36.1992 171.797 34.8373C171.444 33.4753 170.86 32.2417 170.093 31.2327C170.746 30.7779 171.298 30.1004 171.694 29.2683C172.09 28.4361 172.316 27.4785 172.349 26.4918C172.393 24.5188 172.057 22.5641 171.372 20.8175C169.839 16.4648 167.184 12.6666 163.807 11.1787C160.429 9.69084 156.241 10.9015 154.074 14.7089C153.868 15.1778 153.561 15.5516 153.194 15.781C152.919 15.8207 152.642 15.7728 152.383 15.6411C152.125 15.5094 151.894 15.2977 151.708 15.0231C149.817 12.9253 147.829 10.6704 145.408 10.1899C143.935 9.95563 142.446 10.3955 141.181 11.4385C139.917 12.4816 138.952 14.0667 138.44 15.9381C136.453 12.4263 132.711 10.615 129.692 12.3431C126.672 14.0713 125.083 19.6624 126.94 23.3127" fill="#263238"/>
<path d="M162.135 49.272C162.624 53.0078 163.509 56.6302 164.763 60.0291C165.292 61.4615 166.069 63.0233 167.259 63.1804C167.805 63.1843 168.337 62.9531 168.778 62.5206C169.219 62.0882 169.545 61.4773 169.708 60.7776C170.008 59.3639 170.048 57.8733 169.825 56.4341C169.203 51.3026 168.325 46.2331 167.197 41.2596" fill="#263238"/>
<path d="M165.526 53.1349C165.684 52.987 172.163 48.7082 173.154 58.116C174.144 67.5238 166.908 66.9232 166.867 66.6552C166.826 66.3872 165.526 53.1349 165.526 53.1349Z" fill="#FFBE9D"/>
<path d="M168.635 62.6906C168.635 62.6906 168.766 62.783 168.986 62.8662C169.293 62.975 169.621 62.9221 169.9 62.7183C170.588 62.21 171.063 60.5189 170.918 58.8092C170.848 57.9991 170.647 57.2197 170.327 56.5265C170.23 56.2452 170.083 55.9998 169.9 55.8115C169.717 55.6231 169.502 55.4974 169.275 55.4453C169.126 55.4149 168.974 55.4582 168.848 55.567C168.721 55.6758 168.628 55.8428 168.587 56.0368C168.518 56.314 168.587 56.4896 168.545 56.5173C168.504 56.545 168.38 56.3879 168.394 55.9905C168.408 55.7483 168.483 55.5198 168.607 55.3436C168.791 55.103 169.039 54.9701 169.295 54.974C169.59 54.9982 169.875 55.1229 170.125 55.3363C170.374 55.5498 170.578 55.8449 170.719 56.1939C171.098 56.9536 171.334 57.8258 171.407 58.7353C171.558 60.639 171.028 62.552 170.031 63.1434C169.853 63.2569 169.658 63.3158 169.46 63.3158C169.263 63.3158 169.068 63.2569 168.889 63.1434C168.669 62.9124 168.614 62.7091 168.635 62.6906Z" fill="#EB996E"/>
<path d="M127.862 68.947C126.184 68.947 124.1 68.7899 123.419 68.0229C122.415 66.9509 121.115 62.5797 119.98 58.4487C119.836 57.922 119.739 57.5246 119.705 57.4692L120.303 57.0256C120.428 57.3859 120.536 57.7563 120.626 58.1345C121.239 60.3525 122.855 66.2393 123.845 67.3021C125.015 68.5497 133.915 67.8935 134.671 66.9601C135.139 66.2948 135.909 60.6759 136.301 56.8962L136.343 56.5542L139.851 55.8704L139.961 56.1661C140.848 58.5412 143.51 64.927 145.153 65.9343C147.217 67.1912 154.693 65.2597 155.175 64.086C155.594 63.0972 156.413 56.5543 156.86 52.4048L156.901 52.0352L167.679 50.9724L167.727 51.8966L157.499 52.9131C157.272 54.974 156.344 63.1989 155.773 64.5481C155.003 66.3964 146.942 68.0414 144.865 66.7753C142.787 65.5092 140.05 58.458 139.458 56.8777L136.948 57.3675C136.721 59.5023 135.909 66.5443 135.167 67.5978C134.424 68.6513 130.008 68.8362 129.506 68.8639C129.004 68.8916 128.502 68.947 127.862 68.947Z" fill="#455A64"/>
<path d="M140.188 57.4784L139.369 55.9905C143.73 51.6563 151.88 48.8654 157.431 51.9151L156.915 53.6247C151.963 50.9077 144.266 53.4214 140.188 57.4784Z" fill="#455A64"/>
<path d="M120.207 58.3841L119.553 56.7576C124.952 52.8484 132.291 52.7006 137.003 56.4064L136.315 58.0052C132.051 54.6505 125.131 54.8169 120.207 58.3841Z" fill="#455A64"/>
<path d="M170.946 58.1253C170.563 57.823 170.128 57.6637 169.684 57.6637C169.24 57.6637 168.804 57.823 168.422 58.1253C168.174 58.3783 167.986 58.723 167.881 59.1173C167.776 59.5115 167.759 59.9381 167.832 60.345C167.905 60.7519 168.065 61.1214 168.292 61.4084C168.519 61.6953 168.803 61.8871 169.109 61.9605C169.431 61.9766 169.749 62.0608 170.052 62.21C170.2 62.342 170.321 62.5204 170.406 62.7297C170.491 62.939 170.537 63.173 170.54 63.4114C170.543 63.8863 170.509 64.3603 170.437 64.8254C170.328 65.911 170.387 67.0151 170.609 68.0691C170.661 68.3829 170.78 68.6691 170.953 68.8916C171.113 69.0463 171.306 69.1273 171.503 69.1227C171.809 69.1048 172.107 68.9889 172.372 68.7848C172.638 68.5806 172.863 68.294 173.03 67.949C173.36 67.2538 173.57 66.4671 173.642 65.6479C173.799 64.3895 173.822 63.1075 173.711 61.8404C173.676 61.0575 173.491 60.3 173.174 59.6409C172.631 58.6244 170.547 57.7926 169.618 57.6632" fill="#263238"/>
<path d="M147.602 32.3601C147.537 32.4097 147.468 32.4471 147.396 32.471C147.251 32.5357 147.038 32.6189 146.756 32.7113C145.943 32.9931 145.106 33.1298 144.266 33.1179C143.664 33.1129 143.065 33.001 142.485 32.7852C141.737 32.5341 141.044 32.0538 140.458 31.382C139.872 30.7102 139.41 29.8651 139.108 28.9131C138.735 27.7706 138.691 26.4833 138.984 25.2997L139.231 25.5214C137.738 27.3447 135.847 28.4725 133.839 28.7375C132.744 28.8899 131.637 28.774 130.572 28.3955C130.01 28.1979 129.475 27.8863 128.983 27.4714C128.471 27.0414 128.057 26.4308 127.786 25.7063C127.497 24.8574 127.354 23.932 127.367 22.9985C127.368 22.1106 127.418 21.224 127.518 20.3462C127.594 19.4791 127.766 18.632 128.027 17.8326C128.147 17.426 128.333 17.0603 128.571 16.7615C128.809 16.4628 129.093 16.2384 129.403 16.1044L129.52 16.5295C128.377 17.2054 127.099 17.3485 125.888 16.9361C124.787 16.5913 123.781 15.8352 122.986 14.7552C122.276 13.7953 121.797 12.5722 121.61 11.2434C121.426 9.8775 121.512 8.47065 121.86 7.16351C122.207 5.85637 122.804 4.69475 123.591 3.79478C123.914 3.40534 124.283 3.0928 124.684 2.87064C124.684 2.91684 124.286 3.14788 123.667 3.87796C122.794 4.93876 122.182 6.33119 121.913 7.87027C121.717 8.94236 121.698 10.0589 121.858 11.1417C122.047 12.3968 122.509 13.5482 123.185 14.4502C123.945 15.4558 124.897 16.1594 125.936 16.4833C127.084 16.8684 128.295 16.7252 129.375 16.0767L129.492 16.5018C129.226 16.6181 128.982 16.8129 128.778 17.0719C128.575 17.3309 128.417 17.6475 128.316 17.9989C128.071 18.7546 127.911 19.5551 127.841 20.374C127.683 22.0467 127.525 23.8857 128.082 25.4568C128.353 26.0835 128.721 26.6244 129.161 27.0423C129.601 27.4602 130.104 27.7453 130.634 27.878C131.659 28.2396 132.723 28.3522 133.777 28.2107C135.714 27.9698 137.542 26.8972 138.991 25.1518L139.458 24.5788L139.245 25.3736C138.972 26.4609 139.007 27.645 139.341 28.7005C139.641 29.6681 140.114 30.5218 140.717 31.1865C141.247 31.7672 141.861 32.1951 142.519 32.4433C143.083 32.6655 143.665 32.7897 144.252 32.813C145.079 32.842 145.905 32.7459 146.715 32.5265C147.299 32.4433 147.602 32.3324 147.602 32.3601Z" fill="white"/>
<path d="M125.537 31.8703C125.41 32.0379 125.258 32.1671 125.09 32.2492C124.656 32.5075 124.189 32.6548 123.715 32.6836C122.991 32.7373 122.271 32.4957 121.651 31.9904C121.26 31.6609 120.979 31.141 120.867 30.5395C120.801 30.2038 120.81 29.8494 120.894 29.5206C120.977 29.1918 121.13 28.9034 121.335 28.6913L121.514 29.1071L121.397 29.1718C120.644 29.595 119.831 29.7911 119.016 29.7464C118.201 29.7017 117.403 29.4172 116.678 28.9131C116.243 28.6181 115.844 28.2347 115.495 27.7763C115.255 27.4437 115.145 27.2311 115.158 27.2126C115.669 27.7439 116.214 28.211 116.789 28.6081C117.486 29.0417 118.243 29.2763 119.011 29.2969C119.779 29.3176 120.543 29.124 121.252 28.7282L121.362 28.6728L122.979 27.7486L121.541 29.0609C121.394 29.2184 121.285 29.4295 121.225 29.6688C121.165 29.9081 121.158 30.1655 121.204 30.4102C121.298 30.8945 121.524 31.3136 121.837 31.5838C122.402 32.0661 123.059 32.3196 123.728 32.3139C124.344 32.2792 124.953 32.1299 125.537 31.8703Z" fill="white"/>
<path d="M133.33 51.9706C133.296 52.0352 132.876 51.6194 132.113 51.185C131.128 50.6069 130.055 50.3563 128.983 50.4545C127.912 50.5526 126.873 50.9966 125.957 51.7488C125.269 52.3217 124.87 52.8115 124.829 52.7561C125.08 52.2278 125.419 51.7849 125.819 51.4623C126.75 50.5995 127.835 50.0858 128.962 49.9744C130.091 49.8828 131.218 50.2021 132.223 50.8985C132.65 51.1316 133.03 51.4992 133.33 51.9706Z" fill="#EB996E"/>
<path d="M151.942 48.7914C151.602 48.611 151.269 48.4074 150.945 48.1815C150.149 47.726 149.285 47.5287 148.422 47.6058C147.559 47.6829 146.722 48.0321 145.979 48.6251C145.684 48.909 145.376 49.1683 145.057 49.4014C145.057 49.4014 145.277 48.8838 145.848 48.3386C146.6 47.6287 147.483 47.2101 148.4 47.1286C149.317 47.0472 150.233 47.3059 151.048 47.8765C151.667 48.3201 151.969 48.7175 151.942 48.7914Z" fill="#EB996E"/>
<path d="M146.715 72.5512C146.667 72.5512 146.57 72.4033 146.385 72.2C146.134 71.9515 145.845 71.7811 145.539 71.701C144.81 71.5254 144.163 71.6271 144.129 71.4607C144.585 71.1368 145.115 71.0544 145.614 71.2297C145.985 71.3191 146.321 71.5808 146.563 71.969C146.77 72.274 146.77 72.5235 146.715 72.5512Z" fill="#EB996E"/>
<path d="M148.145 73.6694C148.049 73.6694 147.836 73.0225 147.457 72.2555C147.079 71.4885 146.77 70.9247 146.838 70.8231C146.907 70.7214 147.396 71.1743 147.767 72.006C148.138 72.8377 148.269 73.6694 148.145 73.6694Z" fill="#EB996E"/>
<path d="M133.578 97.9468C133.613 98.0723 133.638 98.2024 133.653 98.3349C133.701 98.6214 133.763 99.0095 133.846 99.4993C134.011 100.553 134.252 102.05 134.534 103.981C135.173 107.863 136.061 113.5 137.656 120.283C139.252 127.067 141.707 134.977 146.089 142.306C147.182 144.154 148.372 145.938 149.603 147.758C150.182 148.707 150.839 149.563 151.564 150.309C152.309 151.012 153.229 151.297 154.129 151.104C155.048 150.855 155.914 150.338 156.667 149.588C157.447 148.82 158.181 147.97 158.861 147.047C160.299 145.245 161.66 143.295 162.988 141.289C168.332 133.203 172.335 124.119 174.233 115.08C175.156 110.816 175.66 106.407 175.733 101.967C175.797 98.0972 175.622 94.2272 175.21 90.3965C174.584 84.8471 173.728 79.3491 172.645 73.9282C172.273 72.0245 171.957 70.5366 171.785 69.4923C171.695 69.0025 171.62 68.6236 171.565 68.3371C171.538 68.2064 171.518 68.0737 171.503 67.9398C171.545 68.0651 171.58 68.1949 171.606 68.3279C171.668 68.6051 171.75 68.984 171.854 69.4738C172.074 70.4996 172.383 71.9875 172.775 73.882C173.916 79.2941 174.814 84.7935 175.465 90.3503C175.892 94.1979 176.08 98.0865 176.029 101.976C175.97 106.452 175.473 110.899 174.55 115.201C172.652 124.322 168.628 133.48 163.256 141.603C161.881 143.627 160.505 145.586 159.081 147.398C158.386 148.335 157.636 149.198 156.839 149.976C156.043 150.767 155.127 151.313 154.157 151.575C153.165 151.774 152.155 151.442 151.343 150.651C150.596 149.888 149.917 149.01 149.321 148.035C148.097 146.187 146.9 144.394 145.807 142.546C141.996 135.923 139.14 128.4 137.388 120.367C136.174 114.984 135.166 109.521 134.369 104C134.093 102.068 133.873 100.553 133.722 99.4993C133.653 99.0003 133.605 98.5752 133.564 98.3257C133.56 98.1991 133.565 98.0723 133.578 97.9468Z" fill="#263238"/>
<path d="M158.971 254.053C158.971 254.053 158.971 253.97 158.909 253.795C158.848 253.619 158.813 253.333 158.751 253.009C158.689 252.686 158.607 252.224 158.511 251.725C158.423 251.132 158.361 250.534 158.325 249.932C158.071 246.09 158.32 242.217 159.061 238.491C159.859 233.741 161.392 228.325 162.5 222.096C163.115 218.86 163.414 215.53 163.387 212.19C163.297 208.609 162.731 205.078 161.716 201.765C160.739 198.318 159.528 195.084 158.428 191.914C157.328 188.744 156.241 185.611 156.103 182.321C155.966 179.031 156.929 176.093 157.479 173.366C157.759 172.059 157.902 170.706 157.905 169.346C157.874 168.08 157.683 166.83 157.341 165.65C156.714 163.647 155.98 161.708 155.147 159.846C154.52 158.417 154.019 156.894 153.655 155.308C153.534 154.721 153.451 154.122 153.407 153.516C153.39 153.075 153.39 152.634 153.407 152.194L153.51 151.381C153.516 151.29 153.529 151.2 153.551 151.113C153.4 152.499 153.48 153.913 153.785 155.253C154.174 156.809 154.688 158.302 155.319 159.707C156.179 161.57 156.936 163.516 157.582 165.53C157.935 166.734 158.137 168.008 158.18 169.3C158.192 170.711 158.055 172.117 157.775 173.477C157.259 176.25 156.337 179.124 156.475 182.303C156.612 185.482 157.685 188.587 158.786 191.729C159.886 194.871 161.104 198.124 162.094 201.599C163.12 204.966 163.691 208.553 163.779 212.19C163.802 215.568 163.494 218.936 162.864 222.207C161.709 228.464 160.148 233.87 159.322 238.583C158.564 242.268 158.274 246.099 158.462 249.913C158.491 250.511 158.544 251.107 158.621 251.697C158.696 252.196 158.765 252.621 158.82 252.981C158.875 253.342 158.909 253.573 158.944 253.776C158.959 253.867 158.968 253.96 158.971 254.053Z" fill="#263238"/>
<path d="M151.646 150.124L151.433 151.15L153.104 153.996H153.806L155.649 151.15L155.353 150.124H151.646Z" fill="#455A64"/>
<path d="M12.2221 246.854L43.0356 319.797L162.513 319.862C162.996 319.857 163.458 319.596 163.798 319.135C164.138 318.675 164.329 318.052 164.329 317.404C164.331 316.756 164.142 316.133 163.803 315.673C163.464 315.212 163.002 314.95 162.52 314.945L122.827 313.458C121.934 313.442 121.06 313.104 120.297 312.478C119.535 311.852 118.912 310.961 118.494 309.9L92.7223 243.869C92.4606 243.203 92.0702 242.644 91.5922 242.251C91.1141 241.857 90.5661 241.644 90.0055 241.633L14.9458 240.626C14.4007 240.619 13.8639 240.806 13.3895 241.167C12.9152 241.528 12.52 242.05 12.2438 242.682C11.9676 243.314 11.8202 244.032 11.8164 244.764C11.8126 245.497 11.9526 246.218 12.2221 246.854Z" fill="#455A64"/>
<path d="M12.3528 244.11C12.3528 244.11 12.4766 244.11 12.7105 244.11H13.7628H17.7933L32.6223 244.285L81.5524 245.034L85.1153 245.099H86.876C87.4893 245.095 88.0942 245.29 88.6391 245.668C89.1841 246.046 89.6528 246.596 90.0055 247.27C90.3425 247.963 90.5626 248.647 90.8446 249.331L92.4266 253.388L98.4586 268.849C102.297 278.7 105.749 287.581 108.652 295.039L115.53 312.718C116.321 314.798 116.947 316.415 117.373 317.533C117.573 318.078 117.731 318.457 117.848 318.79C117.965 319.123 117.992 319.233 117.992 319.233L117.813 318.818C117.689 318.522 117.524 318.106 117.311 317.579C116.864 316.47 116.224 314.862 115.406 312.801C113.755 308.634 111.382 302.636 108.459 295.196C105.536 287.757 102.063 278.922 98.1697 269.08L92.1171 253.628L90.5282 249.581C90.26 248.915 90.0124 248.176 89.7166 247.575C89.3973 246.964 88.9725 246.466 88.4786 246.124C87.9835 245.78 87.4335 245.602 86.876 245.607H85.1084L81.5524 245.551L32.5948 244.636L17.7658 244.313L13.7284 244.202L12.683 244.156L12.3528 244.11Z" fill="#263238"/>
<path d="M62.2735 278.331C62.3248 279.121 62.1971 279.914 61.9073 280.605C61.6175 281.296 61.1789 281.854 60.6493 282.204C60.1196 282.555 59.5234 282.682 58.9389 282.57C58.3544 282.457 57.8088 282.11 57.3737 281.574C56.9386 281.037 56.6343 280.337 56.5006 279.564C56.3669 278.791 56.4101 277.982 56.6245 277.243C56.839 276.504 57.2146 275.869 57.7022 275.422C58.1899 274.974 58.7667 274.735 59.3572 274.736C60.0987 274.693 60.8224 275.048 61.3692 275.722C61.9161 276.396 62.2413 277.335 62.2735 278.331Z" fill="white"/>
<path d="M312 319.751C312 319.88 242.154 319.991 156.007 319.991C69.8599 319.991 0 319.88 0 319.751C0 319.622 69.8324 319.492 156.007 319.492C242.181 319.492 312 319.612 312 319.751Z" fill="#263238"/>
</svg>
