<svg width="225" height="317" viewBox="0 0 225 317" fill="none" xmlns="http://www.w3.org/2000/svg">
<path d="M109.065 317C161.237 317 203.531 307.677 203.531 296.177C203.531 284.677 161.237 275.354 109.065 275.354C56.8929 275.354 14.5992 284.677 14.5992 296.177C14.5992 307.677 56.8929 317 109.065 317Z" fill="#90CAF9"/>
<path opacity="0.5" d="M109.065 317C161.237 317 203.531 307.677 203.531 296.177C203.531 284.677 161.237 275.354 109.065 275.354C56.8929 275.354 14.5992 284.677 14.5992 296.177C14.5992 307.677 56.8929 317 109.065 317Z" fill="white"/>
<path d="M125.509 114.155C125.509 114.155 132.467 135.312 132.467 136.428C132.467 137.545 126.293 142.33 125.117 143.335C124.204 144.075 123.264 144.743 122.3 145.336L123.006 155.137C123.006 155.137 133.637 151.684 138.093 148.231C142.549 144.778 142.392 140.878 141.36 135.088C140.327 129.299 133.46 106.923 133.46 106.923L125.509 114.155Z" fill="#EBB376"/>
<mask id="mask0_1_459" style="mask-type:luminance" maskUnits="userSpaceOnUse" x="122" y="106" width="20" height="50">
<path d="M125.509 114.155C125.509 114.155 132.467 135.312 132.467 136.428C132.467 137.545 126.293 142.33 125.117 143.335C124.204 144.075 123.264 144.743 122.3 145.336L123.006 155.137C123.006 155.137 133.637 151.684 138.093 148.231C142.549 144.778 142.392 140.878 141.36 135.088C140.327 129.299 133.46 106.923 133.46 106.923L125.509 114.155Z" fill="white"/>
</mask>
<g mask="url(#mask0_1_459)">
<g style="mix-blend-mode:multiply" opacity="0.5">
<path d="M138.073 148.231C142.529 144.778 142.372 140.878 141.34 135.088C140.308 129.299 133.441 106.923 133.441 106.923L132.33 107.928L131.977 108.859C131.977 108.859 138.387 131.272 138.772 138.737C139.034 143.754 131.944 150.009 127.26 153.583C130.736 152.27 135.466 150.251 138.073 148.231Z" fill="#90CAF9"/>
</g>
</g>
<path d="M125.509 114.155C125.509 114.155 132.467 135.312 132.467 136.428C132.467 137.545 126.293 142.33 125.117 143.335C124.204 144.075 123.264 144.743 122.3 145.336L123.006 155.137C123.006 155.137 133.637 151.684 138.093 148.231C142.549 144.778 142.392 140.878 141.36 135.088C140.327 129.299 133.46 106.923 133.46 106.923L125.509 114.155Z" stroke="#263238" stroke-linecap="round" stroke-linejoin="round"/>
<path d="M75.3024 109.482C75.3024 109.482 70.2256 135.982 70.0753 140.664C69.9251 145.345 80.1571 154.579 80.5295 155.137C80.9019 155.696 79.948 139.035 79.948 139.035L83.4175 114.834L75.3024 109.482Z" fill="#EBB376"/>
<mask id="mask1_1_459" style="mask-type:luminance" maskUnits="userSpaceOnUse" x="70" y="109" width="14" height="47">
<path d="M75.3024 109.482C75.3024 109.482 70.2256 135.982 70.0753 140.664C69.9251 145.345 80.1571 154.579 80.5295 155.137C80.9019 155.696 79.948 139.035 79.948 139.035L83.4175 114.834L75.3024 109.482Z" fill="white"/>
</mask>
<g mask="url(#mask1_1_459)">
<g style="mix-blend-mode:multiply" opacity="0.5">
<path d="M77.6285 111.651L77.5174 110.934L75.3024 109.482C75.3024 109.482 70.2256 135.982 70.0753 140.664C69.9251 145.345 80.1571 154.579 80.5295 155.137C80.6798 155.361 80.621 152.866 80.4968 149.785C77.4521 146.109 73.0809 140.934 72.5713 138.755" fill="#90CAF9"/>
</g>
</g>
<path d="M75.3024 109.482C75.3024 109.482 70.2256 135.982 70.0753 140.664C69.9251 145.345 80.1571 154.579 80.5295 155.137C80.9019 155.696 79.948 139.035 79.948 139.035L83.4175 114.834L75.3024 109.482Z" stroke="#263238" stroke-linecap="round" stroke-linejoin="round"/>
<path d="M99.1445 82.862C99.1445 82.862 97.1844 84.8725 93.362 85.0959C89.5397 85.3193 89.3568 81.3728 84.6067 81.3728C78.8503 81.3728 71.6304 107.314 71.6304 107.314C71.6304 107.314 75.2241 112.331 78.7458 114.443C80.694 115.659 82.7423 116.519 84.8419 117.003L85.3907 134.046H124.163L124.627 117.003L136.747 105.806C136.747 105.806 130.801 90.662 127.913 84.9842C125.025 79.3065 120.17 81.4193 118.687 82.862C117.204 84.3047 112.807 84.6491 111.186 84.3141C109.073 83.6476 106.983 82.8306 104.927 81.8661C104.927 81.8661 102.431 78.9062 99.1445 82.862Z" fill="#90CAF9" stroke="#263238" stroke-linecap="round" stroke-linejoin="round"/>
<path d="M85.2339 88.8749L85.0771 117.161" stroke="#263238" stroke-width="0.5" stroke-linecap="round" stroke-linejoin="round"/>
<path d="M86.6387 91.4439C86.6387 91.4439 87.1875 105.247 89.2522 112.936" stroke="#263238" stroke-width="0.5" stroke-linecap="round" stroke-linejoin="round"/>
<path d="M89.6116 114.043C90.0575 115.919 90.6059 117.743 91.2516 119.498" stroke="#263238" stroke-width="0.5" stroke-linecap="round" stroke-linejoin="round"/>
<path d="M87.8866 89.8802C88.6284 94.8993 89.6756 99.8169 91.0164 104.577" stroke="#263238" stroke-width="0.5" stroke-linecap="round" stroke-linejoin="round"/>
<path d="M121.588 92.3281C121.588 92.3281 119.713 103.246 118.067 108.151" stroke="#263238" stroke-width="0.5" stroke-linecap="round" stroke-linejoin="round"/>
<path d="M124.627 117.05L124.548 94.9995" stroke="#263238" stroke-width="0.5" stroke-linecap="round" stroke-linejoin="round"/>
<path d="M123.771 95.4463C123.771 95.4463 122.359 109.408 118.922 116.715" stroke="#263238" stroke-width="0.5" stroke-linecap="round" stroke-linejoin="round"/>
<path d="M122.052 113.932C122.052 113.932 120.484 118.167 119.393 120.391" stroke="#263238" stroke-width="0.5" stroke-linecap="round" stroke-linejoin="round"/>
<path d="M96.9556 84.5374C96.9556 84.5374 98.0533 94.1151 99.6149 99.011C101.176 103.907 103.914 104.912 106.26 103.469C108.605 102.027 110.324 94.8877 110.18 85.7847" stroke="#263238" stroke-width="0.5" stroke-linecap="round" stroke-linejoin="round"/>
<path d="M91.4084 64.4885C91.4084 64.4885 89.9187 60.8212 88.7491 62.7107C87.5796 64.6002 89.69 68.947 90.8596 70.3897C92.0291 71.8324 92.8916 70.9481 92.8197 69.3937C92.7478 67.8393 91.4084 64.4885 91.4084 64.4885Z" fill="#90CAF9" stroke="#263238" stroke-linecap="round" stroke-linejoin="round"/>
<path opacity="0.5" d="M91.4084 64.4885C91.4084 64.4885 89.9187 60.8212 88.7491 62.7107C87.5796 64.6002 89.69 68.947 90.8596 70.3897C92.0291 71.8324 92.8916 70.9481 92.8197 69.3937C92.7478 67.8393 91.4084 64.4885 91.4084 64.4885Z" fill="#EBB376"/>
<path d="M91.4084 64.4885C91.4084 64.4885 89.9187 60.8212 88.7491 62.7107C87.5796 64.6002 89.69 68.947 90.8596 70.3897C92.0291 71.8324 92.8916 70.9481 92.8197 69.3937C92.7479 67.8393 91.4084 64.4885 91.4084 64.4885Z" stroke="#263238" stroke-linecap="round" stroke-linejoin="round"/>
<path d="M115.054 64.4885C115.054 64.4885 116.538 60.8212 117.714 62.7107C118.89 64.6002 116.773 68.947 115.603 70.3897C114.434 71.8324 113.565 70.9481 113.643 69.3937C113.722 67.8393 115.054 64.4885 115.054 64.4885Z" fill="#90CAF9" stroke="#263238" stroke-linecap="round" stroke-linejoin="round"/>
<path opacity="0.5" d="M115.054 64.4885C115.054 64.4885 116.538 60.8212 117.714 62.7107C118.89 64.6002 116.773 68.947 115.603 70.3897C114.434 71.8324 113.565 70.9481 113.643 69.3937C113.722 67.8393 115.054 64.4885 115.054 64.4885Z" fill="#EBB376"/>
<path d="M115.054 64.4885C115.054 64.4885 116.538 60.8212 117.714 62.7107C118.89 64.6002 116.773 68.947 115.603 70.3897C114.434 71.8324 113.565 70.9481 113.643 69.3937C113.722 67.8393 115.054 64.4885 115.054 64.4885Z" stroke="#263238" stroke-linecap="round" stroke-linejoin="round"/>
<path d="M98.4388 82.0896C99.1769 86.8423 100.117 91.5266 101.255 96.1165C102.666 101.124 105.319 101.124 106.417 97.8943C107.514 94.6645 108.213 82.6295 108.213 82.6295C108.213 82.6295 100.863 84.0908 98.4388 82.0896Z" fill="#EBB376" stroke="#263238" stroke-linecap="round" stroke-linejoin="round"/>
<path d="M91.5652 65.717C91.5652 65.717 93.5972 75.9556 97.4457 81.9778C101.294 87.9999 102.673 89.424 104.718 88.9865C106.763 88.5491 108.939 84.7608 111.983 76.8864C115.028 69.012 115.25 62.9712 115.505 62.4128C115.76 61.8543 114.852 50.7222 110.5 45.9287C106.149 41.1351 101.275 39.0316 97.0536 44.2626C92.8328 49.4935 90.1539 58.0288 91.5652 65.717Z" fill="#EBB376"/>
<mask id="mask2_1_459" style="mask-type:luminance" maskUnits="userSpaceOnUse" x="91" y="41" width="25" height="49">
<path d="M91.5652 65.717C91.5652 65.717 93.5972 75.9556 97.4457 81.9778C101.294 87.9999 102.673 89.424 104.718 88.9865C106.763 88.5491 108.939 84.7608 111.983 76.8864C115.028 69.012 115.25 62.9712 115.505 62.4128C115.76 61.8543 114.852 50.7222 110.5 45.9287C106.149 41.1351 101.275 39.0316 97.0536 44.2626C92.8328 49.4935 90.1539 58.0288 91.5652 65.717Z" fill="white"/>
</mask>
<g mask="url(#mask2_1_459)">
<g style="mix-blend-mode:multiply" opacity="0.5">
<path d="M110.481 45.8915C106.103 41.1073 101.255 38.9944 97.0339 44.2254C92.813 49.4564 90.1537 58.0289 91.565 65.7171C91.565 65.7171 91.9505 67.6904 92.715 70.371C92.7128 70.0278 92.7458 69.686 92.813 69.3565C93.7474 65.14 96.5046 56.9771 105.783 60.7188C113.153 63.6787 112.251 72.912 111.565 77.8359L111.964 76.812C115.015 68.9097 115.231 62.8968 115.485 62.3384C115.74 61.7799 114.858 50.685 110.481 45.8915Z" fill="#90CAF9"/>
</g>
</g>
<path d="M91.5652 65.717C91.5652 65.717 93.5972 75.9556 97.4457 81.9778C101.294 87.9999 102.673 89.424 104.718 88.9865C106.763 88.5491 108.939 84.7608 111.983 76.8864C115.028 69.012 115.25 62.9712 115.505 62.4128C115.76 61.8543 114.852 50.7222 110.5 45.9287C106.149 41.1351 101.275 39.0316 97.0536 44.2626C92.8328 49.4935 90.1539 58.0288 91.5652 65.717Z" stroke="#263238" stroke-linecap="round" stroke-linejoin="round"/>
<path d="M104.698 71.0597C104.456 73.2337 104.325 75.4299 104.306 77.631C104.385 79.8556 104.855 80.5257 104.149 80.7491C103.444 80.9725 102.666 79.4088 102.666 79.4088" stroke="#263238" stroke-linecap="round" stroke-linejoin="round"/>
<path d="M96.8773 72.8468C97.3302 73.3129 97.8714 73.5729 98.43 73.5928C98.9885 73.6128 99.5382 73.3917 100.007 72.9585" stroke="#263238" stroke-linecap="round" stroke-linejoin="round"/>
<path d="M106.809 72.8468C107.261 73.3121 107.801 73.5717 108.358 73.5916C108.916 73.6115 109.464 73.3909 109.932 72.9585" stroke="#263238" stroke-linecap="round" stroke-linejoin="round"/>
<path d="M101.869 69.0958C101.869 69.0958 100.379 63.8556 95.4594 66.3035" stroke="#263238" stroke-linecap="round" stroke-linejoin="round"/>
<path d="M105.966 68.4537C105.966 68.4537 107.214 63.3251 111.67 66.3315" stroke="#263238" stroke-linecap="round" stroke-linejoin="round"/>
<path d="M102.817 73.2284C102.817 76.0952 100.51 78.4129 97.6613 78.4129C94.8126 78.4129 92.4996 76.0952 92.4996 73.2284C92.4996 70.3616 94.6557 69.1702 97.5045 69.1702C100.353 69.1702 102.817 70.3709 102.817 73.2284Z" stroke="#263238" stroke-linecap="round" stroke-linejoin="round"/>
<path d="M114.702 73.2284C114.702 76.0952 112.389 78.4129 109.54 78.4129C106.691 78.4129 104.385 76.0952 104.385 73.2284C104.385 70.3616 106.534 69.1702 109.383 69.1702C112.232 69.1702 114.702 70.3709 114.702 73.2284Z" stroke="#263238" stroke-linecap="round" stroke-linejoin="round"/>
<path d="M48.8207 162.518L48.5005 275.357C48.5005 275.712 48.5997 276.053 48.7761 276.304C48.9526 276.556 49.1919 276.697 49.4414 276.697C49.6848 276.697 49.9185 276.562 50.093 276.32C50.2675 276.079 50.369 275.75 50.3758 275.403L52.6365 162.676L48.8207 162.518Z" fill="#EBB376" stroke="#263238" stroke-linecap="round" stroke-linejoin="round"/>
<path d="M43.4891 188.897L43.182 305.551C43.1811 305.728 43.2049 305.902 43.2518 306.066C43.2988 306.229 43.3681 306.377 43.4556 306.502C43.5432 306.626 43.6472 306.725 43.7618 306.792C43.8763 306.859 43.9991 306.893 44.1229 306.892C44.3658 306.892 44.5993 306.758 44.7747 306.519C44.9501 306.279 45.0536 305.953 45.0638 305.607L47.3179 189.045L43.4891 188.897Z" fill="#C77E2E" stroke="#263238" stroke-linecap="round" stroke-linejoin="round"/>
<path d="M158.328 162.518L158.648 275.357C158.649 275.532 158.626 275.706 158.579 275.869C158.533 276.031 158.464 276.179 158.377 276.304C158.29 276.428 158.187 276.527 158.073 276.595C157.959 276.662 157.837 276.697 157.714 276.697C157.47 276.697 157.236 276.562 157.06 276.321C156.884 276.08 156.782 275.751 156.773 275.403L154.519 162.676L158.328 162.518Z" fill="#EBB376" stroke="#263238" stroke-linecap="round" stroke-linejoin="round"/>
<path d="M163.666 188.897L163.986 305.551C163.987 305.728 163.964 305.902 163.917 306.066C163.87 306.229 163.8 306.377 163.713 306.502C163.625 306.626 163.521 306.725 163.407 306.792C163.292 306.859 163.169 306.893 163.046 306.892C162.803 306.892 162.571 306.758 162.396 306.518C162.222 306.279 162.12 305.952 162.111 305.607L159.851 189.045L163.666 188.897Z" fill="#C77E2E" stroke="#263238" stroke-linecap="round" stroke-linejoin="round"/>
<path d="M80.6144 193.746L80.425 297.286C80.4043 297.544 80.4547 297.804 80.5655 298.01C80.6764 298.217 80.8391 298.354 81.0195 298.394C81.1957 298.359 81.3559 298.23 81.4675 298.033C81.5792 297.835 81.634 297.585 81.6207 297.332L83.0385 193.867L80.6144 193.746Z" fill="#EBB376" stroke="#263238" stroke-linecap="round" stroke-linejoin="round"/>
<path d="M126.619 190.414L126.796 280.774C126.811 280.993 126.766 281.211 126.672 281.384C126.577 281.558 126.439 281.672 126.286 281.705C126.134 281.672 125.997 281.557 125.903 281.384C125.809 281.21 125.766 280.992 125.783 280.774L124.574 190.488L126.619 190.414Z" fill="#EBB376" stroke="#263238" stroke-linecap="round" stroke-linejoin="round"/>
<path d="M79.9023 190.414L80.0787 280.774C80.0938 280.993 80.0493 281.211 79.9544 281.384C79.8596 281.558 79.7216 281.672 79.569 281.705C79.417 281.672 79.2796 281.557 79.1858 281.384C79.092 281.21 79.049 280.992 79.0659 280.774L77.8572 190.488L79.9023 190.414Z" fill="#EBB376" stroke="#263238" stroke-linecap="round" stroke-linejoin="round"/>
<path d="M125.306 193.746L125.509 297.286C125.529 297.544 125.479 297.804 125.368 298.01C125.257 298.217 125.094 298.354 124.914 298.394C124.739 298.357 124.579 298.227 124.468 298.03C124.356 297.834 124.301 297.585 124.313 297.332L122.895 193.867L125.306 193.746Z" fill="#C77E2E" stroke="#263238" stroke-linecap="round" stroke-linejoin="round"/>
<path d="M102.64 200.997C118.698 200.997 131.716 196.758 131.716 191.531C131.716 186.303 118.698 182.064 102.64 182.064C86.5821 182.064 73.5645 186.303 73.5645 191.531C73.5645 196.758 86.5821 200.997 102.64 200.997Z" fill="#EBB376" stroke="#263238" stroke-linecap="round" stroke-linejoin="round"/>
<path d="M88.4812 271.885C88.4812 271.885 86.9588 274.994 88.05 276.539C89.1411 278.084 90.2257 277.47 90.1147 279.024C90.0036 280.578 88.2656 285.847 86.7432 291.431C85.2208 297.016 88.3767 302.601 91.3169 301.056C94.2571 299.51 93.9304 283.985 94.3617 281.193C94.7929 278.4 95.1261 277.935 95.0151 275.301C94.904 272.667 94.7994 269.874 93.3816 269.558C91.9638 269.241 89.1346 270.805 88.4812 271.885Z" fill="#EBB376" stroke="#263238" stroke-linecap="round" stroke-linejoin="round"/>
<path d="M93.1529 296.774C91.1927 295.713 88.1872 295.927 86.4949 296.169C87.0633 299.678 89.2391 302.145 91.3169 301.056C92.1859 300.599 92.7543 298.943 93.1529 296.774Z" fill="#90CAF9" stroke="#263238" stroke-linecap="round" stroke-linejoin="round"/>
<path d="M85.1098 265.062C85.1098 265.062 88.2656 272.667 89.1346 274.677C90.0036 276.688 92.9504 276.073 93.2771 273.281C93.6038 270.489 92.0749 262.735 92.0749 262.735L85.541 265.062H85.1098Z" fill="#EBB376" stroke="#263238" stroke-linecap="round" stroke-linejoin="round"/>
<path d="M77.5958 252.962C77.5958 252.962 76.7203 254.982 77.158 256.378C77.5958 257.774 78.7915 261.805 79.556 263.824C80.3204 265.844 83.803 267.082 87.8278 266.151C91.8527 265.221 94.1461 262.577 94.2571 260.25C94.3682 257.923 93.6038 254.824 93.0549 251.101C92.5061 247.378 91.0948 247.536 89.1346 247.536C87.1744 247.536 79.2293 250.793 77.5958 252.962Z" fill="#90CAF9" stroke="#263238" stroke-linecap="round" stroke-linejoin="round"/>
<path d="M89.3568 207.354C89.4156 203.538 90.9641 201.658 91.0817 199.042C91.266 195.584 91.0653 192.107 90.4871 188.738L87.5077 182.94C78.9353 183.098 72.7934 183.303 72.6954 183.349C72.3687 183.498 72.1466 186.141 71.931 188.31C71.931 188.31 68.2916 188.971 68.945 203.398C69.0365 205.409 72.7085 228.669 72.9764 231.322C74.6099 247.526 78.2492 255.643 78.2492 255.643C78.2492 255.643 78.5759 257.663 82.8229 257.197C87.0699 256.732 91.3169 252.702 91.3169 252.702C91.3169 252.702 89.1346 221.157 89.3568 207.354Z" fill="#263238" stroke="#263238" stroke-linecap="round" stroke-linejoin="round"/>
<path d="M71.3429 185.946C71.3429 185.946 66.8411 186.877 64.0838 191.363C61.3265 195.849 63.6657 198.809 69.0234 198.009C74.3812 197.208 80.5622 189.399 80.8236 188.98C81.0849 188.561 75.2371 183.256 71.3429 185.946Z" fill="#EBB376" stroke="#263238" stroke-linecap="round" stroke-linejoin="round"/>
<path d="M79.3338 188.738C82.202 188.948 85.0479 189.572 87.8278 190.6C91.5325 192.154 98.0664 195.254 99.5888 195.254C101.111 195.254 100.68 187.184 100.68 185.639C100.68 184.094 81.0784 183.154 78.6804 183.154C76.2825 183.154 79.3338 188.738 79.3338 188.738Z" fill="#EBB376" stroke="#263238" stroke-linecap="round" stroke-linejoin="round"/>
<path d="M100.68 185.639C100.68 185.639 98.9354 186.877 98.282 191.531C97.6286 196.185 96.7596 198.67 98.0664 199.908C99.3731 201.146 105.038 202.076 105.907 200.838C106.776 199.601 109.174 193.392 109.612 189.362C110.049 185.332 100.68 185.639 100.68 185.639Z" fill="#90CAF9" stroke="#263238" stroke-linecap="round" stroke-linejoin="round"/>
<path d="M108.083 187.184C107.07 188.84 106.261 190.728 105.691 192.769C105.23 194.905 104.865 197.081 104.6 199.284C106.685 200.098 108.723 201.137 110.696 202.393C114.185 204.562 120.066 206.116 125.724 207.978C131.383 209.839 132.911 211.701 134.872 211.701C136.832 211.701 139.23 209.523 142.281 204.254C145.332 198.986 142.712 187.808 139.667 184.392C136.623 180.976 120.282 178.193 118.106 179.123C115.93 180.054 108.083 187.184 108.083 187.184Z" fill="#263238" stroke="#263238" stroke-linecap="round" stroke-linejoin="round"/>
<path d="M67.2201 198.093C66.7897 195.308 65.9181 192.701 64.6719 190.469C64.4693 190.739 64.2733 191.019 64.0838 191.326C61.6598 195.254 63.1756 198.046 67.2201 198.093Z" fill="#90CAF9" stroke="#263238" stroke-linecap="round" stroke-linejoin="round"/>
<path d="M89.0235 200.55C89.0235 200.55 86.7759 234.812 82.1891 240.145" stroke="#EBB376" stroke-width="0.5" stroke-linecap="round" stroke-linejoin="round"/>
<path d="M87.4358 233.071C87.4358 233.071 85.6521 244.241 80.9738 248.68" stroke="#EBB376" stroke-width="0.5" stroke-linecap="round" stroke-linejoin="round"/>
<path d="M116.361 194.323C116.361 194.323 109.39 194.947 113.963 199.284C118.537 203.621 126.815 206.423 126.815 206.423" stroke="#EBB376" stroke-width="0.5" stroke-linecap="round" stroke-linejoin="round"/>
<path d="M166.972 182.586L164.62 179.57L159.184 162.816C158.926 162.054 158.521 161.412 158.017 160.965C157.512 160.519 156.929 160.286 156.335 160.294H50.7482C50.1532 160.284 49.5685 160.516 49.0628 160.963C48.5571 161.41 48.1513 162.052 47.8929 162.816L41.1173 183.684L40 183.098V187.873L40.0523 187.817C40.1188 188.454 40.3458 189.035 40.6908 189.451C41.0359 189.867 41.4754 190.09 41.9275 190.079H165.15C165.626 190.094 166.087 189.846 166.437 189.385C166.787 188.925 166.998 188.289 167.025 187.612L166.972 182.586Z" fill="#263238" stroke="#263238" stroke-linecap="round" stroke-linejoin="round"/>
<path d="M165.15 185.713H41.9275C41.6223 185.73 41.3191 185.637 41.0462 185.442C40.7734 185.246 40.5398 184.956 40.3674 184.597C40.195 184.237 40.0894 183.822 40.0606 183.389C40.0317 182.956 40.0806 182.519 40.2026 182.12L47.8929 158.451C48.15 157.686 48.5555 157.041 49.0615 156.594C49.5675 156.147 50.1528 155.916 50.7482 155.928H156.335C156.93 155.918 157.513 156.15 158.018 156.597C158.523 157.044 158.927 157.687 159.184 158.451L166.874 182.12C166.996 182.519 167.045 182.956 167.016 183.389C166.988 183.822 166.882 184.237 166.71 184.597C166.537 184.956 166.304 185.246 166.031 185.442C165.758 185.637 165.455 185.73 165.15 185.713Z" fill="#C77E2E" stroke="#263238" stroke-linecap="round" stroke-linejoin="round"/>
<g style="mix-blend-mode:multiply" opacity="0.5">
<path d="M48.1673 169.815C48.1673 169.815 45.3774 172.543 47.1219 173.539C48.8665 174.535 68.9189 173.79 71.3625 172.794C73.8062 171.798 76.5896 162.611 76.5896 161.122C76.5896 159.633 73.0744 158.562 71.7807 158.479C70.487 158.395 53.3944 159.875 53.3944 159.875L48.1673 169.815Z" fill="#90CAF9"/>
</g>
<g style="mix-blend-mode:multiply" opacity="0.5">
<path d="M147.913 174.535C151.861 174.535 155.061 172.643 155.061 170.309C155.061 167.975 151.861 166.083 147.913 166.083C143.965 166.083 140.765 167.975 140.765 170.309C140.765 172.643 143.965 174.535 147.913 174.535Z" fill="#90CAF9"/>
</g>
<g style="mix-blend-mode:multiply" opacity="0.5">
<path d="M102.405 179.756C116.561 179.756 128.037 176.698 128.037 172.924C128.037 169.151 116.561 166.092 102.405 166.092C88.2485 166.092 76.7726 169.151 76.7726 172.924C76.7726 176.698 88.2485 179.756 102.405 179.756Z" fill="#90CAF9"/>
</g>
<path d="M142.686 153.685C142.686 153.685 142.216 151.014 140.654 151.907C139.092 152.801 139.249 158.702 139.556 162.044C139.863 165.385 141.98 163.821 141.98 163.821V161.82C141.98 161.82 141.203 162.704 140.811 161.485C140.419 160.266 140.497 154.132 140.889 154.244C141.281 154.355 142.059 156.245 142.059 156.245C142.059 156.245 142.294 156.031 142.686 153.685Z" fill="#90CAF9" stroke="#263238" stroke-linecap="round" stroke-linejoin="round"/>
<path d="M141.562 154.132V168.764C141.562 170.486 144.339 171.882 147.769 171.882C151.2 171.882 153.97 170.486 153.97 168.764V154.132H141.562Z" fill="#90CAF9" stroke="#263238" stroke-linecap="round" stroke-linejoin="round"/>
<path d="M153.97 154.132C153.97 155.621 151.193 156.822 147.769 156.822C144.346 156.822 141.562 155.621 141.562 154.132C141.562 152.643 144.339 151.442 147.769 151.442C151.2 151.442 153.97 152.652 153.97 154.132Z" fill="#EBB376" stroke="#263238" stroke-linecap="round" stroke-linejoin="round"/>
<path d="M153.16 154.132C153.16 155.426 150.742 156.468 147.769 156.468C144.797 156.468 142.372 155.426 142.372 154.132C142.372 152.838 144.79 151.796 147.769 151.796C150.749 151.796 153.16 152.838 153.16 154.132Z" fill="#EBB376" stroke="#263238" stroke-linecap="round" stroke-linejoin="round"/>
<path d="M143.607 155.621C146.323 156.75 149.209 156.75 151.925 155.621C149.209 154.492 146.323 154.492 143.607 155.621Z" fill="#263238" stroke="#263238" stroke-linecap="round" stroke-linejoin="round"/>
<path d="M71.16 166.158L74.6033 155.584V152.466L71.0032 161.373L71.16 166.158Z" fill="#EBB376" stroke="#263238" stroke-linecap="round" stroke-linejoin="round"/>
<path d="M71.16 170.728L74.6033 160.145V157.027L71.0032 165.934L71.16 170.728Z" fill="#EBB376" stroke="#263238" stroke-linecap="round" stroke-linejoin="round"/>
<path d="M72.0225 161.262L75.3024 150.567V148.119L71.7872 158.479L72.0225 161.262Z" fill="#041F1D" stroke="#263238" stroke-linecap="round" stroke-linejoin="round"/>
<path d="M124.79 173.771H80.0003C79.901 173.773 79.8026 173.746 79.7107 173.693C79.6188 173.639 79.5352 173.561 79.4647 173.461C79.3943 173.362 79.3383 173.243 79.3002 173.113C79.262 172.982 79.2423 172.842 79.2423 172.701C79.2423 172.56 79.262 172.42 79.3002 172.289C79.3383 172.159 79.3943 172.04 79.4647 171.941C79.5352 171.841 79.6188 171.763 79.7107 171.709C79.8026 171.656 79.901 171.629 80.0003 171.631H124.79C124.889 171.629 124.987 171.656 125.078 171.71C125.17 171.763 125.253 171.842 125.323 171.941C125.393 172.041 125.448 172.159 125.486 172.29C125.523 172.42 125.542 172.56 125.541 172.701C125.542 172.842 125.523 172.982 125.486 173.112C125.448 173.242 125.393 173.361 125.323 173.461C125.253 173.56 125.17 173.639 125.078 173.692C124.987 173.746 124.889 173.773 124.79 173.771Z" fill="#EBB376" stroke="#263238" stroke-linecap="round" stroke-linejoin="round"/>
<path d="M125.169 171.612H79.6148C79.448 171.612 79.2875 171.522 79.1661 171.359C79.0446 171.197 78.9714 170.974 78.9614 170.737L76.485 128.34C76.4739 128.209 76.4825 128.076 76.5103 127.949C76.5381 127.823 76.5845 127.707 76.6463 127.608C76.7081 127.51 76.784 127.431 76.8689 127.377C76.9537 127.324 77.0456 127.297 77.1384 127.298H127.652C127.744 127.297 127.836 127.324 127.921 127.377C128.006 127.431 128.082 127.51 128.144 127.608C128.206 127.707 128.252 127.823 128.28 127.949C128.308 128.076 128.316 128.209 128.305 128.34L125.829 170.737C125.819 170.976 125.745 171.2 125.622 171.363C125.499 171.525 125.337 171.615 125.169 171.612Z" fill="#141312" stroke="#263238" stroke-linecap="round" stroke-linejoin="round"/>
<path d="M106.691 150.185C106.691 152.717 104.764 154.765 102.392 154.765C100.02 154.765 98.086 152.717 98.086 150.185C98.086 147.654 100.013 145.615 102.392 145.615C104.77 145.615 106.691 147.663 106.691 150.185Z" fill="#2BD7CC" stroke="#263238" stroke-linecap="round" stroke-linejoin="round"/>
<path d="M151.206 117.068C151.905 116.292 152.396 115.198 152.598 113.969C152.745 113.047 152.729 112.087 152.552 111.176" stroke="#263238" stroke-linecap="round" stroke-linejoin="round"/>
<path d="M145.992 150.26C145.992 150.26 150.337 146.537 148.919 142.283C147.502 138.029 142.706 135.209 142.706 128.582C142.706 122.867 146.972 120.754 149.756 118.464" stroke="#263238" stroke-linecap="round" stroke-linejoin="round"/>
<path d="M150.004 150.139C150.004 150.139 152.428 147.84 152.428 144.191C152.428 141.743 150.592 140.142 148.168 136.205" stroke="#263238" stroke-linecap="round" stroke-linejoin="round"/>
<path d="M146.829 133.822C146.829 133.822 145.241 132.044 146.41 128.703" stroke="#263238" stroke-linecap="round" stroke-linejoin="round"/>
<path d="M110.043 36.323C110.821 36.0903 112.487 35.1781 113.61 31.4643C113.628 31.4081 113.637 31.3476 113.638 31.2863C113.639 31.2249 113.631 31.1639 113.615 31.1068C113.599 31.0497 113.576 30.9976 113.546 30.9536C113.516 30.9095 113.48 30.8743 113.441 30.85C113.361 30.8027 113.271 30.8016 113.191 30.8467C113.11 30.8919 113.045 30.9798 113.009 31.092C111.977 34.4987 110.5 35.2526 109.886 35.4201C110.985 33.5253 111.592 31.1486 111.605 28.6906C111.605 22.231 107.403 17 102.222 17C97.0406 17 92.8393 22.231 92.8393 28.6906C92.8429 31.0495 93.3942 33.3404 94.4075 35.2061C93.4208 35.1316 91.7547 35.7273 89.6443 39.2363C89.584 39.3249 89.5503 39.4434 89.5503 39.5668C89.5503 39.6901 89.584 39.8086 89.6443 39.8972C89.7049 39.9689 89.7811 40.0084 89.8599 40.0089C89.9074 40.009 89.9543 39.994 89.9973 39.965C90.0402 39.936 90.0781 39.8938 90.1082 39.8413C92.8067 35.3643 94.5904 36.1182 94.9498 36.323C94.3397 36.801 93.7679 37.3722 93.2444 38.0263C90.2323 41.8891 88.3963 49.1957 88.6315 55.283C88.8959 59.3203 89.9233 63.1802 91.6044 66.4523C93.7922 64.2219 95.6062 61.3294 96.9165 57.9823C97.8929 55.5236 98.7656 52.9843 99.53 50.3778C99.53 53.105 99.7783 56.3999 100.785 58.7548C101.51 60.6149 102.574 62.1629 103.863 63.2371C105.153 64.3112 106.622 64.872 108.115 64.8607C108.631 64.8713 109.146 64.7995 109.651 64.6466C109.695 64.6308 109.737 64.602 109.773 64.5619C109.809 64.5218 109.839 64.4714 109.86 64.4139C112.382 65.1772 114.891 65.112 115.277 64.3488C115.897 63.1295 116.779 59.3226 117.073 54.6687C117.609 46.7757 114.12 39.9251 110.043 36.323ZM101.392 58.187C100.125 55.2365 100.164 50.4243 100.314 47.6599L100.399 47.3434C100.459 50.1866 100.968 52.974 101.888 55.4989C102.807 58.0238 104.114 60.2214 105.711 61.9288C106.593 62.7975 107.572 63.4488 108.606 63.8555C107.005 64.0137 103.712 63.5762 101.392 58.187Z" fill="#263238"/>
<path d="M101.503 43.5367C101.503 43.5367 100.967 49.1772 105.999 54.7061C111.03 60.2349 115.799 58.0569 115.799 58.0569" stroke="#EBB376" stroke-width="0.5" stroke-linecap="round" stroke-linejoin="round"/>
<path d="M102.242 41.675C102.242 41.675 107.541 52.6675 114.858 49.8007" stroke="#EBB376" stroke-width="0.5" stroke-linecap="round" stroke-linejoin="round"/>
<path d="M99.6215 38.0171C98.7858 37.4127 97.8497 37.1468 96.9152 37.2486C95.9808 37.3504 95.0839 37.8158 94.3225 38.5942C91.5064 41.2655 90.0951 47.5762 90.0951 47.5762" stroke="#EBB376" stroke-width="0.5" stroke-linecap="round" stroke-linejoin="round"/>
<path d="M99.7587 41.0793C99.7587 41.0793 97.4784 40.2136 96.067 42.2241C95.3792 43.1121 94.7909 44.1448 94.3225 45.2864" stroke="#EBB376" stroke-width="0.5" stroke-linecap="round" stroke-linejoin="round"/>
</svg>
