<svg width="265" height="154" viewBox="0 0 265 154" fill="none" xmlns="http://www.w3.org/2000/svg">
<path d="M41.8295 79.5114C39.1364 79.5114 36.8182 78.9659 34.875 77.875C32.9432 76.7727 31.4545 75.2159 30.4091 73.2045C29.3636 71.1818 28.8409 68.7898 28.8409 66.0284C28.8409 63.3352 29.3636 60.9716 30.4091 58.9375C31.4545 56.9034 32.9261 55.3182 34.8239 54.1818C36.733 53.0455 38.9716 52.4773 41.5398 52.4773C43.267 52.4773 44.875 52.7557 46.3636 53.3125C47.8636 53.858 49.1705 54.6818 50.2841 55.7841C51.4091 56.8864 52.2841 58.2727 52.9091 59.9432C53.5341 61.6023 53.8466 63.5455 53.8466 65.7727V67.767H31.7386V63.267H47.0114C47.0114 62.2216 46.7841 61.2955 46.3295 60.4886C45.875 59.6818 45.2443 59.0511 44.4375 58.5966C43.642 58.1307 42.7159 57.8977 41.6591 57.8977C40.5568 57.8977 39.5795 58.1534 38.7273 58.6648C37.8864 59.1648 37.2273 59.8409 36.75 60.6932C36.2727 61.5341 36.0284 62.4716 36.017 63.5057V67.7841C36.017 69.0795 36.2557 70.1989 36.733 71.142C37.2216 72.0852 37.9091 72.8125 38.7955 73.3239C39.6818 73.8352 40.733 74.0909 41.9489 74.0909C42.7557 74.0909 43.4943 73.9773 44.1648 73.75C44.8352 73.5227 45.4091 73.1818 45.8864 72.7273C46.3636 72.2727 46.7273 71.7159 46.9773 71.0568L53.6932 71.5C53.3523 73.1136 52.6534 74.5227 51.5966 75.7273C50.5511 76.9205 49.1989 77.8523 47.5398 78.5227C45.892 79.1818 43.9886 79.5114 41.8295 79.5114ZM66.0511 79.4943C64.3807 79.4943 62.892 79.2045 61.5852 78.625C60.2784 78.0341 59.2443 77.1648 58.483 76.017C57.733 74.858 57.358 73.4148 57.358 71.6875C57.358 70.233 57.625 69.0114 58.1591 68.0227C58.6932 67.0341 59.4205 66.2386 60.3409 65.6364C61.2614 65.0341 62.3068 64.5795 63.4773 64.2727C64.6591 63.9659 65.8977 63.75 67.1932 63.625C68.7159 63.4659 69.9432 63.3182 70.875 63.1818C71.8068 63.0341 72.483 62.8182 72.9034 62.5341C73.3239 62.25 73.5341 61.8295 73.5341 61.2727V61.1705C73.5341 60.0909 73.1932 59.2557 72.5114 58.6648C71.8409 58.0739 70.8864 57.7784 69.6477 57.7784C68.3409 57.7784 67.3011 58.0682 66.5284 58.6477C65.7557 59.2159 65.2443 59.9318 64.9943 60.7955L58.2784 60.25C58.6193 58.6591 59.2898 57.2841 60.2898 56.125C61.2898 54.9545 62.5795 54.0568 64.1591 53.4318C65.75 52.7955 67.5909 52.4773 69.6818 52.4773C71.1364 52.4773 72.5284 52.6477 73.858 52.9886C75.1989 53.3295 76.3864 53.858 77.4205 54.5739C78.4659 55.2898 79.2898 56.2102 79.892 57.3352C80.4943 58.4489 80.7955 59.7841 80.7955 61.3409V79H73.9091V75.3693H73.7045C73.2841 76.1875 72.7216 76.9091 72.017 77.5341C71.3125 78.1477 70.4659 78.6307 69.4773 78.983C68.4886 79.3239 67.3466 79.4943 66.0511 79.4943ZM68.1307 74.483C69.1989 74.483 70.142 74.2727 70.9602 73.8523C71.7784 73.4205 72.4205 72.8409 72.8864 72.1136C73.3523 71.3864 73.5852 70.5625 73.5852 69.642V66.8636C73.358 67.0114 73.0455 67.1477 72.6477 67.2727C72.2614 67.3864 71.8239 67.4943 71.3352 67.5966C70.8466 67.6875 70.358 67.7727 69.8693 67.8523C69.3807 67.9205 68.9375 67.983 68.5398 68.0398C67.6875 68.1648 66.9432 68.3636 66.3068 68.6364C65.6705 68.9091 65.1761 69.2784 64.8239 69.7443C64.4716 70.1989 64.2955 70.767 64.2955 71.4489C64.2955 72.4375 64.6534 73.1932 65.3693 73.7159C66.0966 74.2273 67.017 74.483 68.1307 74.483ZM86.429 79V52.8182H93.4688V57.3864H93.7415C94.2188 55.7614 95.0199 54.5341 96.1449 53.7045C97.2699 52.8636 98.5653 52.4432 100.031 52.4432C100.395 52.4432 100.787 52.4659 101.207 52.5114C101.628 52.5568 101.997 52.6193 102.315 52.6989V59.142C101.974 59.0398 101.503 58.9489 100.901 58.8693C100.298 58.7898 99.7472 58.75 99.2472 58.75C98.179 58.75 97.2244 58.983 96.3835 59.4489C95.554 59.9034 94.8949 60.5398 94.4062 61.358C93.929 62.1761 93.6903 63.1193 93.6903 64.1875V79H86.429ZM113.331 63.8636V79H106.07V52.8182H112.99V57.4375H113.297C113.876 55.9148 114.848 54.7102 116.212 53.8239C117.575 52.9261 119.229 52.4773 121.172 52.4773C122.99 52.4773 124.575 52.875 125.928 53.6705C127.28 54.4659 128.331 55.6023 129.081 57.0795C129.831 58.5455 130.206 60.2955 130.206 62.3295V79H122.945V63.625C122.956 62.0227 122.547 60.7727 121.717 59.875C120.888 58.9659 119.746 58.5114 118.291 58.5114C117.314 58.5114 116.45 58.7216 115.7 59.142C114.962 59.5625 114.382 60.1761 113.962 60.983C113.553 61.7784 113.342 62.7386 113.331 63.8636Z" fill="black"/>
<path d="M16.1136 22.0975L7.9308e-05 22.1024L8.05782 1.19992L16.1136 22.0975Z" fill="black"/>
<path d="M137.068 93V23.1818H151.83V51.9886H181.795V23.1818H196.523V93H181.795V64.1591H151.83V93H137.068Z" fill="#08F9EA"/>
<path d="M223.688 82.8523V67.8182H230.949V94H223.977V89.2443H223.705C223.114 90.7784 222.131 92.0114 220.756 92.9432C219.392 93.875 217.727 94.3409 215.761 94.3409C214.011 94.3409 212.472 93.9432 211.142 93.1477C209.813 92.3523 208.773 91.2216 208.023 89.7557C207.284 88.2898 206.909 86.5341 206.898 84.4886V67.8182H214.159V83.1932C214.17 84.7386 214.585 85.9602 215.403 86.858C216.222 87.7557 217.318 88.2045 218.693 88.2045C219.568 88.2045 220.386 88.0057 221.148 87.608C221.909 87.1989 222.523 86.5966 222.989 85.8011C223.466 85.0057 223.699 84.0227 223.688 82.8523ZM236.893 94V59.0909H244.155V72.2159H244.376C244.695 71.5114 245.155 70.7955 245.757 70.0682C246.371 69.3295 247.166 68.7159 248.143 68.2273C249.132 67.7273 250.359 67.4773 251.825 67.4773C253.734 67.4773 255.496 67.9773 257.109 68.9773C258.723 69.9659 260.013 71.4602 260.979 73.4602C261.945 75.4489 262.428 77.9432 262.428 80.9432C262.428 83.8636 261.956 86.3295 261.013 88.3409C260.081 90.3409 258.808 91.858 257.195 92.892C255.592 93.9148 253.797 94.4261 251.808 94.4261C250.399 94.4261 249.2 94.1932 248.212 93.7273C247.234 93.2614 246.433 92.6761 245.808 91.9716C245.183 91.2557 244.706 90.5341 244.376 89.8068H244.053V94H236.893ZM244.001 80.9091C244.001 82.4659 244.217 83.8239 244.649 84.983C245.081 86.142 245.706 87.0455 246.524 87.6932C247.342 88.3295 248.337 88.6477 249.507 88.6477C250.689 88.6477 251.689 88.3239 252.507 87.6761C253.325 87.017 253.945 86.108 254.365 84.9489C254.797 83.7784 255.013 82.4318 255.013 80.9091C255.013 79.3977 254.803 78.0682 254.382 76.9205C253.962 75.7727 253.342 74.875 252.524 74.2273C251.706 73.5795 250.7 73.2557 249.507 73.2557C248.325 73.2557 247.325 73.5682 246.507 74.1932C245.7 74.8182 245.081 75.7045 244.649 76.8523C244.217 78 244.001 79.3523 244.001 80.9091Z" fill="#08F9EA"/>
<path d="M214 51L222.66 62.25H205.34L214 51Z" fill="#08F9EA"/>
<path d="M6.33381 94V24.1818H21.0952V81.8295H51.027V94H6.33381Z" fill="black"/>
</svg>
